<?xml version="1.0" encoding="utf-8"?>
<!-- Generator: Adobe Illustrator 19.0.0, SVG Export Plug-In . SVG Version: 6.00 Build 0)  -->
<svg version="1.1" id="Capa_1" xmlns="http://www.w3.org/2000/svg" xmlns:xlink="http://www.w3.org/1999/xlink" x="0px" y="0px"
	 width="127px" height="36.7px" viewBox="-445.1 273.3 127 36.7" style="enable-background:new -445.1 273.3 127 36.7;"
	 xml:space="preserve">
<style type="text/css">
	.st0{fill:#274683;}
</style>
<g id="XMLID_2621_">
	<path id="XMLID_2638_" class="st0" d="M-433,292.9h-4.2l2.2-7.4L-433,292.9z M-439.3,301.1l1.3-4.8h5.6l1.3,4.8h5.3l-5.2-18.5
		c-0.3-1-1-1.7-2-1.7h-7.4v1.8h0.7c0.8,0,1.1,0.3,1.1,0.9c0,0.4,0,0.8-0.3,1.7l-5.3,15.8H-439.3z"/>
	<path id="XMLID_2637_" class="st0" d="M-419.3,301.1v-18.6c0-1-0.6-1.6-1.5-1.6h-4.5v1.8h0.3c0.8,0,1,0.3,1,1.1v17.3H-419.3
		L-419.3,301.1z"/>
	<path id="XMLID_2636_" class="st0" d="M-411.2,301.1v-18.6c0-1-0.6-1.6-1.5-1.6h-4.5v1.8h0.3c0.8,0,1,0.3,1,1.1v17.3H-411.2
		L-411.2,301.1z"/>
	<path id="XMLID_2633_" class="st0" d="M-403.2,282.8c0-1.3-1-2.1-2.6-2.1s-2.6,0.8-2.6,2.1s1,2.1,2.6,2.1
		C-404,285-403.2,284.2-403.2,282.8z M-403.2,301.1v-13.7c0-1-0.6-1.6-1.5-1.6h-4.4v1.8h0.2c0.8,0,1,0.3,1,1.1V301h4.6V301.1z"/>
	<path id="XMLID_2630_" class="st0" d="M-392.8,293.8v2.9c-0.8,0.8-1.7,1.3-2.6,1.3c-0.8,0-1.1-0.4-1.1-1.6c0-1.1,0.2-1.7,1-2
		C-394.9,294.4-394,294.2-392.8,293.8z M-399.1,290.3c1.6-0.8,3.1-1.1,4.5-1.1c1.2,0,1.7,0.4,1.7,1.8v0.3c-1.9,0.3-2.5,0.4-3.5,0.7
		c-0.6,0.1-1.1,0.3-1.7,0.6c-1.9,0.8-2.7,2.2-2.7,4.5c0,2.9,1.2,4.3,3.7,4.3c0.9,0,1.7-0.1,2.5-0.4c0.7-0.3,1-0.6,2-1.3v0.2
		c0,0.9,0.4,1.3,1.3,1.3h4.3v-1.7h-0.2c-0.8,0-1-0.3-1-1.2v-7.1c0-3.8-1.3-5.2-5-5.2c-1.2,0-2.4,0.1-3.5,0.4
		c-1.1,0.2-1.7,0.4-3.1,1.2L-399.1,290.3z"/>
	<path id="XMLID_2629_" class="st0" d="M-380,301.1v-10.2c0.8-0.9,1.7-1.3,2.6-1.3c1,0,1.3,0.4,1.3,1.9v9.5h4.6v-10.2
		c0-2.4-0.1-3.1-1-4c-0.6-0.8-1.6-1.1-2.8-1.1c-1.9,0-3.1,0.6-4.9,2.2v-0.7c0-1-0.4-1.5-1.3-1.5h-4.4v1.8h0.2c0.8,0,1,0.3,1,1.1
		v12.2h4.7V301.1z"/>
	<path id="XMLID_2628_" class="st0" d="M-357.4,298h-6.5l6.2-8.7v-3.1h-9.8c-1,0-1.7,0.4-1.7,1.7v2.7h1.8v-0.2c0-0.7,0.3-1,1-1h3.4
		l-6.2,8.9v3h11.7L-357.4,298L-357.4,298z"/>
	<path id="XMLID_2622_" class="st0" d="M-332.7,300.1v-16.7c0-1.3-0.4-1.8-1.7-1.8h-3.8v1.8h0.2h0.4c0.1,0,0.2,0.1,0.4,0.2
		c0.1,0.2,0.2,0.4,0.2,0.9v15.7L-332.7,300.1L-332.7,300.1z M-330.6,300.1h4.3v-12.6c0-1.3-0.4-1.8-1.7-1.8h-2.6V300.1L-330.6,300.1
		z M-338.8,300.1v-14.5h-2.6c-1.2,0-1.7,0.4-1.7,1.8v12.8L-338.8,300.1L-338.8,300.1z M-322.1,291.7c0,7.6-5.4,13.1-12.8,13.1
		c-7.4,0-12.8-5.5-12.8-13.1c0-7.5,5.4-13.1,12.8-13.1C-327.4,278.6-322.1,284.1-322.1,291.7z M-319,291.7c0-9.2-6.8-16.2-15.8-16.2
		c-9,0-15.8,6.8-15.8,16.2s6.8,16.2,15.8,16.2C-325.9,307.8-319,300.9-319,291.7z"/>
</g>
</svg>
