<?xml version="1.0" encoding="utf-8"?>
<!-- Generator: Adobe Illustrator 26.5.0, SVG Export Plug-In . SVG Version: 6.00 Build 0)  -->
<svg version="1.1" id="Capa_1" xmlns="http://www.w3.org/2000/svg" xmlns:xlink="http://www.w3.org/1999/xlink" x="0px" y="0px"
	 viewBox="0 0 132 38" style="enable-background:new 0 0 132 38;" xml:space="preserve">
<style type="text/css">
	.st0{fill-rule:evenodd;clip-rule:evenodd;fill:#FFFFFF;}
</style>
<path d="M6,0h120.2c3.2,0,5.8,2.3,5.8,5.2v27.5c0,2.8-2.6,5.2-5.8,5.2H6c-3.2,0-5.8-2.3-5.8-5.2V5.2C0.2,2.3,2.8,0,6,0z"/>
<path class="st0" d="M60.3,6.9l-0.8,1.2h0.7l0.9-1.2H60.3z M60.2,8.8h-0.7v3.9h0.7V8.8z M43.9,7.4c-1.4,0-2.2,1-2.2,2.7
	c0,1.6,0.8,2.7,2.2,2.7c1,0.1,1.9-0.7,2.1-1.7h-0.7c-0.2,0.6-0.7,1-1.3,0.9c-0.9,0-1.4-0.8-1.4-2c0-1.2,0.6-2,1.4-2
	c0.6,0,1.2,0.4,1.3,1H46C45.8,8.1,44.9,7.3,43.9,7.4z M46.8,10.7c-0.1-0.7,0.2-1.4,0.8-1.7c0.6-0.3,1.3-0.3,1.8,0
	c0.6,0.3,0.9,1,0.8,1.7c0.1,0.7-0.2,1.4-0.8,1.7c-0.6,0.3-1.3,0.3-1.9,0C47.1,12,46.8,11.3,46.8,10.7z M49.6,10.7
	c0-0.9-0.3-1.3-1-1.3c-0.7,0-1,0.5-1,1.3c0,0.9,0.3,1.4,1,1.4C49.2,12,49.6,11.5,49.6,10.7z M51.3,8.8H52v0.6h0.1
	c0.2-0.4,0.7-0.7,1.1-0.7c0.3,0,0.7,0.1,1,0.4s0.3,0.7,0.3,1v2.5h-0.7v-2.3c0-0.6-0.2-0.9-0.8-0.9c-0.2,0-0.5,0.1-0.7,0.3
	c-0.2,0.2-0.2,0.4-0.2,0.7v2.2h-0.7V8.8z M58.4,9.8c-0.1-0.7-0.6-1.1-1.5-1.1c-0.8,0-1.4,0.5-1.4,1.2c0,0.6,0.3,0.9,1.1,1.1l0.7,0.2
	c0.4,0.1,0.6,0.3,0.6,0.4c0,0.3-0.3,0.5-0.7,0.5c-0.3,0.1-0.7-0.2-0.8-0.5h-0.7c0.1,0.7,0.7,1.1,1.5,1.1c0.9,0,1.6-0.5,1.6-1.2
	c0-0.6-0.3-0.9-1.1-1l-0.6-0.2c-0.4-0.1-0.6-0.3-0.6-0.5c0-0.3,0.3-0.5,0.7-0.5c0.4,0,0.7,0.2,0.7,0.4L58.4,9.8L58.4,9.8z M61.4,13
	h0.7c0.1,0.3,0.4,0.4,0.9,0.4c0.6,0,1-0.3,1-0.8v-0.8h-0.1c-0.2,0.4-0.7,0.7-1.2,0.7c-0.9,0-1.6-0.8-1.6-1.9c0-1.2,0.6-2,1.6-2
	c0.5,0,0.9,0.3,1.2,0.7H64V8.8h0.7v3.9c0,0.9-0.7,1.5-1.7,1.5C62,14.1,61.5,13.7,61.4,13z M64,10.7c0-0.8-0.4-1.3-1-1.3
	c-0.7,0-1,0.5-1,1.3c0,0.8,0.3,1.3,1,1.3C63.6,11.9,64,11.4,64,10.7z M69.1,12.6h-0.7V12h-0.1c-0.2,0.4-0.7,0.8-1.2,0.7
	c-0.3,0-0.7-0.1-1-0.4c-0.2-0.3-0.2-0.7-0.2-1V8.8h0.7v2.3c0,0.6,0.2,0.9,0.7,0.9c0.2,0,0.5-0.1,0.7-0.3c0.2-0.2,0.2-0.4,0.2-0.7
	V8.9H69L69.1,12.6L69.1,12.6z M73.4,11.6c-0.2,0.7-0.9,1.2-1.7,1.1c-0.5,0-1-0.2-1.3-0.6c-0.3-0.3-0.5-0.9-0.4-1.4
	c-0.1-0.5,0.1-1,0.4-1.4c0.3-0.4,0.8-0.6,1.3-0.6c1.1,0,1.7,0.8,1.7,2V11h-2.6c0,0.3,0.1,0.6,0.2,0.8c0.2,0.2,0.4,0.3,0.7,0.3
	c0.3,0.1,0.7-0.2,0.9-0.4L73.4,11.6L73.4,11.6z M70.8,10.3h1.9c0-0.3-0.1-0.5-0.2-0.7c-0.2-0.2-0.4-0.3-0.7-0.3s-0.5,0.1-0.7,0.3
	C70.9,9.8,70.7,10.1,70.8,10.3z M74.4,7.2h0.7v5.4h-0.7V7.2z M76.2,10.7C76.1,10,76.4,9.3,77,8.9c0.6-0.3,1.3-0.3,1.8,0
	c0.6,0.3,0.9,1,0.8,1.7c0.1,0.7-0.2,1.4-0.8,1.7c-0.6,0.3-1.3,0.3-1.9,0C76.4,12,76.1,11.3,76.2,10.7z M78.9,10.7
	c0-0.9-0.3-1.3-1-1.3c-0.7,0-1,0.5-1,1.3c0,0.9,0.3,1.4,1,1.4C78.6,12,78.9,11.5,78.9,10.7z M84.2,12.7c0.7,0.1,1.4-0.4,1.7-1.1
	h-0.7c-0.2,0.3-0.5,0.5-0.9,0.4c-0.2,0-0.6-0.1-0.7-0.3c-0.2-0.2-0.2-0.5-0.2-0.8h2.6v-0.3c0-1.2-0.7-2-1.7-2c-0.5,0-1,0.3-1.3,0.6
	c-0.3,0.4-0.5,0.9-0.4,1.4c-0.1,0.5,0.1,1,0.4,1.4C83.3,12.5,83.7,12.7,84.2,12.7z M85.1,10.3h-1.9c0-0.3,0.1-0.5,0.2-0.7
	c0.2-0.2,0.4-0.3,0.7-0.3c0.2,0,0.5,0.1,0.7,0.3C85,9.8,85.2,10.1,85.1,10.3z M87.6,8.8h-0.7v3.9h0.7v-2.3c0-0.3,0.1-0.5,0.2-0.7
	s0.4-0.3,0.7-0.3c0.6,0,0.8,0.3,0.8,0.9v2.3h0.7v-2.5c0.1-0.3-0.1-0.8-0.3-1c-0.2-0.3-0.6-0.4-1-0.4c-0.5,0-0.9,0.3-1.1,0.7h-0.1
	V8.8z M94.7,12.7c0.7,0.1,1.4-0.4,1.7-1.1h-0.7c-0.2,0.3-0.5,0.5-0.9,0.4c-0.2,0-0.6-0.1-0.7-0.3c-0.2-0.2-0.2-0.5-0.2-0.8h2.6v-0.3
	c0-1.2-0.7-2-1.7-2c-0.5,0-1,0.3-1.3,0.6c-0.3,0.4-0.5,0.9-0.4,1.4c-0.1,0.5,0.1,1,0.4,1.4C93.8,12.5,94.2,12.7,94.7,12.7z
	 M95.6,10.3h-1.9c0-0.3,0.1-0.5,0.2-0.7c0.2-0.2,0.4-0.3,0.7-0.3c0.2,0,0.5,0.1,0.7,0.3C95.5,9.8,95.6,10.1,95.6,10.3z M98.2,7.2
	h-0.7v5.4h0.7V7.2z"/>
<path class="st0" d="M23.1,7.2c0.1,1.4-0.3,2.7-1.1,3.8c-0.8,1.1-2.1,1.6-3.4,1.6c-0.1-1.4,0.3-2.6,1.2-3.6
	C20.6,7.9,21.8,7.2,23.1,7.2z M27.2,15.1c-1.5,1-2.4,2.6-2.4,4.5c0,2.1,1.2,4,3,4.8c-0.3,1.2-0.9,2.3-1.6,3.3
	c-1,1.4-1.9,2.9-3.5,2.9c-0.7,0-1.2-0.2-1.7-0.5c-0.5-0.3-1.1-0.5-2-0.5c-1,0-1.6,0.3-2.1,0.5c-0.5,0.2-1,0.5-1.6,0.5
	c-1.5,0.1-2.6-1.5-3.6-3c-1.9-2.9-3.4-8.2-1.4-11.8c1-1.8,2.7-2.9,4.6-3c0.9,0,1.6,0.4,2.3,0.6c0.5,0.2,1,0.5,1.4,0.5
	c0.3,0,0.8-0.2,1.4-0.5c0.9-0.4,1.9-0.8,3-0.6C24.7,12.8,26.2,13.7,27.2,15.1z"/>
<path class="st0" d="M81.1,28.3c-1.6,0-2.7-0.8-2.9-2h-1.8c0.1,2.2,1.9,3.7,4.6,3.7c2.8,0,4.7-1.5,4.7-3.8c0-1.8-1.1-2.8-3.5-3.4
	l-1.4-0.3c-1.6-0.4-2.2-0.9-2.2-1.8c0-1.1,1-1.9,2.4-1.9s2.4,0.7,2.5,2h1.8c-0.1-2.1-1.8-3.6-4.4-3.6c-2.6,0-4.4,1.5-4.4,3.6
	c0,1.7,1.1,2.8,3.2,3.3l1.6,0.4c1.6,0.4,2.2,1,2.2,1.9C83.6,27.6,82.5,28.3,81.1,28.3z M48.7,26.5h-4.6L43,29.7h-1.9l4.4-12.3h2
	l4.3,12.3h-1.9L48.7,26.5z M44.5,24.9h3.7l-1.7-5.3h-0.1L44.5,24.9z M62.1,25.3c0,2.8-1.5,4.5-3.7,4.5c-1.2,0.1-2.2-0.6-2.7-1.6v4.5
	h-1.8V20.8h1.7v1.5c0.6-1,1.6-1.6,2.8-1.6C60.6,20.7,62.1,22.5,62.1,25.3z M60.2,25.3c0-1.8-0.9-3-2.3-3c-1.4,0-2.3,1.2-2.3,3
	s1,3,2.3,3C59.4,28.3,60.2,27.1,60.2,25.3z M68.1,29.8c2.2,0,3.7-1.8,3.7-4.5s-1.5-4.5-3.7-4.5c-1.2,0-2.2,0.6-2.8,1.6v-1.5h-1.7
	v11.9h1.7v-4.5C65.9,29.3,66.9,29.9,68.1,29.8z M67.6,22.3c1.4,0,2.3,1.2,2.3,3s-0.9,3-2.3,3c-1.4,0-2.3-1.2-2.3-3
	S66.2,22.3,67.6,22.3z M90.4,18.7v2.1H92v1.5h-1.6v4.9c0,0.8,0.3,1.1,1.1,1.1c0.2,0,0.4,0,0.6,0v1.5c-0.3,0.1-0.7,0.1-1,0.1
	c-1.7,0-2.4-0.7-2.4-2.4v-5.2h-1.3v-1.5h1.3v-2.1H90.4z M93,25.3c0-2.8,1.6-4.5,4.2-4.5s4.2,1.8,4.2,4.5c0,2.9-1.6,4.5-4.2,4.5
	S93,28.2,93,25.3z M99.5,25.3c0-2-0.9-3.1-2.3-3.1s-2.3,1.2-2.3,3.1c0,2,0.9,3.1,2.3,3.1S99.5,27.3,99.5,25.3z M103.8,20.8h1.7v1.5
	c0.2-1,1.2-1.7,2.1-1.6c0.2,0,0.4,0,0.6,0.1v1.7c-0.3-0.1-0.6-0.1-0.8-0.1c-0.5,0-1.1,0.2-1.4,0.6c-0.4,0.4-0.6,0.9-0.5,1.5v5.3
	h-1.8V20.8z M117.6,27.2c-0.2,1.6-1.8,2.8-3.8,2.8c-2.5,0-4.2-1.8-4.2-4.5s1.6-4.6,4.1-4.6c2.4,0,4,1.7,4,4.5v0.6h-6.2v0.1
	c-0.1,0.7,0.2,1.3,0.6,1.8c0.5,0.5,1.1,0.8,1.7,0.7c0.9,0.1,1.7-0.4,2-1.3L117.6,27.2L117.6,27.2z M111.5,24.5h4.4
	c0-0.6-0.2-1.2-0.6-1.6c-0.4-0.4-1-0.7-1.6-0.7c-0.6,0-1.2,0.2-1.6,0.7C111.7,23.3,111.5,23.9,111.5,24.5z"/>
</svg>
