<?xml version="1.0" encoding="utf-8"?>
<!-- Generator: Adobe Illustrator 19.0.0, SVG Export Plug-In . SVG Version: 6.00 Build 0)  -->
<svg version="1.1" id="Capa_1" xmlns="http://www.w3.org/2000/svg" xmlns:xlink="http://www.w3.org/1999/xlink" x="0px" y="0px"
	 width="54.7px" height="54.4px" viewBox="-427.5 268.8 54.7 54.4" style="enable-background:new -427.5 268.8 54.7 54.4;"
	 xml:space="preserve">
<style type="text/css">
	.st0{fill:none;stroke:#FD5B5F;stroke-width:1.8;stroke-linecap:round;stroke-linejoin:round;stroke-miterlimit:10;}
</style>
<g id="XMLID_41_">
	<g id="XMLID_44_">
		<g id="XMLID_48_">
			<g id="XMLID_85_">
				<path id="XMLID_87_" class="st0" d="M-396.8,299.7l0.6,0c0.4,0,0.8,0.2,1,0.6l1.5,3.2"/>
				<path id="XMLID_86_" class="st0" d="M-396.5,299.7l-8.6-0.1c-0.4,0-0.8,0.2-1,0.6l-1.5,3.3"/>
			</g>
			<path id="XMLID_80_" class="st0" d="M-402.4,303.5l11.3,0.1c2,0,3.6-1.6,3.6-3.5l0-3.4c0-2-1.6-3.6-3.5-3.6l-11.7-0.1l-7.3-0.1
				c-2,0-3.6,1.6-3.6,3.5l0,3.4c0,2,1.6,3.6,3.5,3.6l8.1,0.1"/>
			<line id="XMLID_79_" class="st0" x1="-392.1" y1="288.6" x2="-390.4" y2="292.9"/>
			<path id="XMLID_73_" class="st0" d="M-410.8,292.7l2.2-6.7c0.3-0.7,1-1.2,1.8-1.2l10.3,0.1"/>
			<path id="XMLID_70_" class="st0" d="M-409.3,303.5"/>
			<line id="XMLID_69_" class="st0" x1="-409.5" y1="296.9" x2="-407.9" y2="296.9"/>
			<line id="XMLID_68_" class="st0" x1="-392.7" y1="297" x2="-391.3" y2="297"/>
			<line id="XMLID_66_" class="st0" x1="-390.1" y1="293.2" x2="-387.6" y2="291.7"/>
			<line id="XMLID_65_" class="st0" x1="-411.1" y1="293" x2="-413.6" y2="291.6"/>
			<path id="XMLID_64_" class="st0" d="M-407.7,303.7l0,1c0,1.2-1,2.2-2.2,2.2l0,0c-1.2,0-2.2-1-2.2-2.2l0-1.7"/>
			<path id="XMLID_54_" class="st0" d="M-389.2,303.2l0,1.7c0,1.2-1,2.2-2.2,2.2l0,0c-1.2,0-2.2-1-2.2-2.2l0-1"/>
		</g>
		<path id="XMLID_46_" class="st0" d="M-391.3,290.5"/>
	</g>
	
		<ellipse id="XMLID_42_" transform="matrix(-1 -7.569043e-03 7.569043e-03 -1 -802.5721 588.8856)" class="st0" cx="-400.2" cy="296" rx="25.2" ry="25"/>
</g>
</svg>
