<?xml version="1.0" encoding="utf-8"?>
<!-- Generator: Adobe Illustrator 26.5.0, SVG Export Plug-In . SVG Version: 6.00 Build 0)  -->
<svg version="1.1" id="Layer_1" xmlns="http://www.w3.org/2000/svg" xmlns:xlink="http://www.w3.org/1999/xlink" x="0px" y="0px"
	 width="30px" height="28.7px" viewBox="0 0 30 28.7" style="enable-background:new 0 0 30 28.7;" xml:space="preserve">
<path d="M26.7,26.3c-0.6,0.1-1.1-0.2-1.2-0.8c-0.7-3.1-5.5-3-6.3,0c-0.1,0.6-0.7,0.9-1.3,0.8c-0.6-0.1-0.9-0.7-0.8-1.3
	c1.3-5.2,9.1-5.1,10.4,0C27.6,25.6,27.3,26.2,26.7,26.3C26.7,26.3,26.7,26.3,26.7,26.3z M11.7,21.4c0.4,1.1-0.1,2.3-1.2,2.7
	c-1,0.4-2.2-0.1-2.7-1.1l-0.1-0.2c-1.8,0.1-3.5-0.9-4.2-2.6L3,18.8c-0.4-1.1-0.6-2.3-0.5-3.5c0,0,0.1-5.5,0.1-5.5
	c0.3-1.9,1.5-3.4,3.2-4.1l7.4-2.9c1.7-0.7,3.7-0.4,5.2,0.7l4,3.6c1,0.8,1.7,1.9,2.2,3.1l0.6,1.4c0.6,1.6,0.2,3.4-1,4.6l0.1,0.2
	c0.4,1.1-0.1,2.3-1.2,2.7c-1,0.4-2.2-0.1-2.7-1.1L11.7,21.4z M4.7,10l-0.1,5.3L21,8.7l0,0l-4-3.6c-0.9-0.7-2-0.8-3-0.4L6.6,7.6
	C5.6,8,4.9,8.9,4.7,10z M8.2,20.6L22,15.1c1.1-0.4,1.6-1.6,1.1-2.7L22.6,11c-0.1-0.2-0.2-0.4-0.3-0.6l-1.9,0.8l0.4,1
	c0.2,0.5,0,1.1-0.6,1.4c-0.5,0.2-1.1,0-1.4-0.6l-0.4-1l-9.9,4l0.4,1c0.2,0.5-0.1,1.1-0.6,1.3c-0.5,0.2-1.1-0.1-1.3-0.6l-0.4-0.9
	l-1.9,0.8c0,0.2,0.1,0.4,0.2,0.6l0.6,1.4C6,20.5,7.2,21,8.2,20.6z"/>
</svg>
