<?xml version="1.0" encoding="utf-8"?>
<!-- Generator: Adobe Illustrator 26.5.0, SVG Export Plug-In . SVG Version: 6.00 Build 0)  -->
<svg version="1.1" id="Capa_1" xmlns="http://www.w3.org/2000/svg" xmlns:xlink="http://www.w3.org/1999/xlink" x="0px" y="0px"
	 width="64px" height="64px" viewBox="0 0 64 64" style="enable-background:new 0 0 64 64;" xml:space="preserve">
<style type="text/css">
	.st0{fill:#F4AAA0;}
	.st1{fill:#39363C;}
	.st2{fill:#FCF3E2;}
	.st3{fill:#FD5B5F;}
	.st4{fill:#FFDA84;}
	.st5{fill:#FC5C63;}
	.st6{enable-background:new    ;}
	.st7{fill:#FFFFFF;}
	.st8{fill:#C0EEDD;}
</style>
<g>
</g>
<g>
	<g id="XMLID_371_">
		<g id="XMLID_369_">
			<path id="XMLID_370_" class="st0" d="M22.8,50c-1,0.3-1.9,0.2-2.8-0.5l-5.5-4c-1.3-1-1.6-2.9-0.6-4.4c1-1.3,2.9-1.6,4.4-0.6
				l5.5,4c1.3,1,1.6,2.9,0.6,4.4C23.9,49.5,23.4,49.8,22.8,50z"/>
		</g>
		<g id="XMLID_367_">
			<path id="XMLID_368_" class="st0" d="M21.8,41.7c-1,0.3-1.9,0.2-2.8-0.5l-5.5-4c-1.3-1-1.6-2.9-0.6-4.4c1-1.3,2.9-1.6,4.4-0.6
				l5.5,4c1.3,1,1.6,2.9,0.6,4.4C23,41.1,22.3,41.5,21.8,41.7z"/>
		</g>
		<g id="XMLID_365_">
			<path id="XMLID_366_" class="st0" d="M22,34.7c-1,0.3-1.9,0.2-2.8-0.5l-5.5-4c-1.3-1-1.6-2.9-0.6-4.4c1-1.3,2.9-1.6,4.4-0.6
				l5.3,4c1.3,1,1.6,2.9,0.6,4.4C23.1,34.3,22.6,34.6,22,34.7z"/>
		</g>
		<g id="XMLID_363_">
			<path id="XMLID_364_" class="st0" d="M22.5,26.2c-1,0.3-1.9,0.2-2.8-0.5l-5.5-4c-1.3-1-1.6-2.9-0.6-4.4c1-1.3,2.9-1.6,4.4-0.6
				l5.5,4c1.3,1,1.6,2.9,0.6,4.4C23.6,25.7,23,26,22.5,26.2z"/>
		</g>
	</g>
	<circle id="XMLID_362_" class="st0" cx="39.1" cy="44.3" r="18.1"/>
	<path id="XMLID_305_" class="st1" d="M46.7,15.4h-0.3V6.7c0-2.8-2.3-5-5-5H22.9c-2.8,0-5,2.3-5,5l0,0v47.7c0,2.8,2.3,5,5,5h18.4
		c2.8,0,5-2.3,5-5l0,0V21.6h0.3v-6.2H46.7z"/>
	<path id="XMLID_304_" class="st2" d="M41.5,3h-2.4c0.4,0.9-0.1,2-1,2.3c-0.2,0.1-0.4,0.1-0.7,0.1H26.9c-1,0-1.8-0.8-1.8-1.8
		c0-0.2,0-0.5,0.1-0.7H23c-2.1,0-3.8,1.7-3.8,3.7v47.6c0,2.1,1.7,3.8,3.8,3.8h18.5c2.1,0,3.8-1.7,3.8-3.8l0,0l0,0V6.6
		C45.3,4.7,43.6,3,41.5,3z"/>
	<circle id="XMLID_372_" class="st1" cx="32.5" cy="53.2" r="2.3"/>
	<circle id="XMLID_389_" class="st3" cx="9.7" cy="52.1" r="1.1"/>
	<circle id="XMLID_388_" class="st3" cx="53.3" cy="18" r="1.1"/>
	<circle id="XMLID_387_" class="st4" cx="7.9" cy="7.6" r="1.1"/>
	<g id="XMLID_360_">
		<path id="XMLID_361_" class="st0" d="M51.1,39c-1-0.1-1.7-0.7-2.3-1.5l-5.8-10l-8-1.1c-1.8-0.2-2.8-1.9-2.6-3.5s1.9-2.8,3.5-2.6
			l9.5,1.3c1,0.1,1.9,0.7,2.3,1.5l6.5,11.2c0.8,1.4,0.4,3.3-1.1,4.3C52.6,39,51.8,39.1,51.1,39z"/>
	</g>
	<g id="XMLID_86_">
		<g id="XMLID_430_">
			<circle id="XMLID_434_" class="st5" cx="18.5" cy="17.6" r="10.2"/>
		</g>
		<g class="st6">
			<path class="st7" d="M21.2,12.3c0.5,0.3,0.9,0.7,1.1,1.1c0.3,0.4,0.4,0.8,0.4,1.1c0,0.1,0,0.2-0.1,0.3c-0.1,0.1-0.2,0.1-0.3,0.1
				h-1.1c-0.2,0-0.3,0-0.4-0.1c-0.1-0.1-0.2-0.2-0.3-0.3c-0.2-0.3-0.4-0.5-0.8-0.7c-0.3-0.2-0.8-0.3-1.4-0.3c-0.6,0-1.1,0.1-1.5,0.4
				s-0.6,0.6-0.6,0.9c0,0.3,0.1,0.6,0.3,0.7s0.5,0.3,0.9,0.4c0.4,0.1,1.1,0.3,2,0.5c1.3,0.3,2.2,0.7,2.7,1.2
				c0.5,0.5,0.8,1.2,0.8,2.1c0,0.8-0.3,1.6-1,2.2c-0.6,0.6-1.5,1-2.6,1.1v1.1c0,0.1,0,0.2-0.1,0.3c-0.1,0.1-0.2,0.1-0.3,0.1h-1.3
				c-0.1,0-0.2,0-0.3-0.1c-0.1-0.1-0.1-0.2-0.1-0.3V23c-1-0.2-1.8-0.5-2.5-1.1c-0.7-0.5-1-1.2-1.1-2c0-0.1,0-0.2,0.1-0.3
				c0.1-0.1,0.2-0.1,0.3-0.1h1.1c0.2,0,0.3,0,0.4,0.1c0.1,0.1,0.2,0.2,0.3,0.3c0.2,0.4,0.5,0.6,0.8,0.8c0.4,0.2,0.9,0.3,1.6,0.3
				c0.7,0,1.3-0.1,1.8-0.3c0.5-0.2,0.7-0.6,0.7-1c0-0.3-0.1-0.5-0.3-0.6c-0.2-0.2-0.4-0.3-0.8-0.4c-0.3-0.1-0.8-0.2-1.5-0.4
				c-0.3-0.1-0.6-0.1-1.1-0.2c-1.1-0.3-2-0.7-2.5-1.1c-0.5-0.5-0.8-1.2-0.8-2.1c0-0.8,0.3-1.5,0.9-2.1c0.6-0.6,1.4-1,2.4-1.1v-1.1
				c0-0.1,0-0.2,0.1-0.3c0.1-0.1,0.2-0.1,0.3-0.1H19c0.1,0,0.2,0,0.3,0.1c0.1,0.1,0.1,0.2,0.1,0.3v1.1C20.1,11.8,20.7,12,21.2,12.3z
				"/>
		</g>
	</g>
	<circle id="XMLID_114_" class="st8" cx="41.5" cy="44.9" r="2.1"/>
	<path id="XMLID_113_" class="st7" d="M29.4,46.2c-4.7,0-8.5-3.8-8.5-8.6c0-4.7,3.8-8.5,8.6-8.5c4.7,0,8.5,3.8,8.5,8.6
		c0,2.1-0.8,4.2-2.2,5.8l1.8,2l-0.9,0.4c-1.4,0.6-2.7,0-3.5-0.4C32,46,30.7,46.2,29.4,46.2z"/>
	<g id="XMLID_277_">
		<path id="XMLID_265_" class="st8" d="M29.6,34.6h-3.9c-0.5,0-1,0.4-1,1l0,0c0,0.5,0.4,1,1,1h3.9c0.5,0,1-0.4,1-1l0,0
			C30.5,35,30.1,34.6,29.6,34.6z"/>
		<path id="XMLID_264_" class="st8" d="M33.4,38.5h-7.7c-0.5,0-1,0.4-1,1l0,0c0,0.5,0.4,1,1,1h7.7c0.5,0,1-0.4,1-1l0,0
			C34.4,38.9,33.9,38.5,33.4,38.5z"/>
	</g>
</g>
</svg>
