<?xml version="1.0" encoding="utf-8"?>
<!-- Generator: Adobe Illustrator 26.5.0, SVG Export Plug-In . SVG Version: 6.00 Build 0)  -->
<svg version="1.1" id="Capa_1" xmlns="http://www.w3.org/2000/svg" xmlns:xlink="http://www.w3.org/1999/xlink" x="0px" y="0px"
	 width="64px" height="64px" viewBox="0 0 64 64" style="enable-background:new 0 0 64 64;" xml:space="preserve">
<style type="text/css">
	.st0{fill:#C0EEDD;}
	.st1{fill:#FFDA84;}
	.st2{fill:#F55C63;}
	.st3{fill:#FFFFFF;}
	.st4{fill:#FCF3E2;}
	.st5{fill:none;stroke:#FCF3E2;stroke-width:0.75;stroke-linecap:round;stroke-linejoin:round;stroke-miterlimit:10;}
</style>
<g>
</g>
<g>
	<path id="XMLID_183_" class="st0" d="M29.9,8.7C17.5,9,7.4,19.2,7,31.6C6.8,37.8,8.9,43.7,12.7,48l-4.3,7.7
		c-0.5,0.9,0.4,2.1,1.5,1.7l11.6-3c3,1.3,6.2,1.9,9.8,1.9c12.6-0.2,22.9-10.5,23.3-22.9C54.9,19.4,43.7,8.1,29.9,8.7z"/>
	<g id="XMLID_170_">
		<g id="XMLID_172_">
			<g id="XMLID_176_">
				
					<ellipse id="XMLID_180_" transform="matrix(0.1602 -0.9871 0.9871 0.1602 22.7131 57.9062)" class="st1" cx="45.4" cy="15.6" rx="12.6" ry="12.6"/>
			</g>
			<g id="XMLID_173_">
				<g id="XMLID_175_">
					<path id="XMLID_179_" d="M37.9,14.5L37.9,14.5c-0.4,0-0.7-0.4-0.5-0.7c0,0,0.2-1.7,2.1-2.1c1.6-0.4,2.6,0.5,2.7,1.2
						c0.2,0.4,0,0.7-0.2,1c-0.4,0.2-0.7,0-1-0.2c0-0.2-0.4-0.5-1.4-0.4s-1,1-1,1C38.4,14.1,38.3,14.5,37.9,14.5z"/>
				</g>
				<g id="XMLID_174_">
					<path id="XMLID_178_" d="M46.9,12.3L46.9,12.3c-0.4,0-0.7-0.4-0.5-0.7c0,0,0.2-1.7,2.1-2.1c1.6-0.4,2.6,0.5,2.7,1.2
						c0.2,0.4,0,0.7-0.2,1c-0.4,0.2-0.7,0-1-0.2c0-0.2-0.4-0.5-1.4-0.4c-1,0.2-1,1-1,1C47.6,12.1,47.1,12.3,46.9,12.3z"/>
				</g>
			</g>
		</g>
		<g id="XMLID_171_">
			<path id="XMLID_177_" d="M44.5,19.7c-1.4,0-2.3-0.4-2.3-0.4c-0.4-0.2-0.5-0.5-0.4-0.7c0.2-0.4,0.5-0.5,0.7-0.4
				c0.2,0,3.5,1.2,6-1.4c0.2-0.2,0.5-0.2,1,0c0.2,0.2,0.2,0.5,0,1C47.8,19.4,45.8,19.7,44.5,19.7z"/>
		</g>
	</g>
	<g id="XMLID_166_">
		<g id="XMLID_168_">
			<circle id="XMLID_169_" class="st2" cx="35.3" cy="52.2" r="8"/>
		</g>
		<path id="XMLID_167_" class="st3" d="M38,50.1c-0.7-0.7-1.7-0.7-2.3,0l-0.4,0.4L35,50.1c-0.7-0.7-1.6-0.7-2.3,0s-0.7,1.7,0,2.3
			l1.6,1.6l0,0c0.2,0.2,0.5,0.4,0.9,0.5c0.5,0,1.1,0,1.5-0.5l1.6-1.6C38.7,51.8,38.7,50.7,38,50.1z"/>
	</g>
	<g id="XMLID_238_">
		<path id="XMLID_223_" class="st4" d="M28.8,30.2h-10c-0.9,0-1.7-0.7-1.7-1.7v-0.2c0-0.9,0.7-1.7,1.7-1.7h10c0.9,0,1.7,0.7,1.7,1.7
			v0.3C30.4,29.5,29.7,30.2,28.8,30.2z"/>
		<path id="XMLID_224_" class="st4" d="M44.2,37.1H18.8c-0.9,0-1.7-0.7-1.7-1.7v-0.3c0-0.9,0.7-1.7,1.7-1.7h25.4
			c0.9,0,1.7,0.7,1.7,1.7v0.3C45.9,36.4,45.1,37.1,44.2,37.1z"/>
	</g>
	<path id="XMLID_263_" class="st5" d="M9.9,12h9.6c0.5,0,0.9,0.4,0.9,0.9v4.8c0,0.5-0.4,0.9-0.9,0.9h-4.9l-2.9,2.6v-2.4l-1.7-0.1
		c-0.5,0-0.9-0.5-0.9-0.9V13C9,12.4,9.4,12,9.9,12z"/>
</g>
</svg>
