<?xml version="1.0" encoding="utf-8"?>
<!-- Generator: Adobe Illustrator 26.5.0, SVG Export Plug-In . SVG Version: 6.00 Build 0)  -->
<svg version="1.1" id="Capa_1" xmlns="http://www.w3.org/2000/svg" xmlns:xlink="http://www.w3.org/1999/xlink" x="0px" y="0px"
	 width="64px" height="64px" viewBox="0 0 64 64" style="enable-background:new 0 0 64 64;" xml:space="preserve">
<style type="text/css">
	.st0{fill:#FCF3E2;}
	.st1{fill:#FFDA84;}
	.st2{fill:#342F45;}
	.st3{fill:#48C9EA;}
	.st4{fill:#FD5B5F;}
	.st5{fill:#C0EEDD;}
	.st6{enable-background:new    ;}
	.st7{fill:#FFFFFF;}
</style>
<g>
</g>
<g>
	<g>
		<g id="XMLID_329_">
			<path id="XMLID_212_" class="st0" d="M61.7,37.5L17.9,50c-1.6,0.5-3.5-0.5-4-2.1L6.8,22.8c-0.5-1.6,0.5-3.5,2.1-4L52.7,6.3
				c1.6-0.5,3.5,0.5,4,2.1l7.1,25.1C64.3,35.1,63.3,37,61.7,37.5z"/>
		</g>
		<path id="XMLID_211_" class="st1" d="M55.5,58.7H8.9c-1.9,0-3.2-1.5-3.2-3.2V28.8c0-1.9,1.5-3.2,3.2-3.2h46.5
			c1.9,0,3.2,1.5,3.2,3.2v26.7C58.8,57.2,57.3,58.7,55.5,58.7z"/>
		<rect id="XMLID_210_" x="5.8" y="31.1" class="st2" width="52.9" height="7.1"/>
		<circle id="XMLID_209_" class="st3" cx="48.7" cy="50.1" r="3.7"/>
		<circle id="XMLID_208_" class="st4" cx="51.9" cy="50.1" r="3.7"/>
		<g id="XMLID_310_">
			<path id="XMLID_312_" class="st0" d="M22.1,46.8h-9.7c-1,0-1.8-0.8-1.8-1.8l0,0c0-1,0.8-1.8,1.8-1.8h9.7c1,0,1.8,0.8,1.8,1.8l0,0
				C23.9,46,23.1,46.8,22.1,46.8z"/>
			<path id="XMLID_311_" class="st0" d="M37.6,53.6H12.4c-1,0-1.8-0.8-1.8-1.8l0,0c0-1,0.8-1.8,1.8-1.8h25.2c1,0,1.8,0.8,1.8,1.8
				l0,0C39.4,52.8,38.6,53.6,37.6,53.6z"/>
		</g>
	</g>
	<g id="XMLID_634_">
		<g id="XMLID_640_">
			<path id="XMLID_641_" class="st5" d="M16.1,5.6c-8.3,0-15,6.7-15,15s6.7,15,15,15s15-6.7,15-15S24.4,5.6,16.1,5.6z"/>
		</g>
	</g>
	<g class="st6">
		<path class="st7" d="M19.9,13.2c0.7,0.4,1.2,0.9,1.5,1.4c0.3,0.5,0.5,1.1,0.6,1.6c0,0.2,0,0.3-0.2,0.4c-0.1,0.1-0.3,0.2-0.4,0.2
			h-1.6c-0.2,0-0.4,0-0.6-0.1c-0.1-0.1-0.3-0.2-0.4-0.4c-0.3-0.4-0.6-0.7-1.1-1c-0.5-0.2-1.1-0.4-1.9-0.4c-0.8,0-1.5,0.2-2,0.5
			c-0.5,0.3-0.8,0.8-0.8,1.3c0,0.4,0.1,0.8,0.4,1s0.7,0.5,1.3,0.6c0.6,0.2,1.5,0.4,2.8,0.6c1.8,0.4,3,0.9,3.8,1.6
			c0.7,0.7,1.1,1.6,1.1,2.9c0,1.2-0.4,2.1-1.3,3c-0.9,0.8-2.1,1.3-3.6,1.5v1.5c0,0.2-0.1,0.3-0.2,0.4C17.2,30,17.1,30,16.9,30h-1.8
			c-0.2,0-0.3-0.1-0.4-0.2c-0.1-0.1-0.2-0.3-0.2-0.4v-1.5c-1.4-0.2-2.5-0.7-3.4-1.4c-0.9-0.7-1.4-1.6-1.5-2.7c0-0.2,0-0.3,0.2-0.4
			c0.1-0.1,0.3-0.2,0.4-0.2h1.6c0.2,0,0.4,0,0.6,0.1c0.1,0.1,0.3,0.2,0.3,0.4c0.3,0.5,0.6,0.9,1.1,1.2c0.5,0.3,1.2,0.4,2.2,0.4
			c1,0,1.8-0.2,2.4-0.5c0.7-0.3,1-0.8,1-1.4c0-0.4-0.1-0.6-0.4-0.8c-0.3-0.2-0.6-0.4-1.1-0.5c-0.5-0.1-1.2-0.3-2.1-0.5
			c-0.4-0.1-0.9-0.2-1.4-0.3c-1.6-0.4-2.7-0.9-3.4-1.6c-0.7-0.7-1-1.6-1-2.9c0-1.1,0.4-2.1,1.2-2.9s1.9-1.3,3.2-1.5v-1.5
			c0-0.2,0.1-0.3,0.2-0.4s0.3-0.2,0.4-0.2h1.8c0.2,0,0.3,0.1,0.4,0.2s0.2,0.3,0.2,0.4v1.5C18.4,12.5,19.2,12.8,19.9,13.2z"/>
	</g>
</g>
</svg>
