<?xml version="1.0" encoding="utf-8"?>
<!-- Generator: Adobe Illustrator 26.5.0, SVG Export Plug-In . SVG Version: 6.00 Build 0)  -->
<svg version="1.1" id="Layer_1" xmlns="http://www.w3.org/2000/svg" xmlns:xlink="http://www.w3.org/1999/xlink" x="0px" y="0px"
	 width="30px" height="28.7px" viewBox="0 0 30 28.7" style="enable-background:new 0 0 30 28.7;" xml:space="preserve">
<g>
	<path d="M22.1,4.2H7.9c-2,0-3.6,1.6-3.6,3.6v10.7c0,2,1.6,3.6,3.6,3.6h2.6l4,3.4c0.3,0.3,0.8,0.3,1.2,0l4-3.4h2.6
		c2,0,3.6-1.6,3.6-3.6V7.7C25.7,5.8,24.1,4.2,22.1,4.2z M23.9,18.5c0,1-0.8,1.8-1.8,1.8h-2.6c-0.4,0-0.8,0.1-1.2,0.4L15,23.5
		l-3.4-2.9l0,0c-0.3-0.3-0.7-0.4-1.2-0.4H7.9c-1,0-1.8-0.8-1.8-1.8V7.7c0-1,0.8-1.8,1.8-1.8h14.3c1,0,1.8,0.8,1.8,1.8V18.5z"/>
	<path d="M19.5,10.4h-8.9c-0.5,0-0.9,0.4-0.9,0.9c0,0.5,0.4,0.9,0.9,0.9h8.9c0.5,0,0.9-0.4,0.9-0.9C20.4,10.8,20,10.4,19.5,10.4z"/>
	<path d="M19.5,14h-8.9c-0.5,0-0.9,0.4-0.9,0.9s0.4,0.9,0.9,0.9h8.9c0.5,0,0.9-0.4,0.9-0.9S20,14,19.5,14z"/>
</g>
</svg>
