<?xml version="1.0" encoding="utf-8"?>
<!-- Generator: Adobe Illustrator 21.0.2, SVG Export Plug-In . SVG Version: 6.00 Build 0)  -->
<svg version="1.1" id="Layer_1" xmlns="http://www.w3.org/2000/svg" xmlns:xlink="http://www.w3.org/1999/xlink" x="0px" y="0px"
	 viewBox="0 0 196.8 52.5" style="enable-background:new 0 0 196.8 52.5;" xml:space="preserve">
<style type="text/css">
	.st0{fill:#7930BB;}
	.st1{opacity:0.15;}
	.st2{clip-path:url(#SVGID_2_);fill:url(#SVGID_3_);}
	.st3{fill:#6139C8;}
	.st4{fill:url(#SVGID_5_);}
	.st5{fill:url(#SVGID_6_);}
	.st6{clip-path:url(#SVGID_9_);fill:url(#SVGID_10_);}
	.st7{opacity:0.25;}
	.st8{clip-path:url(#SVGID_12_);fill:url(#SVGID_13_);}
	.st9{opacity:0.26;}
	.st10{clip-path:url(#SVGID_15_);fill:url(#SVGID_16_);}
	.st11{clip-path:url(#SVGID_18_);fill:url(#SVGID_19_);}
	.st12{clip-path:url(#SVGID_21_);fill:url(#SVGID_22_);}
	.st13{clip-path:url(#SVGID_24_);fill:#41407F;}
	.st14{fill:#FFFFFF;}
	.st15{clip-path:url(#SVGID_26_);fill:url(#SVGID_27_);}
	.st16{fill:#41407F;}
	.st17{clip-path:url(#SVGID_29_);fill:url(#SVGID_30_);}
	.st18{clip-path:url(#SVGID_32_);fill:url(#SVGID_33_);}
	.st19{clip-path:url(#SVGID_35_);fill:url(#SVGID_36_);}
	.st20{opacity:0.37;}
</style>
<path class="st0" d="M64.7,14.6c-0.3-0.4-0.9-0.5-1.4-0.4l-3,0.9c-0.4,0.1-0.7,0.4-0.8,0.8l-0.7,1.8l-0.6-0.9
	c-0.3-0.5-0.9-0.7-1.5-0.6l0,0c0-0.3-0.1-0.6-0.3-0.9L56,14.9c-0.3,0.2-0.6,0.4-0.9,0.6c-0.3,0.2-0.6,0.4-1,0.7
	c-0.1,0.1-0.2,0.1-0.3,0.2s-0.3,0.3-0.3,0.4l-0.1,0.1c0,0.1-0.1,0.1-0.1,0.2s-0.1,0.2-0.1,0.3c-0.3,1-0.4,2.1-0.6,3.2
	c-0.5,2.6-1.5,5.2-2.5,7.7c-0.1,0.3-0.3,0.7-0.4,1l1.6-0.5l0.2,0.5c0.3,0.6,0.9,0.9,1.6,0.7l2.6-0.8c0.4-0.1,0.7-0.4,0.8-0.7
	c0.2-0.3,0.1-0.7,0-1.1l0.1-0.2c0,0.4,0.2,0.8,0.5,1c0.2,0.2,0.5,0.2,0.8,0.2c0.1,0,0.3,0,0.4-0.1l2.5-0.8c0.6-0.2,0.9-0.7,0.9-1.3
	L61.6,23l3.1-7.1C65.1,15.5,65,15,64.7,14.6z"/>
<g>
	<g>
		<g class="st1">
			<g>
				<g>
					<g>
						<g>
							<g>
								<g>
									<g>
										<defs>
											<path id="SVGID_1_" d="M1.6,19.4L58.4,2.2c1.8-0.5,3.4,1.2,2.8,2.9L44.9,50.9c-0.5,1.4-2.2,2-3.5,1.1L0.9,23.5
												C-0.6,22.4-0.2,20,1.6,19.4"/>
										</defs>
										<clipPath id="SVGID_2_">
											<use xlink:href="#SVGID_1_"  style="overflow:visible;"/>
										</clipPath>
										
											<linearGradient id="SVGID_3_" gradientUnits="userSpaceOnUse" x1="-1287.8544" y1="123.2392" x2="-1287.7598" y2="123.2392" gradientTransform="matrix(0 -531.6137 531.6137 0 -65485.0195 -684588.6875)">
											<stop  offset="0" style="stop-color:#000000"/>
											<stop  offset="1" style="stop-color:#FFFFFF"/>
										</linearGradient>
										<rect x="-0.6" y="1.6" class="st2" width="62.4" height="51.2"/>
									</g>
								</g>
							</g>
						</g>
					</g>
				</g>
			</g>
		</g>
	</g>
	<g>
		<path class="st3" d="M54.7,35.6c0.2-0.3,0.4-0.5,0.5-0.8c0.3-0.7,0.3-1.5,0.1-2.2c-0.1-0.4-0.3-0.7-0.5-1s-0.6-0.6-0.9-0.8
			c-0.4-0.2-0.9-0.4-1.5-0.4l0,0c-0.5,0-1,0.1-1.6,0.3l-1.5,0.5c-0.4,1.2-0.8,2.4-1,3.7c-0.3,2-0.6,3.9-1.3,5.8
			c0.3,0.1,0.6,0.1,0.8,0l1.7-0.5c0,0,0,0,0.1,0c0,0,0,0,0.1,0l1.6-0.5c0.4-0.1,0.7-0.4,0.8-0.8c0.3,0.2,0.7,0.3,1.1,0.2l1.8-0.5
			c0.4-0.1,0.8-0.5,0.9-0.9c0.1-0.4,0-0.9-0.3-1.2L54.7,35.6z"/>
	</g>
	<g>
		<g>
			
				<linearGradient id="SVGID_5_" gradientUnits="userSpaceOnUse" x1="2.8" y1="-1458.0776" x2="36.2966" y2="-1458.0776" gradientTransform="matrix(1 0 0 -1 0 -1418.5276)">
				<stop  offset="0" style="stop-color:#4D43B5"/>
				<stop  offset="1" style="stop-color:#297AB6"/>
			</linearGradient>
			<path id="SVGID_4_" class="st4" d="M9.5,41.6c0.3-0.1,0.5-0.3,0.7-0.5v0.4c0,0.4,0.2,0.8,0.5,1s0.7,0.3,1.1,0.2l2.5-0.8
				c0.6-0.2,0.9-0.7,0.9-1.3l-0.1-2c0.4,0.5,0.9,0.8,1.5,1.1c0.6,0.3,1.4,0.5,2.1,0.6c0.1,0,0.3,0,0.4,0c0.6,0,1.3-0.1,1.9-0.3
				c0.1,0,0.3-0.1,0.4-0.1c-0.5,0.4-0.9,0.9-1.1,1.5c-0.3,0.6-0.5,1.2-0.5,1.8c0,0.5,0,0.9,0.1,1.4L18.7,45
				c-0.6,0.2-0.9,0.7-0.9,1.3l0.1,1.8c0,0.4,0.2,0.8,0.5,1c0.2,0.2,0.5,0.2,0.8,0.2c0.1,0,0.3,0,0.4-0.1l1.8-0.5
				c0.5-0.2,0.9-0.7,0.9-1.2c0.4,0.2,0.9,0.3,1.4,0.3c0.1,0,0.1,0,0.2,0c0.5,0,0.9-0.1,1.4-0.2c0.8-0.2,1.4-0.6,1.9-1.1
				c0.3-0.3,0.5-0.6,0.7-0.9c0.5,0.2,1,0.4,1.5,0.4c0.1,0,0.2,0,0.3,0c0.4,0,0.9-0.1,1.4-0.2c0.7-0.2,1.3-0.5,1.8-1
				c0.1-0.1,0.2-0.2,0.3-0.2c0.2,0.1,0.5,0.2,0.7,0.2c0.1,0,0.3,0,0.4-0.1l1.6-0.5c0.2-0.1,0.3-0.1,0.5-0.3c-0.9-0.5-1.8-1-2.7-1.6
				c-1.9-1.3-4.2-2-6.1-3.4c-1.5-1.1-2.5-2.3-3.6-3.8l0,0c-0.2-0.2-0.4-0.4-0.6-0.6c-0.3-0.3-0.6-0.5-0.9-0.8
				c-0.2-0.1-0.5-0.3-0.6-0.4c-0.2-0.2-0.5-0.3-0.7-0.5c-0.5-0.3-1-0.6-1.5-0.9c-0.5-0.3-1-0.5-1.5-0.8c-0.2-0.1-0.4-0.2-0.6-0.3
				c-1.1-0.4-2.4-0.5-3.6-0.7c-0.5-0.1-1-0.2-1.6-0.3l-1.9,0.6c-0.4,0.1-0.7,0.4-0.8,0.7l-1.1,2.4l-1-1.3c-0.3-0.4-0.9-0.6-1.4-0.5
				l-2.5,0.8c-0.6,0.2-0.9,0.7-0.9,1.3l0.3,9.9c0,0.4,0.1,0.9,0.4,1.1C3.7,45,3.9,45,4.1,45c0.1,0,0.5-0.1,0.6-0.1l2.5-0.8
				c0.6-0.2,0.9-0.7,0.9-1.3L8,41.2"/>
		</g>
	</g>
	<g>
		<g>
			
				<linearGradient id="SVGID_6_" gradientUnits="userSpaceOnUse" x1="0.1977" y1="-1443.7227" x2="61.6188" y2="-1443.7227" gradientTransform="matrix(1 0 0 -1 0 -1418.5276)">
				<stop  offset="0" style="stop-color:#000000"/>
				<stop  offset="1" style="stop-color:#FFFFFF"/>
			</linearGradient>
			<path id="SVGID_7_" class="st5" d="M59.3,0.1c-0.2,0-0.4,0-0.7,0.1L1.8,17.5c-1.8,0.6-2.2,2.9-0.6,4L41.7,50
				c1.2,0.9,2.9,0.3,3.5-1.1L61.5,3.2c0.5-1.6-0.6-4-2.9-3L59.3,0.1z"/>
		</g>
		<g>
			<g>
				<g>
					<g>
						<g>
							<defs>
								<path id="SVGID_8_" d="M59.3,0.1c-0.2,0-0.4,0-0.7,0.1L1.8,17.5c-1.8,0.6-2.2,2.9-0.6,4L41.7,50c1.2,0.9,2.9,0.3,3.5-1.1
									L61.5,3.2c0.5-1.6-0.6-4-2.9-3L59.3,0.1z"/>
							</defs>
							<clipPath id="SVGID_9_">
								<use xlink:href="#SVGID_8_"  style="overflow:visible;"/>
							</clipPath>
							
								<linearGradient id="SVGID_10_" gradientUnits="userSpaceOnUse" x1="-1282.8784" y1="124.2325" x2="-1282.7836" y2="124.2325" gradientTransform="matrix(647.5688 0 0 647.5688 830752.3125 -80423.7656)">
								<stop  offset="0" style="stop-color:#2BD1F5"/>
								<stop  offset="5.618000e-03" style="stop-color:#2BD1F5"/>
								<stop  offset="0.4326" style="stop-color:#327DFB"/>
								<stop  offset="0.4535" style="stop-color:#3679F8"/>
								<stop  offset="0.6944" style="stop-color:#5F51DA"/>
								<stop  offset="0.8849" style="stop-color:#7838C7"/>
								<stop  offset="1" style="stop-color:#812FC0"/>
							</linearGradient>
							<rect x="-0.4" y="-0.3" class="st6" width="62.3" height="51.2"/>
						</g>
					</g>
				</g>
			</g>
		</g>
	</g>
	<g>
		<g class="st7">
			<g>
				<g>
					<g>
						<g>
							<g>
								<g>
									<g>
										<defs>
											<path id="SVGID_11_" d="M45.1,49c-0.5,1.4-2.2,2-3.5,1.1L1.2,21.6c-1.5-1.1-1.2-3.5,0.6-4"/>
										</defs>
										<clipPath id="SVGID_12_">
											<use xlink:href="#SVGID_11_"  style="overflow:visible;"/>
										</clipPath>
										
											<linearGradient id="SVGID_13_" gradientUnits="userSpaceOnUse" x1="-1287.8887" y1="123.2349" x2="-1287.7941" y2="123.2349" gradientTransform="matrix(0 -531.6137 531.6137 0 -65482.5508 -684608.875)">
											<stop  offset="0" style="stop-color:#000000"/>
											<stop  offset="1" style="stop-color:#FFFFFF"/>
										</linearGradient>
										<rect x="-0.4" y="-0.3" class="st8" width="62.4" height="51.2"/>
									</g>
								</g>
							</g>
						</g>
					</g>
				</g>
			</g>
		</g>
		<g>
			<g>
				<g class="st9">
					<g>
						<g>
							<g>
								<g>
									<g>
										<g>
											<g>
												<defs>
													<path id="SVGID_14_" d="M42.1,48.6c-0.6,0-1.1-0.2-1.6-0.5L24.7,36.6l-21.1-15c-0.6-0.4-1-1.2-0.8-2
														c0.1-0.8,0.6-1.4,1.4-1.7l0,0l26.2-8.1l0.6,2l-6.1,1.9C16.7,16.3,15,27.1,22,32.1l4,2.8l15.8,11.4
														c0.2,0.2,0.4,0.1,0.5,0.1s0.3-0.1,0.4-0.4l0.6-1.2l1.9,0.9l-0.6,1.2c-0.3,0.6-0.8,1.1-1.5,1.4
														C42.8,48.5,42.5,48.6,42.1,48.6"/>
												</defs>
												<clipPath id="SVGID_15_">
													<use xlink:href="#SVGID_14_"  style="overflow:visible;"/>
												</clipPath>
												
													<linearGradient id="SVGID_16_" gradientUnits="userSpaceOnUse" x1="-1282.0487" y1="125.4263" x2="-1281.954" y2="125.4263" gradientTransform="matrix(447.7437 0 0 447.7437 574032 -56129.6211)">
													<stop  offset="0" style="stop-color:#2BD1F5"/>
													<stop  offset="5.618000e-03" style="stop-color:#2BD1F5"/>
													<stop  offset="0.6056" style="stop-color:#327DFB"/>
													<stop  offset="0.6201" style="stop-color:#3679FB"/>
													<stop  offset="0.7876" style="stop-color:#5F54FB"/>
													<stop  offset="0.92" style="stop-color:#783DFB"/>
													<stop  offset="1" style="stop-color:#8134FB"/>
												</linearGradient>
												<rect x="2.7" y="9.8" class="st10" width="42.5" height="38.8"/>
											</g>
										</g>
									</g>
								</g>
							</g>
						</g>
					</g>
				</g>
			</g>
		</g>
		<g>
			<g>
				<g class="st9">
					<g>
						<g>
							<g>
								<g>
									<g>
										<g>
											<g>
												<defs>
													<path id="SVGID_17_" d="M42.1,48.6c-0.6,0-1.1-0.2-1.6-0.5L24.7,36.6l-21.1-15c-0.6-0.4-1-1.2-0.8-2
														c0.1-0.8,0.6-1.4,1.4-1.7l0,0l26.2-8.1l0.6,2l-6.1,1.9C16.7,16.3,15,27.1,22,32.1l4,2.8l15.8,11.4
														c0.2,0.2,0.4,0.1,0.5,0.1s0.3-0.1,0.4-0.4l0.6-1.2l1.9,0.9l-0.6,1.2c-0.3,0.6-0.8,1.1-1.5,1.4
														C42.8,48.5,42.5,48.6,42.1,48.6"/>
												</defs>
												<clipPath id="SVGID_18_">
													<use xlink:href="#SVGID_17_"  style="overflow:visible;"/>
												</clipPath>
												
													<linearGradient id="SVGID_19_" gradientUnits="userSpaceOnUse" x1="-1282.0487" y1="125.4263" x2="-1281.954" y2="125.4263" gradientTransform="matrix(447.7437 0 0 447.7437 574032 -56129.6211)">
													<stop  offset="0" style="stop-color:#2BD1F5"/>
													<stop  offset="5.618000e-03" style="stop-color:#2BD1F5"/>
													<stop  offset="0.6056" style="stop-color:#327DFB"/>
													<stop  offset="0.6201" style="stop-color:#3679FB"/>
													<stop  offset="0.7876" style="stop-color:#5F54FB"/>
													<stop  offset="0.92" style="stop-color:#783DFB"/>
													<stop  offset="1" style="stop-color:#8134FB"/>
												</linearGradient>
												<rect x="2.7" y="9.8" class="st11" width="42.5" height="38.8"/>
											</g>
										</g>
									</g>
								</g>
							</g>
						</g>
					</g>
				</g>
			</g>
		</g>
		<g>
			<g>
				<g>
					<g>
						<g>
							<g>
								<g>
									<g>
										<defs>
											<path id="SVGID_20_" d="M42.4,49.5c-0.6,0-1.6-1-2.1-1.3L24.7,36.6l-21.1-15c-0.6-0.4-2.1-1.2-1.9-2.2
												C2,18.3,3.3,18.2,4.1,18l0,0l26.3-8.2l1,3.2l-15.6,4.3c-4.9,1.6-4.6,7.5-4.2,7.8l14.3,9.8l15.8,11.4
												c0.2,0.2,0.4,0.1,0.5,0.1s0.3-0.1,0.4-0.4l0.6-1.2l3-8.9l2,0.7l-3,9c0,0-1.2,3.4-1.7,3.5C43.1,49.4,42.8,49.5,42.4,49.5"
												/>
										</defs>
										<clipPath id="SVGID_21_">
											<use xlink:href="#SVGID_20_"  style="overflow:visible;"/>
										</clipPath>
										
											<linearGradient id="SVGID_22_" gradientUnits="userSpaceOnUse" x1="-1282.2725" y1="125.065" x2="-1282.1777" y2="125.065" gradientTransform="matrix(490.3976 0 0 490.3976 628825.0625 -61301.9414)">
											<stop  offset="0" style="stop-color:#2BD1F5"/>
											<stop  offset="5.618000e-03" style="stop-color:#2BD1F5"/>
											<stop  offset="0.6056" style="stop-color:#327DFB"/>
											<stop  offset="0.6201" style="stop-color:#3679FB"/>
											<stop  offset="0.7876" style="stop-color:#5F54FB"/>
											<stop  offset="0.92" style="stop-color:#783DFB"/>
											<stop  offset="1" style="stop-color:#8134FB"/>
										</linearGradient>
										<rect x="1.5" y="9.8" class="st12" width="46.6" height="39.7"/>
									</g>
								</g>
							</g>
						</g>
					</g>
				</g>
			</g>
		</g>
		<g>
			<g>
				<g>
					<g>
						<g>
							<g>
								<g>
									<defs>
										<rect id="SVGID_23_" x="54.7" y="2.6" width="4.5" height="4.4"/>
									</defs>
									<clipPath id="SVGID_24_">
										<use xlink:href="#SVGID_23_"  style="overflow:visible;"/>
									</clipPath>
									<path class="st13" d="M59.1,4.3c0.3,1.2-0.5,2.3-1.7,2.6c-1.2,0.3-2.4-0.4-2.7-1.6s0.5-2.3,1.7-2.6
										C57.7,2.4,58.8,3.1,59.1,4.3 M55.3,5.1c0.2,0.9,1.1,1.5,2,1.3c0.9-0.2,1.4-1.1,1.2-2.1c-0.2-0.9-1.1-1.6-2-1.3
										S55.1,4.2,55.3,5.1 M56.8,5.9L56.3,6l-0.5-2.1c0.2-0.1,0.5-0.2,0.8-0.3c0.4-0.1,0.6-0.1,0.8,0s0.3,0.2,0.3,0.4
										c0.1,0.3-0.1,0.6-0.3,0.7l0,0c0.2,0,0.4,0.2,0.5,0.4c0.1,0.3,0.2,0.4,0.3,0.5l-0.5,0.1c-0.1,0-0.2-0.2-0.3-0.4
										c-0.1-0.2-0.2-0.3-0.5-0.2l-0.2,0.1L56.8,5.9z M56.6,4.7h0.2c0.3-0.1,0.5-0.2,0.4-0.4c0-0.2-0.2-0.3-0.5-0.2
										c-0.1,0-0.2,0.1-0.3,0.1L56.6,4.7z"/>
								</g>
							</g>
						</g>
					</g>
				</g>
			</g>
		</g>
		<path class="st14" d="M59.3,3.8c0.3,1.2-0.5,2.4-1.7,2.6c-1.2,0.3-2.4-0.4-2.7-1.6s0.5-2.3,1.7-2.6C57.9,1.9,59,2.6,59.3,3.8
			 M55.5,4.7c0.2,0.9,1.1,1.5,2,1.3s1.4-1.1,1.2-2.1c-0.2-0.9-1.1-1.6-2-1.3C55.8,2.8,55.3,3.7,55.5,4.7 M57,5.5l-0.5,0.1L56,3.5
			c0.2-0.1,0.5-0.2,0.8-0.3c0.4-0.1,0.6-0.1,0.8,0s0.3,0.2,0.3,0.4c0.1,0.3-0.1,0.5-0.3,0.6l0,0c0.2,0,0.4,0.2,0.5,0.4
			c0.1,0.3,0.2,0.4,0.3,0.5l-0.5,0.1c-0.1-0.1-0.2-0.2-0.3-0.5c-0.1-0.2-0.2-0.3-0.5-0.2l-0.2,0.1L57,5.5z M56.8,4.3L57,4.2
			c0.3-0.1,0.5-0.2,0.4-0.4c0-0.2-0.2-0.3-0.5-0.2c-0.1,0-0.2,0.1-0.3,0.1L56.8,4.3z"/>
		<g>
			<g>
				<g>
					<g>
						<g>
							<g>
								<g>
									<g>
										<defs>
											<path id="SVGID_25_" d="M42.4,49.5c-0.6,0-1.6-1-2.1-1.4L24.6,36.6l-21.1-15c-0.6-0.4-1.7-1.3-1.6-2.2
												C2,18.5,2.6,18.3,4,17.9l0,0l26.3-8.2l0.1,1.4l-25.6,8c-0.3,0.1-0.4,0.5-0.1,0.8l21.2,15l15.8,11.4
												c0.2,0.2,0.4,0.1,0.5,0.1s0.3-0.1,0.4-0.4l0.6-1.2l3-8.9l2,0.7l-3,9l-0.4,1.3c-0.3,0.6-0.6,2-1.2,2.3
												C43.1,49.4,42.8,49.5,42.4,49.5"/>
										</defs>
										<clipPath id="SVGID_26_">
											<use xlink:href="#SVGID_25_"  style="overflow:visible;"/>
										</clipPath>
										
											<linearGradient id="SVGID_27_" gradientUnits="userSpaceOnUse" x1="-1282.2601" y1="125.0898" x2="-1282.1654" y2="125.0898" gradientTransform="matrix(487.1365 0 0 487.1365 624637.75 -60906.2734)">
											<stop  offset="0" style="stop-color:#2BD1F5"/>
											<stop  offset="5.618000e-03" style="stop-color:#2BD1F5"/>
											<stop  offset="0.6056" style="stop-color:#327DFB"/>
											<stop  offset="0.6201" style="stop-color:#3679FB"/>
											<stop  offset="0.7876" style="stop-color:#5F54FB"/>
											<stop  offset="0.92" style="stop-color:#783DFB"/>
											<stop  offset="1" style="stop-color:#8134FB"/>
										</linearGradient>
										<rect x="1.8" y="9.7" class="st15" width="46.2" height="39.7"/>
									</g>
								</g>
							</g>
						</g>
					</g>
				</g>
			</g>
		</g>
		<g>
			<g>
				<polygon class="st16" points="23.1,22.3 19.6,17.3 22.3,16.5 24.2,19.6 25.9,15.4 28.9,14.5 25.6,21.8 25.7,25.3 23.2,26.1 				
					"/>
				<path class="st16" d="M29.4,14.3l3.8-1.1c0.6-0.2,1.2-0.3,1.6-0.3c0.5,0,0.8,0,1.2,0.2c0.3,0.1,0.6,0.3,0.8,0.5s0.3,0.5,0.4,0.8
					c0.2,0.6,0.1,1.1-0.1,1.6c-0.2,0.5-0.6,0.9-1.2,1.3c0.5,0,0.8,0.1,1.2,0.4c0.3,0.2,0.6,0.6,0.7,1c0.1,0.4,0.1,0.8,0.1,1.2
					c-0.1,0.4-0.2,0.8-0.5,1.1c-0.3,0.3-0.6,0.7-1.1,1s-1.1,0.6-1.8,0.8l-4.7,1.4L29.4,14.3z M33.7,17c0.4-0.1,0.8-0.3,0.9-0.6
					c0.2-0.2,0.2-0.5,0.1-0.8c-0.1-0.2-0.2-0.3-0.4-0.4c-0.2-0.1-0.5,0-0.9,0.1l-1.6,0.5l0.1,1.7L33.7,17z M34,20.6
					c0.4-0.1,0.8-0.3,1-0.6c0.2-0.3,0.2-0.5,0.2-0.8c-0.1-0.5-0.6-0.6-1.3-0.4l-1.7,0.5v1.8L34,20.6z"/>
				<polygon class="st16" points="38.7,11.5 46,9.3 46,11.6 41.2,13.1 41.3,14.6 45.6,13.2 45.7,15.4 41.4,16.7 41.4,18.3 
					46.3,16.8 46.3,19.1 39,21.3 				"/>
				<path class="st16" d="M47.3,8.9l3.4-1c0.8-0.2,1.4-0.3,2-0.3s1,0.1,1.4,0.3c0.3,0.2,0.6,0.4,0.8,0.7s0.4,0.6,0.5,1
					c0.2,0.8,0.2,1.5-0.1,2.2s-0.8,1.3-1.7,1.8l2.3,2.6L53.1,17l-2-2.4L50,14.9l0.1,3l-2.4,0.8L47.3,8.9z M51.5,12.4
					c0.6-0.2,1-0.4,1.3-0.8c0.3-0.3,0.3-0.7,0.2-1.1c-0.1-0.2-0.2-0.4-0.4-0.5c-0.3-0.1-0.7-0.1-1.2,0L50,10.4l0.1,2.4L51.5,12.4z"
					/>
			</g>
		</g>
		<g>
			<g>
				<polygon class="st16" points="19.1,46.8 20.7,46.3 20.8,48 19.1,48.5 				"/>
				<path class="st16" d="M24.7,46.9c-0.4,0.1-0.8,0.2-1.2,0.2c-0.4,0-0.7-0.1-1-0.2c-0.3-0.1-0.6-0.4-0.8-0.6
					c-0.2-0.3-0.4-0.6-0.5-1s-0.2-0.9-0.1-1.4c0-0.5,0.2-0.9,0.4-1.3c0.2-0.4,0.5-0.8,0.9-1.2c0.4-0.3,0.9-0.6,1.4-0.8
					c0.6-0.2,1.1-0.2,1.6-0.1c0.5,0.1,0.9,0.4,1.2,0.8l-1.2,1.2c-0.2-0.2-0.4-0.3-0.6-0.4c-0.2-0.1-0.5-0.1-0.8,0
					c-0.2,0.1-0.5,0.2-0.6,0.4c-0.2,0.2-0.3,0.4-0.4,0.6c-0.1,0.2-0.2,0.5-0.2,0.7c0,0.3,0,0.5,0.1,0.8c0.1,0.4,0.3,0.6,0.6,0.8
					c0.3,0.1,0.6,0.2,0.9,0.1c0.3-0.1,0.5-0.2,0.6-0.4c0.2-0.2,0.3-0.4,0.4-0.6l1.4,0.6c-0.2,0.4-0.4,0.8-0.8,1.1
					C25.7,46.5,25.3,46.8,24.7,46.9"/>
				<path class="st16" d="M30.5,45.1c-0.4,0.1-0.8,0.2-1.2,0.2c-0.4,0-0.7-0.1-1-0.3s-0.6-0.4-0.8-0.7c-0.2-0.3-0.4-0.6-0.5-1
					s-0.2-0.9-0.1-1.4c0-0.5,0.2-0.9,0.4-1.3c0.2-0.4,0.5-0.8,0.9-1.1s0.8-0.6,1.3-0.7c0.4-0.1,0.8-0.2,1.2-0.2c0.4,0,0.7,0.1,1,0.3
					s0.6,0.4,0.8,0.7s0.4,0.6,0.5,1s0.2,0.9,0.1,1.4c0,0.5-0.2,0.9-0.4,1.3c-0.2,0.4-0.5,0.8-0.9,1.1C31.4,44.7,31,45,30.5,45.1
					 M30.2,43.6c0.3-0.1,0.5-0.2,0.6-0.4c0.2-0.2,0.3-0.4,0.4-0.6c0.1-0.2,0.1-0.5,0.2-0.7c0-0.2,0-0.5-0.1-0.7s-0.1-0.3-0.2-0.5
					c-0.1-0.1-0.2-0.3-0.4-0.3c-0.1-0.1-0.3-0.1-0.5-0.1s-0.4,0-0.6,0.1c-0.3,0.1-0.5,0.2-0.6,0.4c-0.2,0.2-0.3,0.4-0.4,0.6
					c-0.1,0.2-0.1,0.5-0.2,0.7c0,0.2,0,0.5,0.1,0.7s0.1,0.3,0.2,0.5c0.1,0.1,0.2,0.3,0.4,0.3c0.2,0.1,0.3,0.1,0.5,0.1
					C29.8,43.7,30,43.7,30.2,43.6"/>
				<polygon class="st16" points="33.4,37.8 35,37.3 36.5,39.3 37.7,36.4 39.6,35.9 39.8,42.1 38.2,42.6 38,39 36.6,42 36.6,42 
					35.1,40 35.2,43.6 33.6,44.1 				"/>
				<polygon class="st16" points="40.4,40.2 42,39.7 42.1,41.4 40.4,41.9 				"/>
				<path class="st16" d="M44.4,34.3l1.6-0.5l2.7,5.6L47,39.9l-0.5-1l-2.2,0.7l-0.4,1.3l-1.8,0.5L44.4,34.3z M46,37.7l-0.7-1.6
					l-0.6,2L46,37.7z"/>
				<path class="st16" d="M48.6,33.1l2.2-0.7c0.5-0.2,0.9-0.2,1.3-0.2c0.4,0,0.7,0.1,0.9,0.2c0.2,0.1,0.4,0.3,0.5,0.4
					c0.1,0.2,0.2,0.4,0.3,0.6c0.2,0.5,0.1,1,0,1.4c-0.2,0.4-0.5,0.8-1.1,1.2l1.5,1.7l-1.8,0.6l-1.3-1.6L50.4,37l0.1,1.9l-1.6,0.5
					L48.6,33.1z M51.3,35.3c0.4-0.1,0.6-0.3,0.8-0.5s0.2-0.4,0.1-0.7c0-0.2-0.1-0.3-0.3-0.3c-0.2-0.1-0.4-0.1-0.8,0l-0.9,0.3
					l0.1,1.5L51.3,35.3z"/>
			</g>
		</g>
		<g>
			<g>
				<polygon class="st16" points="3.8,34.6 6.4,33.8 8.7,37 10.7,32.5 13.5,31.6 13.8,41.5 11.3,42.2 11.1,36.6 8.9,41.2 8.9,41.2 
					6.5,38.1 6.7,43.7 4.2,44.4 				"/>
				<path class="st16" d="M20.6,39.6c-0.6,0.2-1.3,0.3-1.9,0.2c-0.6,0-1.1-0.2-1.6-0.4s-0.9-0.6-1.3-1s-0.6-0.9-0.8-1.5
					c-0.2-0.7-0.3-1.4-0.2-2.1c0.1-0.7,0.3-1.4,0.6-2s0.8-1.2,1.3-1.7c0.6-0.5,1.2-0.9,2-1.1c0.6-0.2,1.3-0.3,1.9-0.2
					c0.6,0,1.1,0.2,1.6,0.4c0.5,0.2,0.9,0.6,1.3,1s0.6,0.9,0.8,1.5c0.2,0.7,0.3,1.4,0.2,2.1c-0.1,0.7-0.3,1.4-0.6,2
					c-0.3,0.6-0.8,1.2-1.3,1.7C22.1,38.9,21.4,39.3,20.6,39.6 M20.1,37.2c0.4-0.1,0.7-0.3,1-0.6s0.5-0.6,0.6-0.9
					c0.1-0.3,0.2-0.7,0.2-1.1c0-0.4,0-0.7-0.1-1.1c-0.1-0.3-0.2-0.5-0.4-0.8c-0.2-0.2-0.4-0.4-0.6-0.5S20.3,32,20.1,32
					c-0.3,0-0.6,0-0.9,0.1c-0.4,0.1-0.7,0.3-1,0.6s-0.5,0.6-0.6,0.9c-0.1,0.4-0.2,0.7-0.2,1.1s0,0.7,0.1,1.1
					c0.1,0.3,0.2,0.5,0.4,0.8c0.2,0.2,0.4,0.4,0.6,0.5s0.5,0.2,0.7,0.2C19.5,37.4,19.8,37.3,20.1,37.2"/>
				<polygon class="st16" points="25.6,27.9 27.9,27.2 31.8,31.5 31.6,26.1 34.1,25.3 34.5,35.1 32.3,35.8 28.2,31.3 28.4,37 
					25.9,37.7 				"/>
				<path class="st16" d="M35.7,24.8l2.9-0.9c0.9-0.3,1.6-0.4,2.3-0.3c0.6,0,1.2,0.2,1.6,0.4c0.9,0.5,1.5,1.2,1.8,2.3
					c0.2,0.7,0.3,1.4,0.2,2c-0.1,0.7-0.3,1.3-0.6,2c-0.4,0.7-0.9,1.3-1.6,1.9c-0.7,0.5-1.6,1-2.6,1.3l-3.6,1.1L35.7,24.8z
					 M39.3,31.2c0.5-0.2,1-0.4,1.4-0.7c0.4-0.3,0.7-0.6,0.9-1c0.2-0.3,0.3-0.7,0.3-1c0-0.4,0-0.7-0.1-1.1c-0.1-0.3-0.2-0.5-0.3-0.7
					s-0.3-0.3-0.5-0.4s-0.5-0.2-0.8-0.2s-0.7,0.1-1.1,0.2l-0.7,0.2l0.2,5L39.3,31.2z"/>
				<path class="st16" d="M48.6,20.8l2.5-0.8l4.2,8.7l-2.6,0.8L52,28l-3.6,1l-0.6,2l-2.7,0.8L48.6,20.8z M51.1,26.1L50,23.6
					l-0.9,3.1L51.1,26.1z"/>
				<polygon class="st16" points="57.7,24.1 54.1,19.1 56.8,18.3 58.8,21.4 60.5,17.2 63.5,16.2 60.2,23.6 60.3,27.1 57.8,27.9 				
					"/>
			</g>
		</g>
		<polygon class="st14" points="19.3,45.8 21,45.3 21,47.1 19.4,47.6 		"/>
		<path class="st14" d="M25,46c-0.4,0.1-0.8,0.2-1.2,0.2c-0.4,0-0.7-0.1-1-0.2c-0.3-0.1-0.6-0.4-0.8-0.6c-0.2-0.3-0.4-0.6-0.5-1
			s-0.2-0.9-0.1-1.4c0-0.5,0.2-0.9,0.4-1.3c0.2-0.4,0.5-0.8,0.9-1.2c0.4-0.3,0.9-0.6,1.4-0.8c0.6-0.2,1.1-0.2,1.6-0.1
			c0.5,0.1,0.9,0.4,1.2,0.8l-1.2,1.2c-0.2-0.2-0.4-0.3-0.6-0.4c-0.2-0.1-0.5-0.1-0.8,0c-0.2,0.1-0.5,0.2-0.6,0.4
			c-0.2,0.2-0.3,0.4-0.4,0.6c-0.1,0.2-0.2,0.5-0.2,0.7c0,0.3,0,0.5,0.1,0.8c0.1,0.4,0.3,0.6,0.6,0.8c0.3,0.1,0.6,0.2,0.9,0.1
			c0.3-0.1,0.5-0.2,0.6-0.4c0.2-0.2,0.3-0.4,0.4-0.6l1.4,0.6c-0.2,0.4-0.4,0.8-0.8,1.1C26,45.6,25.5,45.8,25,46"/>
		<path class="st14" d="M30.7,44.2c-0.4,0.1-0.8,0.2-1.2,0.2c-0.4,0-0.7-0.1-1-0.3s-0.6-0.4-0.8-0.7c-0.2-0.3-0.4-0.6-0.5-1
			S27,41.5,27.1,41c0-0.5,0.2-0.9,0.4-1.3c0.2-0.4,0.5-0.8,0.9-1.1s0.8-0.6,1.3-0.7c0.4-0.1,0.8-0.2,1.2-0.2c0.4,0,0.7,0.1,1,0.3
			c0.3,0.2,0.6,0.4,0.8,0.7s0.4,0.6,0.5,1s0.2,0.9,0.1,1.4c0,0.5-0.2,0.9-0.4,1.3c-0.2,0.4-0.5,0.8-0.9,1.1
			C31.7,43.8,31.2,44.1,30.7,44.2 M30.4,42.7c0.3-0.1,0.5-0.2,0.6-0.4c0.2-0.2,0.3-0.4,0.4-0.6c0.1-0.2,0.1-0.5,0.2-0.7
			c0-0.2,0-0.5-0.1-0.7s-0.1-0.3-0.2-0.5c-0.1-0.1-0.2-0.3-0.4-0.3c-0.1-0.1-0.3-0.1-0.5-0.1s-0.4,0-0.6,0.1
			c-0.3,0.1-0.5,0.2-0.6,0.4c-0.2,0.2-0.3,0.4-0.4,0.6c-0.1,0.2-0.1,0.5-0.2,0.7c0,0.2,0,0.5,0.1,0.7s0.1,0.3,0.2,0.5
			c0.1,0.1,0.2,0.3,0.4,0.3c0.1,0.1,0.3,0.1,0.5,0.1S30.2,42.8,30.4,42.7"/>
		<polygon class="st14" points="33.6,36.8 35.3,36.3 36.7,38.4 38,35.5 39.8,34.9 40,41.2 38.4,41.7 38.3,38.1 36.9,41 36.9,41 
			35.3,39 35.5,42.6 33.9,43.1 		"/>
		<polygon class="st14" points="40.6,39.3 42.3,38.8 42.3,40.5 40.7,41 		"/>
		<path class="st14" d="M44.7,33.4l1.6-0.5l2.7,5.6L47.3,39l-0.5-1l-2.2,0.7L44.2,40l-1.8,0.5L44.7,33.4z M46.3,36.8l-0.7-1.6
			l-0.6,2L46.3,36.8z"/>
		<path class="st14" d="M48.9,32.1l2.2-0.7c0.5-0.2,0.9-0.2,1.3-0.2c0.4,0,0.7,0.1,0.9,0.2s0.4,0.3,0.5,0.4c0.1,0.2,0.2,0.4,0.3,0.6
			c0.2,0.5,0.1,1,0,1.4c-0.2,0.4-0.5,0.8-1.1,1.2l1.5,1.7l-1.8,0.5l-1.3-1.4L50.7,36l0.1,1.9l-1.6,0.5L48.9,32.1z M51.5,34.4
			c0.4-0.1,0.6-0.3,0.8-0.5s0.2-0.4,0.1-0.7c0-0.2-0.1-0.3-0.3-0.3c-0.2-0.1-0.4-0.1-0.8,0l-0.9,0.3l0.1,1.5L51.5,34.4z"/>
		<polygon class="st14" points="4.1,33.7 6.6,32.9 8.9,36 10.9,31.6 13.7,30.7 14.1,40.5 11.6,41.3 11.4,35.7 9.2,40.2 9.1,40.2 
			6.7,37.1 6.9,42.7 4.5,43.5 		"/>
		<path class="st14" d="M20.9,38.6c-0.6,0.2-1.3,0.3-1.9,0.2c-0.6,0-1.1-0.2-1.6-0.4s-0.9-0.6-1.3-1s-0.6-0.9-0.8-1.5
			c-0.2-0.7-0.3-1.4-0.2-2.1c0.1-0.7,0.3-1.4,0.6-2c0.3-0.6,0.8-1.2,1.3-1.7c0.6-0.5,1.2-0.9,2-1.1c0.6-0.2,1.3-0.3,1.9-0.2
			c0.6,0,1.1,0.2,1.6,0.4c0.5,0.2,0.9,0.6,1.3,1s0.6,0.9,0.8,1.5c0.2,0.7,0.3,1.4,0.2,2.1c-0.1,0.7-0.3,1.4-0.6,2
			c-0.3,0.6-0.8,1.2-1.3,1.7C22.3,38,21.7,38.4,20.9,38.6 M20.4,36.3c0.4-0.1,0.7-0.3,1-0.6s0.5-0.6,0.6-0.9
			c0.1-0.3,0.2-0.7,0.2-1.1c0-0.4,0-0.7-0.1-1.1c-0.1-0.3-0.2-0.5-0.4-0.8c-0.2-0.2-0.4-0.4-0.6-0.5s-0.5-0.2-0.7-0.2
			c-0.3,0-0.6,0-0.9,0.1c-0.4,0.1-0.7,0.3-1,0.6c-0.3,0.3-0.5,0.6-0.6,0.9c-0.1,0.4-0.2,0.7-0.2,1.1c0,0.4,0,0.7,0.1,1.1
			c0.1,0.3,0.2,0.5,0.4,0.8c0.2,0.2,0.4,0.4,0.6,0.5s0.5,0.2,0.7,0.2C19.8,36.4,20.1,36.4,20.4,36.3"/>
		<polygon class="st14" points="25.8,27 28.2,26.3 32.1,30.6 31.9,25.1 34.4,24.4 34.7,34.2 32.5,34.9 28.5,30.4 28.7,36 26.2,36.8 
					"/>
		<path class="st14" d="M35.9,23.9l2.9-0.9c0.9-0.3,1.6-0.4,2.3-0.3c0.6,0,1.2,0.2,1.6,0.4c0.9,0.5,1.5,1.2,1.8,2.3
			c0.2,0.7,0.3,1.4,0.2,2c-0.1,0.7-0.3,1.3-0.6,2c-0.4,0.7-0.9,1.3-1.6,1.9c-0.7,0.5-1.6,1-2.6,1.3l-3.6,1.1L35.9,23.9z M39.6,30.3
			c0.5-0.2,1-0.4,1.4-0.7c0.4-0.3,0.7-0.6,0.9-1c0.2-0.3,0.3-0.7,0.3-1c0-0.4,0-0.7-0.1-1.1c-0.1-0.3-0.2-0.5-0.3-0.7
			s-0.3-0.3-0.5-0.4s-0.5-0.2-0.8-0.2s-0.7,0.1-1.1,0.2l-0.7,0.2l0.2,5L39.6,30.3z"/>
		<path class="st14" d="M48.8,19.8l2.5-0.8l4.2,8.7l-2.6,0.8L52.2,27l-3.5,1.1l-0.6,2l-2.7,0.8L48.8,19.8z M51.4,25.1l-1.1-2.5
			l-0.9,3.1L51.4,25.1z"/>
		<polygon class="st14" points="57.9,23.2 54.4,18.2 57.1,17.4 59,20.5 60.7,16.2 63.7,15.3 60.5,22.7 60.6,26.2 58.1,27 		"/>
	</g>
	<g>
		<g>
			<g>
				<g>
					<g>
						<g>
							<defs>
								<path id="SVGID_28_" d="M2.9,21.1l2.8,2l9-2.7c0.6-0.8,1.4-1.4,2.3-1.5c0.1-0.7,0.5-1.4,0.9-2L2.9,21.1z"/>
							</defs>
							<clipPath id="SVGID_29_">
								<use xlink:href="#SVGID_28_"  style="overflow:visible;"/>
							</clipPath>
							
								<linearGradient id="SVGID_30_" gradientUnits="userSpaceOnUse" x1="-1279.2222" y1="129.903" x2="-1279.1274" y2="129.903" gradientTransform="matrix(223.0365 0 0 223.0365 285316.0938 -28953.166)">
								<stop  offset="0" style="stop-color:#2BD1F5"/>
								<stop  offset="5.618000e-03" style="stop-color:#2BD1F5"/>
								<stop  offset="0.6056" style="stop-color:#327DFB"/>
								<stop  offset="0.6201" style="stop-color:#3679FB"/>
								<stop  offset="0.7876" style="stop-color:#5F54FB"/>
								<stop  offset="0.92" style="stop-color:#783DFB"/>
								<stop  offset="1" style="stop-color:#8134FB"/>
							</linearGradient>
							<rect x="2.9" y="16.8" class="st17" width="15.1" height="6.3"/>
						</g>
					</g>
				</g>
			</g>
		</g>
	</g>
	<g>
		<g>
			<g>
				<g>
					<g>
						<g>
							<defs>
								<path id="SVGID_31_" d="M7,24l2.5,1.8l4.3-1.3c-0.1-0.4-0.1-0.7-0.1-1.1s0.1-0.9,0.2-1.4L7,24z"/>
							</defs>
							<clipPath id="SVGID_32_">
								<use xlink:href="#SVGID_31_"  style="overflow:visible;"/>
							</clipPath>
							
								<linearGradient id="SVGID_33_" gradientUnits="userSpaceOnUse" x1="-1279.9083" y1="128.9551" x2="-1279.8136" y2="128.9551" gradientTransform="matrix(245.9424 0 0 245.9424 314790.75 -31691.5801)">
								<stop  offset="0" style="stop-color:#2BD1F5"/>
								<stop  offset="5.618000e-03" style="stop-color:#2BD1F5"/>
								<stop  offset="0.6056" style="stop-color:#327DFB"/>
								<stop  offset="0.6201" style="stop-color:#3679FB"/>
								<stop  offset="0.7876" style="stop-color:#5F54FB"/>
								<stop  offset="0.92" style="stop-color:#783DFB"/>
								<stop  offset="1" style="stop-color:#8134FB"/>
							</linearGradient>
							<rect x="7" y="22.1" class="st18" width="6.9" height="3.7"/>
						</g>
					</g>
				</g>
			</g>
		</g>
	</g>
	<g>
		<g>
			<g>
				<g>
					<g>
						<g>
							<defs>
								<path id="SVGID_34_" d="M10.7,26.7l2,1.4l3-0.8c-0.6-0.4-1.1-0.9-1.4-1.6L10.7,26.7z"/>
							</defs>
							<clipPath id="SVGID_35_">
								<use xlink:href="#SVGID_34_"  style="overflow:visible;"/>
							</clipPath>
							
								<linearGradient id="SVGID_36_" gradientUnits="userSpaceOnUse" x1="-1279.9227" y1="129.04" x2="-1279.8284" y2="129.04" gradientTransform="matrix(239.4525 0 0 239.4525 306491.5 -30871.9941)">
								<stop  offset="0" style="stop-color:#2BD1F5"/>
								<stop  offset="5.618000e-03" style="stop-color:#2BD1F5"/>
								<stop  offset="0.6056" style="stop-color:#327DFB"/>
								<stop  offset="0.6201" style="stop-color:#3679FB"/>
								<stop  offset="0.7876" style="stop-color:#5F54FB"/>
								<stop  offset="0.92" style="stop-color:#783DFB"/>
								<stop  offset="1" style="stop-color:#8134FB"/>
							</linearGradient>
							<rect x="10.7" y="25.8" class="st19" width="5" height="2.3"/>
						</g>
					</g>
				</g>
			</g>
		</g>
	</g>
	<g>
		<polygon class="st14" points="23.3,21.4 19.8,16.4 22.5,15.6 24.4,18.7 26.1,14.5 29.2,13.5 25.8,20.9 26,24.4 23.4,25.2 		"/>
		<path class="st14" d="M29.7,13.4l3.8-1.1c0.6-0.2,1.2-0.3,1.6-0.3c0.5,0,0.8,0,1.2,0.2c0.3,0.1,0.6,0.3,0.8,0.5s0.3,0.5,0.4,0.8
			c0.2,0.6,0.1,1.1-0.1,1.6c-0.2,0.5-0.6,0.9-1.2,1.3c0.5,0,0.8,0.1,1.2,0.4c0.3,0.2,0.6,0.6,0.7,1c0.1,0.4,0.1,0.8,0.1,1.2
			c-0.1,0.4-0.2,0.8-0.5,1.1c-0.3,0.3-0.6,0.7-1.1,1s-1.1,0.6-1.8,0.8l-4.7,1.4L29.7,13.4z M34,16c0.4-0.1,0.8-0.3,0.9-0.6
			c0.2-0.2,0.2-0.5,0.1-0.8c-0.1-0.2-0.2-0.3-0.4-0.4c-0.2-0.1-0.5,0-0.9,0.1l-1.6,0.5l0.1,1.7L34,16z M34.3,19.7
			c0.4-0.1,0.8-0.3,1-0.6c0.2-0.3,0.2-0.5,0.2-0.8c-0.1-0.5-0.6-0.6-1.3-0.4l-1.7,0.5v1.8L34.3,19.7z"/>
		<polygon class="st14" points="38.9,10.6 46.2,8.4 46.3,10.7 41.5,12.1 41.5,13.6 45.9,12.3 45.9,14.5 41.6,15.8 41.7,17.3 
			46.5,15.9 46.6,18.2 39.2,20.4 		"/>
		<path class="st14" d="M47.6,8L51,7c0.8-0.2,1.4-0.3,2-0.3s1,0.1,1.4,0.3c0.3,0.2,0.6,0.4,0.8,0.7c0.2,0.3,0.4,0.6,0.5,1
			c0.2,0.8,0.2,1.5-0.1,2.2s-0.8,1.3-1.7,1.8l2.3,2.6l-2.8,0.8l-2-2.4L50.3,14l0.1,3l-2.5,0.8L47.6,8z M51.7,11.5
			c0.6-0.2,1-0.4,1.3-0.8c0.3-0.3,0.3-0.7,0.2-1.1c-0.1-0.2-0.2-0.4-0.4-0.5c-0.3-0.1-0.7-0.1-1.2,0l-1.4,0.4l0.1,2.4L51.7,11.5z"/>
		<g class="st20">
			<g>
				<path class="st14" d="M32.7,8.9l-14.8,5l-14.8,5l0,0l0,0c-0.3,0.1-0.5,0.2-0.6,0.3c-0.1,0.1-0.1,0.1-0.1,0.2s0,0.1,0,0.2
					s0.1,0.1,0.1,0.2c0.1,0.1,0.1,0.2,0.3,0.3l0.9,0.7l3.6,2.7c0.6,0.4,1.2,0.9,1.8,1.4l1.8,1.4c0.6,0.5,1.2,0.9,1.8,1.4
					s1.2,0.9,1.8,1.4c0.1,0.1,0.1,0.2,0,0.3c-0.1,0.1-0.2,0.1-0.3,0c-0.6-0.4-1.3-0.8-1.9-1.2c-0.6-0.4-1.3-0.8-1.9-1.2l-2-1.3
					c-0.6-0.4-1.3-0.8-1.9-1.2L2.7,22l-0.4-0.3l-0.2-0.2L2,21.4H1.9l-0.1-0.1c-0.2-0.1-0.4-0.3-0.6-0.5S0.9,20.3,0.8,20
					s-0.1-0.6,0-0.9s0.3-0.6,0.5-0.8c0.2-0.2,0.4-0.4,0.7-0.5c0.2-0.1,0.5-0.2,0.7-0.2l0,0l15-4.5l15-4.5c0.1,0,0.1,0,0.1,0.1
					S32.7,8.9,32.7,8.9"/>
			</g>
		</g>
		<g class="st20">
			<g>
				<path class="st14" d="M35.5,44.3c0.3,0.2,0.6,0.4,0.9,0.5c0.3,0.2,0.6,0.4,0.9,0.5c0.3,0.2,0.6,0.4,0.9,0.6l0.9,0.6l0.9,0.6
					c0.3,0.2,0.6,0.4,0.9,0.6l0.9,0.6c0.3,0.2,0.6,0.4,0.9,0.6l0,0l0,0h0.1h0.1H43h0.1h0.1h0.1h0.1h0.1h0.1l0,0l0,0l0,0l0,0l0,0l0,0
					l0,0l0.3-0.7c0.1-0.2,0.2-0.5,0.3-0.7s0.2-0.5,0.3-0.7s0.2-0.5,0.3-0.7s0.2-0.5,0.4-0.7c0.1-0.2,0.2-0.5,0.4-0.7
					c0.1-0.2,0.3-0.5,0.4-0.7c0.1-0.2,0.3-0.5,0.4-0.7l0,0l0,0c-0.1,0.3-0.1,0.5-0.2,0.8c-0.1,0.3-0.2,0.5-0.2,0.8
					c-0.1,0.3-0.2,0.5-0.3,0.8s-0.2,0.5-0.3,0.8s-0.2,0.5-0.3,0.8s-0.2,0.5-0.3,0.8s-0.2,0.5-0.3,0.8l-0.3,0.7l0,0l0,0l-0.1,0.1
					c0,0,0,0.1-0.1,0.1l-0.1,0.1L43.8,50c0,0-0.1,0-0.1,0.1c0,0-0.1,0-0.1,0.1c0,0-0.1,0-0.1,0.1h-0.1h-0.1h-0.1h-0.1H43h-0.1h-0.1
					h-0.1l-0.1-0.1l0,0l0,0c-0.3-0.2-0.6-0.4-0.8-0.6l-1.4-1.4c-0.3-0.2-0.6-0.4-0.8-0.6L38.8,47L38,46.4c-0.3-0.2-0.6-0.4-0.8-0.6
					c-0.3-0.2-0.6-0.4-0.8-0.6C36,44.8,35.7,44.6,35.5,44.3C35.4,44.4,35.4,44.4,35.5,44.3C35.4,44.3,35.5,44.3,35.5,44.3"/>
			</g>
		</g>
	</g>
</g>
<path class="st16" d="M16.7,28.3c-0.6,0.2-1.2,0.3-1.8,0.2c-0.6,0-1.1-0.2-1.6-0.4c-0.5-0.2-0.9-0.6-1.3-1c-0.4-0.4-0.6-0.9-0.8-1.5
	c-0.2-0.7-0.3-1.4-0.2-2.1s0.3-1.4,0.6-2.1s0.8-1.3,1.4-1.8c0.6-0.5,1.3-0.9,2.2-1.2c0.9-0.3,1.8-0.3,2.5-0.1
	c0.7,0.2,1.4,0.6,1.9,1.3l-1.8,1.8c-0.3-0.3-0.6-0.5-1-0.6s-0.8-0.1-1.2,0c-0.4,0.1-0.7,0.3-1,0.6c-0.3,0.3-0.5,0.6-0.7,0.9
	s-0.3,0.7-0.3,1.1s0,0.8,0.1,1.2c0.2,0.6,0.5,1,0.9,1.2s0.9,0.3,1.5,0.1c0.4-0.1,0.7-0.3,1-0.6c0.3-0.3,0.5-0.6,0.7-1l2.2,1
	c-0.3,0.6-0.7,1.2-1.2,1.7C18.3,27.6,17.6,28,16.7,28.3"/>
<path class="st14" d="M17,27.3c-0.6,0.2-1.2,0.3-1.8,0.2c-0.6,0-1.1-0.2-1.6-0.4c-0.5-0.2-0.9-0.6-1.3-1c-0.4-0.4-0.6-0.9-0.8-1.5
	c-0.2-0.7-0.3-1.4-0.2-2.1s0.3-1.4,0.6-2.1s0.8-1.3,1.4-1.8c0.6-0.5,1.3-0.9,2.2-1.2c0.9-0.3,1.8-0.3,2.5-0.1
	c0.7,0.2,1.4,0.6,1.9,1.3l-1.8,1.8c-0.3-0.3-0.6-0.5-1-0.6s-0.8-0.1-1.2,0c-0.4,0.1-0.7,0.3-1,0.6c-0.3,0.3-0.5,0.6-0.7,0.9
	s-0.3,0.7-0.3,1.1s0,0.8,0.1,1.2c0.2,0.6,0.5,1,0.9,1.2s0.9,0.3,1.5,0.1c0.4-0.1,0.7-0.3,1-0.6c0.3-0.3,0.5-0.6,0.7-1l2.2,1
	c-0.3,0.6-0.7,1.2-1.2,1.7C18.5,26.7,17.8,27.1,17,27.3"/>
<g>
	<path class="st14" d="M72.3,20.2v-0.6c0-3.7,2-5.9,5.1-5.9s5.1,2.2,5.1,5.9v0.6c0,3.7-1.9,6-5.1,6C74.3,26.1,72.3,23.9,72.3,20.2z
		 M80.3,20.2v-0.6c0-2.6-1-4.1-2.8-4.1s-2.8,1.5-2.8,4.2v0.6c0,2.8,1.1,4.1,2.9,4.1C79.4,24.3,80.3,22.9,80.3,20.2z"/>
	<path class="st14" d="M84.3,20.4v-0.3c0-4.2,2.1-6.5,5-6.5c2.2,0,3.7,1.1,4,3.2h-2.1c-0.2-0.9-0.7-1.5-1.9-1.5
		c-1.6,0-2.7,1.4-2.8,4.2c0.6-0.9,1.6-1.6,3-1.6c2.3,0,4,1.6,4,4c0,2.5-1.7,4.1-4.5,4.1C85.5,26.1,84.3,23.7,84.3,20.4z M91.3,22.1
		c0-1.5-0.9-2.4-2.3-2.4s-2.3,1-2.3,2.3c0,1.6,1,2.5,2.3,2.5S91.3,23.5,91.3,22.1z"/>
	<path class="st14" d="M94.3,27.5l1.5-4l2,0.8l-2.2,3.8L94.3,27.5z"/>
	<path class="st14" d="M103.7,20.2v-0.6c0-3.7,2-5.9,5.1-5.9s5.1,2.2,5.1,5.9v0.6c0,3.7-1.9,6-5.1,6
		C105.7,26.1,103.7,23.9,103.7,20.2z M111.7,20.2v-0.6c0-2.6-1-4.1-2.8-4.1s-2.8,1.5-2.8,4.2v0.6c0,2.8,1.1,4.1,2.9,4.1
		C110.8,24.3,111.7,22.9,111.7,20.2z"/>
	<path class="st14" d="M120.3,15.7h-5.7v-1.8h8.5v0.3L118.8,26h-2.3L120.3,15.7z"/>
	<path class="st14" d="M131.8,20.7l-4-6.9h2.5l2.7,5l2.7-5h2.2l-3.8,6.9V26h-2.3L131.8,20.7L131.8,20.7z"/>
	<path class="st14" d="M143.1,20.2v-0.6c0-3.7,2-5.9,5.1-5.9s5.1,2.2,5.1,5.9v0.6c0,3.7-1.9,6-5.1,6
		C145.1,26.1,143.1,23.9,143.1,20.2z M151,20.2v-0.6c0-2.6-1-4.1-2.8-4.1s-2.8,1.5-2.8,4.2v0.6c0,2.8,1.1,4.1,2.9,4.1
		C150.1,24.3,151,22.9,151,20.2z"/>
	<path class="st14" d="M154.8,22.5c0-1.5,0.9-2.6,2.3-3.1c-1.1-0.4-1.8-1.3-1.8-2.5c0-2.1,2-3.3,4.1-3.3c2.2,0,4.1,1.2,4.1,3.2
		c0,1.2-0.7,2.1-1.8,2.5c1.4,0.5,2.3,1.6,2.3,3c0,2.4-2.1,3.7-4.5,3.7C156.9,26.1,154.8,24.9,154.8,22.5z M161.6,22.3
		c0-1.3-1-2.1-2.2-2.1s-2.3,0.7-2.3,2.1s1.1,2.1,2.3,2.1S161.6,23.7,161.6,22.3z M161.2,17c0-1-0.8-1.7-1.9-1.7
		c-1.1,0-1.9,0.7-1.9,1.8s0.9,1.8,2,1.8C160.5,18.8,161.2,18.1,161.2,17z"/>
	<path class="st14" d="M72.9,29.8h3.7c4.2,0,6.3,2.4,6.3,5.9v0.2c0,3.5-2.1,6.1-6.3,6.1h-3.7V29.8z M76.4,40.2c2.7,0,4-1.6,4-4.3
		v-0.1c0-2.6-1.2-4.2-4-4.2h-1.3v8.6C75.1,40.2,76.4,40.2,76.4,40.2z"/>
	<path class="st14" d="M85,29.8h7.6v1.8h-5.3v3.3h4.3v1.7h-4.3v3.6h5.6V42H85V29.8z"/>
	<path class="st14" d="M99,29.8h2.7l5.1,8.8v-8.8h2.1V42h-2.3l-5.5-9.3V42H99V29.8z"/>
	<path class="st14" d="M111,36L111,36c0-3.7,2.5-6.3,6.2-6.3c3.6,0,6.1,2.6,6.1,6.1v0.1c0,3.6-2.4,6.2-6.1,6.2S111,39.5,111,36z
		 M121,35.9L121,35.9c0-2.6-1.4-4.5-3.8-4.5s-3.8,1.8-3.8,4.4V36c0,2.7,1.6,4.4,3.8,4.4C119.5,40.3,121,38.6,121,35.9z"/>
	<path class="st14" d="M124,29.8h2.4l3.2,9.9l3.2-9.9h2.1L130.7,42h-2.6L124,29.8z"/>
	<path class="st14" d="M136.6,29.8h2.3V42h-2.3V29.8z"/>
	<path class="st14" d="M141.8,29.8h7.6v1.8h-5.3v3.3h4.3v1.7h-4.3v3.6h5.6V42h-7.9L141.8,29.8L141.8,29.8z"/>
	<path class="st14" d="M151.7,29.8h3l3.2,8.3l3.1-8.3h3V42h-2.3v-9.2l-3.6,9.2h-0.7l-3.7-9.2V42h-2V29.8z"/>
	<path class="st14" d="M166.9,29.8h4.4c2.5,0,4,1,4,3.2l0,0c0,1.2-0.5,2.2-1.9,2.6c1.6,0.4,2.4,1.3,2.4,2.9v0.1
		c0,2.3-1.5,3.4-4.2,3.4h-4.7V29.8z M170.9,34.9c1.5,0,2.1-0.5,2.1-1.8V33c0-1.2-0.7-1.6-2.1-1.6h-1.8v3.5H170.9z M171.3,40.4
		c1.5,0,2.2-0.7,2.2-1.9v-0.1c0-1.3-0.7-1.9-2.4-1.9h-2v3.9H171.3z"/>
	<path class="st14" d="M177.8,29.8h4.1c2.7,0,4.5,1.1,4.5,3.6v0.1c0,1.9-1.2,2.9-2.7,3.3l3.4,5.3h-2.4l-3.2-4.9h-1.4V42h-2.3
		L177.8,29.8L177.8,29.8z M181.9,35.4c1.5,0,2.3-0.6,2.3-1.9v-0.1c0-1.4-0.9-1.9-2.3-1.9h-1.8v3.9H181.9z"/>
	<path class="st14" d="M189,29.8h7.6v1.8h-5.3v3.3h4.3v1.7h-4.3v3.6h5.6V42H189V29.8z"/>
</g>
</svg>
