<?xml version="1.0" encoding="utf-8"?>
<!-- Generator: Adobe Illustrator 26.5.0, SVG Export Plug-In . SVG Version: 6.00 Build 0)  -->
<svg version="1.1" id="Capa_1" xmlns="http://www.w3.org/2000/svg" xmlns:xlink="http://www.w3.org/1999/xlink" x="0px" y="0px"
	 width="64px" height="64px" viewBox="0 0 64 64" style="enable-background:new 0 0 64 64;" xml:space="preserve">
<style type="text/css">
	.st0{fill:#F9F9F9;}
	.st1{fill:#FFDA84;}
	.st2{fill:#FCF3E2;}
	.st3{fill:#38333A;}
	.st4{fill:#ECEDEF;}
	.st5{fill:#FD5B5F;}
	.st6{enable-background:new    ;}
	.st7{fill:#FFFFFF;}
	.st8{fill:none;stroke:#E6E6E6;stroke-width:0.5;stroke-linecap:round;stroke-linejoin:round;stroke-miterlimit:10;}
</style>
<g>
</g>
<g id="XMLID_33_">
	<path id="XMLID_71_" class="st0" d="M0.2,52.7L0.2,52.7c0-13.9,11.2-25.2,25.2-25.2c13.9,0,25.2,11.3,25.2,25.2H0.2L0.2,52.7
		L0.2,52.7z"/>
	<path id="XMLID_70_" class="st1" d="M25.6,3.8h-16c-2.8,0-5,2.3-5,5h7.8h8.2C20.6,6.1,22.9,3.8,25.6,3.8z"/>
	<path id="XMLID_69_" class="st2" d="M50,52.7V8.9c0-2.8-2.3-5-5-5H14.6h-5c2.8,0,5,2.3,5,5v25v13.8v5H50z"/>
	<path id="XMLID_50_" class="st1" d="M32.3,12.9h-7.5c-1,0-1.9,0.8-1.9,1.9l0,0c0,1,0.8,1.9,1.9,1.9h7.5c1,0,1.9-0.8,1.9-1.9l0,0
		C34.2,13.7,33.3,12.9,32.3,12.9z"/>
	<path id="XMLID_49_" class="st1" d="M39.8,20.4h-15c-1,0-1.9,0.8-1.9,1.9l0,0c0,1,0.8,1.9,1.9,1.9h15c1,0,1.9-0.8,1.9-1.9l0,0
		C41.7,21.2,40.9,20.4,39.8,20.4z"/>
	<path id="XMLID_48_" class="st1" d="M39.8,27.9h-15c-1,0-1.9,0.8-1.9,1.9l0,0c0,1,0.8,1.9,1.9,1.9h15c1,0,1.9-0.8,1.9-1.9l0,0
		C41.7,28.7,40.9,27.9,39.8,27.9z"/>
	<path id="XMLID_47_" class="st1" d="M39.8,35.4h-15c-1,0-1.9,0.8-1.9,1.9l0,0c0,1,0.8,1.9,1.9,1.9h15c1,0,1.9-0.8,1.9-1.9l0,0
		C41.7,36.3,40.9,35.4,39.8,35.4z"/>
	<g id="XMLID_412_">
		<ellipse id="XMLID_43_" class="st3" cx="17.4" cy="52.4" rx="7" ry="1.5"/>
		<g id="XMLID_413_">
			<g id="XMLID_414_">
				<path id="XMLID_42_" class="st4" d="M20.7,42.7c0,0,1.8,10.8-6.3,11.2c-8.1,0.4-6.2-11.2-6.2-11.2H20.7z"/>
				<path id="XMLID_416_" class="st4" d="M7.6,50.9C5.7,51,4.1,49.4,4,47.5s1.5-3.5,3.4-3.6s3.5,1.5,3.6,3.4
					C11.1,49.2,9.6,50.9,7.6,50.9z M7.5,45c-1.3,0-2.3,1.1-2.3,2.4s1.1,2.3,2.4,2.3s2.3-1.1,2.3-2.4S8.8,45,7.5,45z"/>
				<ellipse id="XMLID_39_" class="st3" cx="14.4" cy="42.7" rx="6.2" ry="0.8"/>
			</g>
		</g>
	</g>
	<g id="XMLID_408_">
		<g id="XMLID_409_">
			<path id="XMLID_410_" class="st5" d="M48.5,29.5c-8.5,0-15.4,6.9-15.4,15.4S40,60.3,48.5,60.3s15.4-6.9,15.4-15.4
				S57,29.5,48.5,29.5z"/>
		</g>
	</g>
	<g class="st6">
		<path class="st7" d="M43.7,41.1c0.5,0.5,0.8,1.1,0.8,2c0,0.9-0.3,1.5-0.8,2c-0.5,0.5-1.3,0.7-2.2,0.7h-1.9v2.6
			c0,0.1,0,0.2-0.1,0.2s-0.1,0.1-0.2,0.1h-1c-0.1,0-0.2,0-0.2-0.1C38,48.5,38,48.5,38,48.4v-7.7c0-0.1,0-0.2,0.1-0.2
			c0.1-0.1,0.1-0.1,0.2-0.1h3.2C42.4,40.4,43.2,40.6,43.7,41.1z M41.4,44.3c0.5,0,0.8-0.1,1.1-0.3c0.3-0.2,0.4-0.5,0.4-0.9
			c0-0.4-0.1-0.7-0.4-0.9s-0.6-0.3-1.1-0.3h-1.8v2.4H41.4z"/>
		<path class="st7" d="M52.6,44.5c0,0.4,0,0.7,0,0.9c-0.1,1-0.4,1.8-1,2.4c-0.6,0.6-1.4,0.9-2.5,0.9h-3c-0.1,0-0.2,0-0.2-0.1
			s-0.1-0.1-0.1-0.2v-7.7c0-0.1,0-0.2,0.1-0.2s0.1-0.1,0.2-0.1H49c1.1,0,2,0.3,2.6,0.9c0.6,0.6,0.9,1.4,1,2.4
			C52.6,43.9,52.6,44.2,52.6,44.5z M47.4,41.9v5.3H49c0.6,0,1.1-0.2,1.4-0.5c0.3-0.3,0.5-0.8,0.5-1.3c0-0.2,0-0.5,0-0.9s0-0.7,0-0.9
			c0-0.5-0.2-1-0.5-1.3c-0.3-0.3-0.8-0.5-1.5-0.5H47.4z"/>
		<path class="st7" d="M59.7,40.5c0.1,0.1,0.1,0.1,0.1,0.2v0.8c0,0.1,0,0.2-0.1,0.2c-0.1,0.1-0.1,0.1-0.2,0.1h-3.8v2.3h3.5
			c0.1,0,0.2,0,0.2,0.1s0.1,0.1,0.1,0.2v0.8c0,0.1,0,0.2-0.1,0.2c-0.1,0.1-0.1,0.1-0.2,0.1h-3.5v2.7c0,0.1,0,0.2-0.1,0.2
			s-0.1,0.1-0.2,0.1h-1c-0.1,0-0.2,0-0.2-0.1c-0.1-0.1-0.1-0.1-0.1-0.2v-7.7c0-0.1,0-0.2,0.1-0.2c0.1-0.1,0.1-0.1,0.2-0.1h5.1
			C59.6,40.4,59.7,40.4,59.7,40.5z"/>
	</g>
	<path id="XMLID_36_" class="st8" d="M7.3,28.7h10.5c0.5,0,1,0.4,1,1v5.2c0,0.5-0.4,1-1,1h-5.4l-3.2,2.8V36l-1.9-0.1
		c-0.5,0-1-0.4-1-1v-5.2C6.3,29.1,6.8,28.7,7.3,28.7z"/>
</g>
</svg>
