<?xml version="1.0" encoding="utf-8"?>
<!-- Generator: Adobe Illustrator 26.5.0, SVG Export Plug-In . SVG Version: 6.00 Build 0)  -->
<svg version="1.1" id="Capa_1" xmlns="http://www.w3.org/2000/svg" xmlns:xlink="http://www.w3.org/1999/xlink" x="0px" y="0px"
	 width="64px" height="64px" viewBox="0 0 64 64" style="enable-background:new 0 0 64 64;" xml:space="preserve">
<style type="text/css">
	.st0{fill:#F9F9F9;}
	.st1{fill:#E6F8FC;}
	.st2{fill:#FC5C63;}
	.st3{fill:#38333A;}
	.st4{fill:#48C9EA;}
	.st5{fill:none;stroke:#FFFFFF;stroke-width:3;stroke-linecap:round;stroke-linejoin:round;stroke-miterlimit:10;}
	.st6{fill:#BBEBF7;}
	.st7{clip-path:url(#SVGID_00000085931217348662086980000006401652961042781583_);fill:#FD5B5F;}
	.st8{fill:#FD5B5F;}
	.st9{fill:#FFDA84;}
</style>
<g>
</g>
<g>
	<g id="XMLID_195_">
		<path id="XMLID_441_" class="st0" d="M0.9,61.4L0.9,61.4c0-13.9,11.2-25.2,25.2-25.2c13.9,0,25.2,11.3,25.2,25.2H0.9L0.9,61.4
			L0.9,61.4z"/>
		<path id="XMLID_487_" class="st1" d="M57.5,61.5H14.6V3.7h38.3c2.6,0,4.6,2.1,4.6,4.6V61.5z"/>
		<g id="XMLID_655_">
			<path id="XMLID_555_" class="st2" d="M54.1,48.7c1.4,2.6,0.7,5.7,0.7,5.7s-3-1.1-4.4-3.7S49.7,45,49.7,45S52.7,46.1,54.1,48.7z"
				/>
			<path id="XMLID_207_" class="st2" d="M60.9,46c-1,4.8-5.1,8-5.1,8s-2.6-4.6-1.6-9.4s5.1-8,5.1-8S61.9,41.2,60.9,46z"/>
			<path id="XMLID_206_" class="st3" d="M49.3,53.7l2,6.7c0.2,0.5,0.7,0.9,1.2,0.9h5.2c0.6,0,1.1-0.4,1.2-1l1.5-6.8
				c0.2-1-0.5-1.9-1.5-1.8h-8.1C49.7,51.7,49,52.7,49.3,53.7z"/>
		</g>
		<g>
			<circle id="XMLID_403_" class="st4" cx="20.6" cy="27.9" r="15.5"/>
			<polyline id="XMLID_724_" class="st5" points="14.4,28.2 18.6,33 26.3,23.5 			"/>
		</g>
		<path id="XMLID_739_" class="st6" d="M43.2,44.7H27.7c-1.1,0-1.9,0.9-1.9,1.9l0,0c0,1.1,0.9,1.9,1.9,1.9h15.5
			c1.1,0,1.9-0.9,1.9-1.9l0,0C45.2,45.6,44.3,44.7,43.2,44.7z"/>
		<path id="XMLID_738_" class="st6" d="M43.2,51.5H27.7c-1.1,0-1.9,0.9-1.9,1.9l0,0c0,1.1,0.9,1.9,1.9,1.9h15.5
			c1.1,0,1.9-0.9,1.9-1.9l0,0C45.2,52.3,44.3,51.5,43.2,51.5z"/>
		<g id="XMLID_129_">
			<g>
				<defs>
					<path id="SVGID_1_" d="M57.5,61.5H14.6V3.7h38.3c2.6,0,4.6,2.1,4.6,4.6V61.5z"/>
				</defs>
				<clipPath id="SVGID_00000155119148422092376190000012413193071699080859_">
					<use xlink:href="#SVGID_1_"  style="overflow:visible;"/>
				</clipPath>
				
					<rect id="XMLID_347_" x="14.6" y="2.6" style="clip-path:url(#SVGID_00000155119148422092376190000012413193071699080859_);fill:#FD5B5F;" width="42.9" height="4.8"/>
			</g>
		</g>
	</g>
	<circle id="XMLID_45_" class="st8" cx="8.9" cy="8.1" r="1.1"/>
	<circle id="XMLID_44_" class="st9" cx="7.4" cy="52.8" r="1.1"/>
	<circle id="XMLID_1_" class="st9" cx="49.9" cy="22.3" r="1.1"/>
</g>
</svg>
