<?xml version="1.0" encoding="utf-8"?>
<!-- Generator: Adobe Illustrator 26.5.0, SVG Export Plug-In . SVG Version: 6.00 Build 0)  -->
<svg version="1.1" id="Capa_1" xmlns="http://www.w3.org/2000/svg" xmlns:xlink="http://www.w3.org/1999/xlink" x="0px" y="0px"
	 width="73.2px" height="64px" viewBox="0 0 73.2 64" style="enable-background:new 0 0 73.2 64;" xml:space="preserve">
<style type="text/css">
	.st0{clip-path:url(#SVGID_00000011720990948766147320000006332108479014082959_);}
	.st1{fill:#F4AAA0;}
	.st2{fill:#342F45;}
	.st3{fill:#F55C63;}
	.st4{fill:#EBF1FF;}
	.st5{fill:#003883;}
	.st6{fill:#2D32DB;}
	.st7{fill:#3860FF;}
	.st8{fill:#FF988D;}
	.st9{clip-path:url(#SVGID_00000106838429034459529850000004271714770738788542_);}
	.st10{fill:none;stroke:#8D65FD;stroke-miterlimit:10;}
	.st11{clip-path:url(#SVGID_00000145035403781246600160000014115151191316770194_);}
	.st12{fill:#855B54;}
	.st13{clip-path:url(#SVGID_00000173867477365955848890000014054230658339094930_);}
	.st14{clip-path:url(#SVGID_00000026161011688463878030000014705340595019710865_);}
	.st15{clip-path:url(#SVGID_00000179612587217406405950000017500076176771452332_);}
	.st16{fill:#FCF3E2;}
	.st17{clip-path:url(#SVGID_00000176724705211520773640000010612142519422312345_);}
	.st18{fill:#DDB588;}
	.st19{clip-path:url(#SVGID_00000090293281183007868180000005554639332358773158_);fill:none;stroke:#8D65FD;stroke-miterlimit:10;}
	.st20{clip-path:url(#SVGID_00000160880376453802735800000004573000697976674234_);fill:none;stroke:#F55C63;stroke-miterlimit:10;}
	.st21{clip-path:url(#SVGID_00000129921086896951754180000012519622559268456833_);fill:none;stroke:#F55C63;stroke-miterlimit:10;}
	.st22{clip-path:url(#SVGID_00000037659552915171270950000013241666068972014215_);fill:#F55C63;}
	.st23{clip-path:url(#SVGID_00000028296783087707856970000008213116930206061227_);}
	.st24{clip-path:url(#SVGID_00000047767505540876375660000014290779071056452992_);fill:none;stroke:#F55C63;stroke-miterlimit:10;}
	
		.st25{clip-path:url(#SVGID_00000152231179088590560900000002243697902603703711_);fill:none;stroke:#F55C63;stroke-width:2;stroke-miterlimit:10;}
	.st26{fill:none;stroke:#FCF3E2;stroke-width:0.5;stroke-linecap:round;stroke-linejoin:round;stroke-miterlimit:10;}
	.st27{fill:#D7AC7F;}
</style>
<g id="XMLID_73_">
	<g>
		<defs>
			<rect id="SVGID_1_" x="0" y="2.1" width="49" height="59.9"/>
		</defs>
		<clipPath id="SVGID_00000091708241137447474840000002799738029971130775_">
			<use xlink:href="#SVGID_1_"  style="overflow:visible;"/>
		</clipPath>
		<g id="XMLID_3463_" style="clip-path:url(#SVGID_00000091708241137447474840000002799738029971130775_);">
			<g id="XMLID_305_">
				
					<rect id="XMLID_3053_" x="7.8" y="196.4" transform="matrix(2.587566e-02 -0.9997 0.9997 2.587566e-02 -187.3008 207.2256)" class="st1" width="9.8" height="6.7"/>
			</g>
			<g id="XMLID_276_">
				<polyline id="XMLID_3302_" class="st2" points="16.4,199.7 9.1,199.7 8.9,115.7 21.8,116.6 				"/>
			</g>
			<g id="XMLID_265_">
				<g id="XMLID_274_">
					<path id="XMLID_3301_" class="st3" d="M16.2,204.1v4.7H-2.8v-0.7c0-2.2,1.8-3.8,3.8-3.8h8.2h7.1V204.1z"/>
				</g>
				<g id="XMLID_273_">
					<rect id="XMLID_3300_" x="-2.8" y="208.8" class="st3" width="19.1" height="2.2"/>
				</g>
			</g>
			<g id="XMLID_266_">
				
					<rect id="XMLID_3049_" x="29.8" y="194.8" transform="matrix(0.9997 -2.610447e-02 2.610447e-02 0.9997 -5.2005 0.9315)" class="st1" width="6.7" height="9.8"/>
			</g>
			<g id="XMLID_253_">
				<polyline id="XMLID_3297_" class="st2" points="29.5,199.7 36.6,199.7 37.1,115.7 24.2,116.6 				"/>
			</g>
			<g id="XMLID_1774_">
				<path id="XMLID_3291_" class="st4" d="M36,119.4H8.9c-3.1,0-5.3-2.4-5.3-5.3L1.4,60c0-2.9,6-8.6,9.1-8.6h24.2
					c3.1,0,9.1,5.8,9.1,8.6l-2,54.1C41.5,117.2,39.1,119.4,36,119.4z"/>
			</g>
			<g id="XMLID_2821_">
				<path id="XMLID_3290_" class="st5" d="M38.8,114.6h-7.1v-63H36c4.9,0,8.9,4,8.9,8.9v48.3C44.6,111.9,41.9,114.6,38.8,114.6z"/>
			</g>
			<g id="XMLID_1893_">
				<path id="XMLID_3280_" class="st5" d="M7.8,114.6h7.3v-63h-4.4c-4.9,0-8.9,4-8.9,8.9v48.1C1.8,111.9,4.5,114.6,7.8,114.6z"/>
			</g>
			<g id="XMLID_1951_">
				<path id="XMLID_2887_" class="st6" d="M31.5,45.4"/>
			</g>
			<g id="XMLID_1630_">
				<path id="XMLID_2865_" class="st6" d="M31.5,45.4"/>
			</g>
			<g id="XMLID_1362_">
				<path id="XMLID_3231_" class="st1" d="M23.1,57.1L23.1,57.1c-3.3,0-5.8-2.7-5.8-6V46c0-1.1,0.9-1.8,1.8-1.8h8
					c0.9,0,1.8,0.9,1.8,1.8v5.1C28.9,54.3,26.4,57.1,23.1,57.1z"/>
			</g>
			<g id="XMLID_172_">
				<circle id="XMLID_3230_" class="st1" cx="40.4" cy="98.6" r="4.4"/>
			</g>
			<g id="XMLID_2860_">
				<path id="XMLID_3229_" class="st7" d="M39.7,103.9l-5.3-4.2c-0.7-0.4-0.7-1.3-0.2-2l0,0c0.4-0.7,1.3-0.7,2-0.2l5.3,4.2
					c0.7,0.4,0.7,1.3,0.2,2l0,0C41.3,104.4,40.4,104.4,39.7,103.9z"/>
			</g>
			<g id="XMLID_169_">
				<circle id="XMLID_3228_" class="st1" cx="5.6" cy="98.4" r="4.4"/>
			</g>
			<g id="XMLID_75_">
				<path id="XMLID_3227_" class="st7" d="M5.8,103.9l5.3-4.2c0.7-0.4,0.7-1.3,0.2-2l0,0c-0.4-0.7-1.3-0.7-2-0.2L4,101.7
					c-0.7,0.4-0.7,1.3-0.2,2l0,0C4.3,104.1,5.1,104.4,5.8,103.9z"/>
			</g>
			<g id="XMLID_264_">
				<g id="XMLID_2701_">
					<path id="XMLID_3226_" class="st3" d="M29.5,204.1v4.7h19.1v-0.7c0-2.2-1.8-3.8-3.8-3.8h-8.2h-7.1V204.1z"/>
				</g>
				<g id="XMLID_2427_">
					<rect id="XMLID_3225_" x="29.5" y="208.8" class="st3" width="19.1" height="2.2"/>
				</g>
			</g>
			<g id="XMLID_2597_">
				<path id="XMLID_3224_" class="st8" d="M17.1,44.7c0,0,1.3,4.4,5.8,4.4s6.4-4,6.4-4L17.1,44.7z"/>
			</g>
			<g id="XMLID_925_">
				<ellipse id="XMLID_3213_" class="st1" cx="35.1" cy="29.6" rx="1.8" ry="2"/>
			</g>
			<g id="XMLID_307_">
				<ellipse id="XMLID_3212_" class="st1" cx="12.2" cy="29.6" rx="1.8" ry="2"/>
			</g>
			<g id="XMLID_306_">
				<path id="XMLID_3211_" class="st1" d="M23.8,47.4L23.8,47.4c-6.2,0-11.3-5.1-11.3-11.3V25c0-6.2,5.1-11.3,11.3-11.3l0,0
					c6.2,0,11.3,5.1,11.3,11.3v11.1C35.1,42.3,30,47.4,23.8,47.4z"/>
			</g>
			<g id="XMLID_326_">
				<g>
					<defs>
						<path id="SVGID_00000074426411420957935030000007945255501978862730_" d="M23.8,47.4L23.8,47.4c-6.2,0-11.3-5.1-11.3-11.3V25
							c0-6.2,5.1-11.3,11.3-11.3l0,0c6.2,0,11.3,5.1,11.3,11.3v11.1C35.1,42.3,30,47.4,23.8,47.4z"/>
					</defs>
					<clipPath id="SVGID_00000098938304483115101630000002893226828476296380_">
						<use xlink:href="#SVGID_00000074426411420957935030000007945255501978862730_"  style="overflow:visible;"/>
					</clipPath>
					<g id="XMLID_2593_" style="clip-path:url(#SVGID_00000098938304483115101630000002893226828476296380_);">
						<path id="XMLID_3209_" class="st10" d="M16.9,40.1"/>
					</g>
				</g>
				<g>
					<defs>
						<path id="SVGID_00000091007821448009802730000006673723791869417346_" d="M23.8,47.4L23.8,47.4c-6.2,0-11.3-5.1-11.3-11.3V25
							c0-6.2,5.1-11.3,11.3-11.3l0,0c6.2,0,11.3,5.1,11.3,11.3v11.1C35.1,42.3,30,47.4,23.8,47.4z"/>
					</defs>
					<clipPath id="SVGID_00000094617185916845908050000004001369422155126425_">
						<use xlink:href="#SVGID_00000091007821448009802730000006673723791869417346_"  style="overflow:visible;"/>
					</clipPath>
					<g id="XMLID_2592_" style="clip-path:url(#SVGID_00000094617185916845908050000004001369422155126425_);">
						<rect id="XMLID_2871_" x="33.5" y="23.7" class="st12" width="1.6" height="23.9"/>
					</g>
				</g>
				<g>
					<defs>
						<path id="SVGID_00000048481194690283691880000006300595726876266892_" d="M23.8,47.4L23.8,47.4c-6.2,0-11.3-5.1-11.3-11.3V25
							c0-6.2,5.1-11.3,11.3-11.3l0,0c6.2,0,11.3,5.1,11.3,11.3v11.1C35.1,42.3,30,47.4,23.8,47.4z"/>
					</defs>
					<clipPath id="SVGID_00000130615067159775934790000006217957417905653388_">
						<use xlink:href="#SVGID_00000048481194690283691880000006300595726876266892_"  style="overflow:visible;"/>
					</clipPath>
					<g id="XMLID_320_" style="clip-path:url(#SVGID_00000130615067159775934790000006217957417905653388_);">
						<polygon id="XMLID_2870_" class="st12" points="14,45.4 12.2,45.4 12.2,35.8 12.2,21.2 13.8,21.2 14,35.8 						"/>
					</g>
				</g>
				<g>
					<defs>
						<path id="SVGID_00000092456614955570674570000004736931244043173549_" d="M23.8,47.4L23.8,47.4c-6.2,0-11.3-5.1-11.3-11.3V25
							c0-6.2,5.1-11.3,11.3-11.3l0,0c6.2,0,11.3,5.1,11.3,11.3v11.1C35.1,42.3,30,47.4,23.8,47.4z"/>
					</defs>
					<clipPath id="SVGID_00000179607602957554712720000009459261438761400461_">
						<use xlink:href="#SVGID_00000092456614955570674570000004736931244043173549_"  style="overflow:visible;"/>
					</clipPath>
					<g id="XMLID_270_" style="clip-path:url(#SVGID_00000179607602957554712720000009459261438761400461_);">
						<path id="XMLID_2863_" class="st12" d="M33.5,33c0,2.2-1.8,4.2-4,4.2l-11.3,0.2c-2.4,0-4.2-1.8-4.2-4l0.2,15.1L33.7,48
							L33.5,33z"/>
					</g>
				</g>
				<g>
					<defs>
						<path id="SVGID_00000121962446290540141590000011900084870667770501_" d="M23.8,47.4L23.8,47.4c-6.2,0-11.3-5.1-11.3-11.3V25
							c0-6.2,5.1-11.3,11.3-11.3l0,0c6.2,0,11.3,5.1,11.3,11.3v11.1C35.1,42.3,30,47.4,23.8,47.4z"/>
					</defs>
					<clipPath id="SVGID_00000029736050059362135590000014345927648545603257_">
						<use xlink:href="#SVGID_00000121962446290540141590000011900084870667770501_"  style="overflow:visible;"/>
					</clipPath>
					<g id="XMLID_268_" style="clip-path:url(#SVGID_00000029736050059362135590000014345927648545603257_);">
						<g id="XMLID_3208_">
							<rect id="XMLID_3054_" x="12" y="37.4" class="st12" width="23.7" height="9.5"/>
						</g>
						<g id="XMLID_2772_">
							<rect id="XMLID_2888_" x="13.6" y="36.5" class="st12" width="0.9" height="0.9"/>
						</g>
					</g>
				</g>
			</g>
			<g id="XMLID_74_">
				<path id="XMLID_267_" class="st12" d="M30.9,14.8c-0.2,0-0.7,0-0.9,0c-1.1-1.3-2.9-2.2-4.9-2.2c-0.4,0-0.7,0-1.1,0.2
					c-1.3-2.7-4.2-4.4-7.3-4.4c-4.7,0-8.2,3.8-8.2,8.2c0,4.7,3.8,8.2,8.2,8.2c1.6,0,3.1-0.4,4.4-1.3c1.1,0.9,2.4,1.6,4,1.6
					c0.7,0,1.1-0.2,1.8-0.2c1.1,0.9,2.4,1.6,4,1.6c3.1,0,5.8-2.7,5.8-5.8S34,14.8,30.9,14.8z"/>
			</g>
			<g id="XMLID_1952_">
				<g id="XMLID_1913_">
					<path id="XMLID_2783_" class="st16" d="M19.1,33.9c-2.7,0-4.9-2.2-4.9-4.9s2.2-4.9,4.9-4.9S24,26.3,24,29S21.8,33.9,19.1,33.9z
						 M19.1,24.8c-2.2,0-4,1.8-4,4s1.8,4,4,4s4-1.8,4-4C23.1,26.8,21.3,24.8,19.1,24.8z"/>
				</g>
				<g id="XMLID_1924_">
					<path id="XMLID_272_" class="st16" d="M28.2,33.9c-2.7,0-4.9-2.2-4.9-4.9s2.2-4.9,4.9-4.9s4.9,2.2,4.9,4.9S30.9,33.9,28.2,33.9
						z M28.2,24.8c-2.2,0-4,1.8-4,4s1.8,4,4,4s4-1.8,4-4C32.2,26.8,30.4,24.8,28.2,24.8z"/>
				</g>
			</g>
			<g id="XMLID_2428_">
				<path id="XMLID_271_" class="st16" d="M23.8,42.3c-0.9,0-1.6-0.4-2-0.9c-0.2-0.2-0.2-0.4,0-0.7c0.2-0.2,0.4-0.2,0.7,0
					s1.3,1.3,2.9,0c0.2-0.2,0.4-0.2,0.7,0s0.2,0.4,0,0.7C25.1,42.1,24.4,42.3,23.8,42.3z"/>
			</g>
		</g>
	</g>
</g>
<g id="XMLID_20_">
	<g>
		<defs>
			<rect id="SVGID_00000056422369863589260260000005550641094565610892_" x="31.7" y="6.6" width="46.1" height="55.4"/>
		</defs>
		<clipPath id="SVGID_00000049938715280310492120000002456678099057576121_">
			<use xlink:href="#SVGID_00000056422369863589260260000005550641094565610892_"  style="overflow:visible;"/>
		</clipPath>
		<g id="XMLID_4133_" style="clip-path:url(#SVGID_00000049938715280310492120000002456678099057576121_);">
			<path id="XMLID_2806_" class="st18" d="M70.6,97.3c0,0-10.4,4.9-17.5,4.9c-5.5,0-17.1-5.3-17.1-5.3l-2-35.7c0-5.5,4.4-10,10-10
				h20.2c5.5,0,8.4,4.4,8.4,10.9L70.6,97.3z"/>
			<path id="XMLID_3485_" class="st6" d="M62.6,44.1"/>
			<path id="XMLID_3484_" class="st6" d="M62.6,44.1"/>
			<path id="XMLID_3483_" class="st1" d="M53.9,55.8L53.9,55.8c-3.3,0-5.8-2.9-5.8-6.2v-8.6c0-1.1,0.9,1.6,1.8,1.6h8.2
				c0.9,0,1.8-2.4,1.8-1.6v8.6C59.9,53.1,57.2,55.8,53.9,55.8z"/>
			<path id="XMLID_3468_" class="st8" d="M47.9,42.9c0,0,1.3,4.4,6,4.4s6.7-4,6.7-4L47.9,42.9z"/>
			<ellipse id="XMLID_3467_" class="st1" cx="66.1" cy="29.6" rx="2" ry="2"/>
			<ellipse id="XMLID_3466_" class="st1" cx="42.8" cy="29.6" rx="2" ry="2"/>
			<path id="XMLID_3465_" class="st1" d="M54.6,46L54.6,46c-6.4,0-11.5-5.1-11.5-11.5V23.2c0-6.4,5.1-11.5,11.5-11.5l0,0
				c6.4,0,11.5,5.1,11.5,11.5v11.3C66.1,40.7,61,46,54.6,46z"/>
			<g id="XMLID_1451_">
				<g>
					<defs>
						<path id="SVGID_00000145039069941808452520000007715571009728585117_" d="M54.6,46L54.6,46c-6.4,0-11.5-5.1-11.5-11.5V23.2
							c0-6.4,5.1-11.5,11.5-11.5l0,0c6.4,0,11.5,5.1,11.5,11.5v11.3C66.1,40.7,61,46,54.6,46z"/>
					</defs>
					<clipPath id="SVGID_00000140733379957060881170000016427268648766715297_">
						<use xlink:href="#SVGID_00000145039069941808452520000007715571009728585117_"  style="overflow:visible;"/>
					</clipPath>
					
						<path id="XMLID_3464_" style="clip-path:url(#SVGID_00000140733379957060881170000016427268648766715297_);fill:none;stroke:#8D65FD;stroke-miterlimit:10;" d="
						M47.7,38.7"/>
				</g>
				<g>
					<defs>
						<path id="SVGID_00000127760124671539413370000012767189568859620501_" d="M54.6,46L54.6,46c-6.4,0-11.5-5.1-11.5-11.5V23.2
							c0-6.4,5.1-11.5,11.5-11.5l0,0c6.4,0,11.5,5.1,11.5,11.5v11.3C66.1,40.7,61,46,54.6,46z"/>
					</defs>
					<clipPath id="SVGID_00000113342517112243796110000012696396999869240991_">
						<use xlink:href="#SVGID_00000127760124671539413370000012767189568859620501_"  style="overflow:visible;"/>
					</clipPath>
					
						<line id="XMLID_1923_" style="clip-path:url(#SVGID_00000113342517112243796110000012696396999869240991_);fill:none;stroke:#F55C63;stroke-miterlimit:10;" x1="65.2" y1="46.3" x2="65.2" y2="21.9"/>
				</g>
				<g>
					<defs>
						<path id="SVGID_00000079455940892965431320000012947845563198753204_" d="M54.6,46L54.6,46c-6.4,0-11.5-5.1-11.5-11.5V23.2
							c0-6.4,5.1-11.5,11.5-11.5l0,0c6.4,0,11.5,5.1,11.5,11.5v11.3C66.1,40.7,61,46,54.6,46z"/>
					</defs>
					<clipPath id="SVGID_00000068670533862957156650000013542530163766124451_">
						<use xlink:href="#SVGID_00000079455940892965431320000012947845563198753204_"  style="overflow:visible;"/>
					</clipPath>
					
						<polyline id="XMLID_1916_" style="clip-path:url(#SVGID_00000068670533862957156650000013542530163766124451_);fill:none;stroke:#F55C63;stroke-miterlimit:10;" points="
						43.7,19.7 43.9,34.3 43.9,44.1 					"/>
				</g>
				<g>
					<defs>
						<path id="SVGID_00000174596846758279584990000007777581543752447909_" d="M54.6,46L54.6,46c-6.4,0-11.5-5.1-11.5-11.5V23.2
							c0-6.4,5.1-11.5,11.5-11.5l0,0c6.4,0,11.5,5.1,11.5,11.5v11.3C66.1,40.7,61,46,54.6,46z"/>
					</defs>
					<clipPath id="SVGID_00000115495458319861280600000000239209455983445171_">
						<use xlink:href="#SVGID_00000174596846758279584990000007777581543752447909_"  style="overflow:visible;"/>
					</clipPath>
					<path id="XMLID_1493_" style="clip-path:url(#SVGID_00000115495458319861280600000000239209455983445171_);fill:#F55C63;" d="
						M64.7,31.3c0,2.5-1.8,4.3-4.3,4.3l-11.7,0.2c-2.5,0-4.3-1.8-4.3-4.3l0.2,15.6L65,46.6L64.7,31.3z"/>
				</g>
				<g>
					<defs>
						<path id="SVGID_00000117672143453855008540000015891692157974958742_" d="M54.6,46L54.6,46c-6.4,0-11.5-5.1-11.5-11.5V23.2
							c0-6.4,5.1-11.5,11.5-11.5l0,0c6.4,0,11.5,5.1,11.5,11.5v11.3C66.1,40.7,61,46,54.6,46z"/>
					</defs>
					<clipPath id="SVGID_00000096026952008226173410000001836189685389914518_">
						<use xlink:href="#SVGID_00000117672143453855008540000015891692157974958742_"  style="overflow:visible;"/>
					</clipPath>
					<g id="XMLID_1453_" style="clip-path:url(#SVGID_00000096026952008226173410000001836189685389914518_);">
						<g id="XMLID_110_">
							<rect id="XMLID_112_" x="42.8" y="36.1" class="st3" width="23.9" height="9.5"/>
							<rect id="XMLID_111_" x="44.2" y="35.2" class="st3" width="0.9" height="0.9"/>
						</g>
					</g>
				</g>
				<g>
					<defs>
						<path id="SVGID_00000175293405283751063650000012919067757670960769_" d="M54.6,46L54.6,46c-6.4,0-11.5-5.1-11.5-11.5V23.2
							c0-6.4,5.1-11.5,11.5-11.5l0,0c6.4,0,11.5,5.1,11.5,11.5v11.3C66.1,40.7,61,46,54.6,46z"/>
					</defs>
					<clipPath id="SVGID_00000107569926012977894360000004945910428909921440_">
						<use xlink:href="#SVGID_00000175293405283751063650000012919067757670960769_"  style="overflow:visible;"/>
					</clipPath>
					
						<path id="XMLID_336_" style="clip-path:url(#SVGID_00000107569926012977894360000004945910428909921440_);fill:none;stroke:#F55C63;stroke-miterlimit:10;" d="
						M43.7,19.7"/>
				</g>
				<g>
					<defs>
						<path id="SVGID_00000008871330858866364500000014535116580349893277_" d="M54.6,46L54.6,46c-6.4,0-11.5-5.1-11.5-11.5V23.2
							c0-6.4,5.1-11.5,11.5-11.5l0,0c6.4,0,11.5,5.1,11.5,11.5v11.3C66.1,40.7,61,46,54.6,46z"/>
					</defs>
					<clipPath id="SVGID_00000098928427167642386030000014203578568237861507_">
						<use xlink:href="#SVGID_00000008871330858866364500000014535116580349893277_"  style="overflow:visible;"/>
					</clipPath>
					
						<path id="XMLID_337_" style="clip-path:url(#SVGID_00000098928427167642386030000014203578568237861507_);fill:none;stroke:#F55C63;stroke-width:2;stroke-miterlimit:10;" d="
						M54.6,46L54.6,46c-6.4,0-11.5-5.1-11.5-11.5V23.2c0-6.4,5.1-11.5,11.5-11.5l0,0c6.4,0,11.5,5.1,11.5,11.5v11.3
						C66.1,40.7,61,46,54.6,46z"/>
				</g>
			</g>
			<path id="XMLID_35_" class="st26" d="M52.8,39.8c0,0,1.6,1.8,3.5,0"/>
			<path id="XMLID_335_" class="st3" d="M46.4,15.3c0,0,0.9,3.5,6.2,3.5s10.6-3.1,10.6-3.1s-6.4-3.8-9.3-3.8
				C50.6,11.9,46.4,15.3,46.4,15.3z"/>
			<rect id="XMLID_2973_" x="47.9" y="49.8" class="st18" width="12" height="6.7"/>
			<rect id="XMLID_2974_" x="47.5" y="48.3" class="st27" width="12.9" height="2.9"/>
		</g>
	</g>
</g>
</svg>
