<?xml version="1.0" encoding="utf-8"?>
<!-- Generator: Adobe Illustrator 26.5.0, SVG Export Plug-In . SVG Version: 6.00 Build 0)  -->
<svg version="1.1" id="Capa_1" xmlns="http://www.w3.org/2000/svg" xmlns:xlink="http://www.w3.org/1999/xlink" x="0px" y="0px"
	 width="63px" height="63px" viewBox="0 0 63 63" style="enable-background:new 0 0 63 63;" xml:space="preserve">
<style type="text/css">
	.st0{fill:#FD5B5F;}
	.st1{fill:#FFDA84;}
	.st2{clip-path:url(#SVGID_00000183947957159213604700000009203484263731438010_);}
	.st3{fill:#F4AAA0;}
	.st4{fill:#342F45;}
	.st5{fill:#F55C63;}
	.st6{fill:#EBF1FF;}
	.st7{fill:#003883;}
	.st8{fill:#2D32DB;}
	.st9{fill:#3860FF;}
	.st10{fill:#FF988D;}
	.st11{clip-path:url(#SVGID_00000126318130668957459950000008464949384184613010_);}
	.st12{fill:none;stroke:#8D65FD;stroke-miterlimit:10;}
	.st13{clip-path:url(#SVGID_00000094590647070065987670000000418567624245137546_);}
	.st14{clip-path:url(#SVGID_00000121261956084520548720000013299057255055506310_);}
	.st15{clip-path:url(#SVGID_00000088125320446252523380000001330989026260164749_);}
	.st16{clip-path:url(#SVGID_00000075865245844067670550000006980567480209772423_);}
	.st17{fill:#FCF3E2;}
	.st18{clip-path:url(#SVGID_00000073695527006513615760000007319774074234049157_);}
	.st19{fill:none;}
	.st20{clip-path:url(#SVGID_00000003797234131365710280000005828154200309907111_);}
	.st21{clip-path:url(#SVGID_00000079450745730158474700000002234884861253262754_);}
</style>
<circle id="XMLID_547_" class="st0" cx="9.6" cy="43.7" r="1.2"/>
<circle id="XMLID_546_" class="st1" cx="53.9" cy="24.4" r="1.1"/>
<circle id="XMLID_545_" class="st1" cx="9.1" cy="11" r="1.2"/>
<g id="XMLID_57_">
	<g>
		<defs>
			<rect id="SVGID_1_" x="5.5" y="0" width="52.8" height="63"/>
		</defs>
		<clipPath id="SVGID_00000027570090189637363080000001955122530285274295_">
			<use xlink:href="#SVGID_1_"  style="overflow:visible;"/>
		</clipPath>
		<g id="XMLID_3463_" style="clip-path:url(#SVGID_00000027570090189637363080000001955122530285274295_);">
			<g id="XMLID_305_">
				
					<rect id="XMLID_3053_" x="14.9" y="212.4" transform="matrix(2.587566e-02 -0.9997 0.9997 2.587566e-02 -196.2588 230.8111)" class="st3" width="10.8" height="7.4"/>
			</g>
			<g id="XMLID_276_">
				<polyline id="XMLID_3302_" class="st4" points="24.3,216.1 16.3,216.1 15.9,122.1 30.3,122.9 				"/>
			</g>
			<g id="XMLID_265_">
				<g id="XMLID_274_">
					<path id="XMLID_3301_" class="st5" d="M24.2,221.2v5.1H2.8v-0.8c0-2.4,1.9-4.3,4.3-4.3h9.3H24.2z"/>
				</g>
				<g id="XMLID_273_">
					<rect id="XMLID_3300_" x="2.8" y="226.3" class="st5" width="21.4" height="2.4"/>
				</g>
			</g>
			<g id="XMLID_266_">
				
					<rect id="XMLID_3049_" x="39.4" y="210.7" transform="matrix(0.9997 -2.610447e-02 2.610447e-02 0.9997 -5.6276 1.1975)" class="st3" width="7.4" height="10.8"/>
			</g>
			<g id="XMLID_253_">
				<polyline id="XMLID_3297_" class="st4" points="39,216.1 47.1,216.1 47.5,122.1 33.1,122.9 				"/>
			</g>
			<g id="XMLID_1774_">
				<path id="XMLID_3291_" class="st6" d="M46.4,126.3H15.9c-3.4,0-6.1-2.6-6.1-5.9L7.5,59.8c0-3.3,6.7-9.7,10.1-9.7h27
					c3.4,0,10.1,6.4,10.1,9.7l-2.3,60.6C52.5,123.7,49.8,126.3,46.4,126.3z"/>
			</g>
			<g id="XMLID_2821_">
				<path id="XMLID_3290_" class="st7" d="M49.9,120.8h-8.4V50.2h5.4c5,0,9,4,9,9v55.5C56,118.1,53.3,120.8,49.9,120.8z"/>
			</g>
			<g id="XMLID_1893_">
				<path id="XMLID_3280_" class="st7" d="M14.1,120.8h8.8V50.2h-5.7c-5.1,0-9.1,4.1-9.1,9.1v55.3C8,118,10.7,120.8,14.1,120.8z"/>
			</g>
			<g id="XMLID_1951_">
				<path id="XMLID_2887_" class="st8" d="M41.4,43.2"/>
			</g>
			<g id="XMLID_1630_">
				<path id="XMLID_2865_" class="st8" d="M41.4,43.2"/>
			</g>
			<g id="XMLID_1362_">
				<path id="XMLID_3231_" class="st3" d="M32,56.4L32,56.4c-3.6,0-6.5-3.1-6.5-6.8v-5.8c0-1.1,0.9-2.1,2-2.1h9c1.1,0,2,0.9,2,2.1
					v5.8C38.4,53.3,35.6,56.4,32,56.4z"/>
			</g>
			<g id="XMLID_172_">
				<circle id="XMLID_3230_" class="st3" cx="51.2" cy="102.8" r="5"/>
			</g>
			<g id="XMLID_2860_">
				<path id="XMLID_3229_" class="st9" d="M50.7,109l-6-4.9c-0.6-0.5-0.7-1.4-0.2-2l0.2-0.2c0.5-0.6,1.4-0.7,2-0.2l6,4.9
					c0.6,0.5,0.7,1.4,0.2,2l-0.2,0.2C52.2,109.4,51.3,109.5,50.7,109z"/>
			</g>
			<g id="XMLID_169_">
				<circle id="XMLID_3228_" class="st3" cx="12.2" cy="102.6" r="5"/>
			</g>
			<g id="XMLID_37_">
				<path id="XMLID_3227_" class="st9" d="M12.3,108.8l6-4.9c0.6-0.5,0.7-1.4,0.2-2l-0.2-0.2c-0.5-0.6-1.4-0.7-2-0.2l-6,4.9
					c-0.6,0.5-0.7,1.4-0.2,2l0.2,0.2C10.8,109.2,11.7,109.3,12.3,108.8z"/>
			</g>
			<g id="XMLID_264_">
				<g id="XMLID_2701_">
					<path id="XMLID_3226_" class="st5" d="M39.2,221.2v5.1h21.4v-0.8c0-2.4-1.9-4.3-4.3-4.3H47H39.2z"/>
				</g>
				<g id="XMLID_2427_">
					<rect id="XMLID_3225_" x="39.2" y="226.3" class="st5" width="21.4" height="2.4"/>
				</g>
			</g>
			<g id="XMLID_2597_">
				<path id="XMLID_3224_" class="st10" d="M25.3,42.6c0,0,1.4,4.9,6.5,4.9s7.2-4.4,7.2-4.4L25.3,42.6z"/>
			</g>
			<g id="XMLID_925_">
				<ellipse id="XMLID_3213_" class="st3" cx="45.4" cy="25.6" rx="2.1" ry="2.3"/>
			</g>
			<g id="XMLID_307_">
				<ellipse id="XMLID_3212_" class="st3" cx="19.6" cy="25.6" rx="2.1" ry="2.3"/>
			</g>
			<g id="XMLID_306_">
				<path id="XMLID_3211_" class="st3" d="M33.6,45.4h-2c-6.4,0-11.7-5.2-11.7-11.7V19.3c0-6.4,5.2-11.7,11.7-11.7h2
					c6.4,0,11.7,5.2,11.7,11.7v14.4C45.3,40.2,40,45.4,33.6,45.4z"/>
			</g>
			<g id="XMLID_326_">
				<g>
					<defs>
						<path id="SVGID_00000165919383530467235280000015882892649813811358_" d="M32.6,45.4L32.6,45.4c-7,0-12.7-5.7-12.7-12.7V20.3
							c0-7,5.7-12.7,12.7-12.7l0,0c7,0,12.7,5.7,12.7,12.7v12.4C45.3,39.8,39.6,45.4,32.6,45.4z"/>
					</defs>
					<clipPath id="SVGID_00000046337533519836684180000005360248614143697555_">
						<use xlink:href="#SVGID_00000165919383530467235280000015882892649813811358_"  style="overflow:visible;"/>
					</clipPath>
					<g id="XMLID_2593_" style="clip-path:url(#SVGID_00000046337533519836684180000005360248614143697555_);">
						<path id="XMLID_3209_" class="st12" d="M25.1,37.4"/>
					</g>
				</g>
				<g>
					<defs>
						<path id="SVGID_00000154392949559367740880000011166433809934344837_" d="M32.6,45.4L32.6,45.4c-7,0-12.7-5.7-12.7-12.7V20.3
							c0-7,5.7-12.7,12.7-12.7l0,0c7,0,12.7,5.7,12.7,12.7v12.4C45.3,39.8,39.6,45.4,32.6,45.4z"/>
					</defs>
					<clipPath id="SVGID_00000155122488363289173120000001487057549759196587_">
						<use xlink:href="#SVGID_00000154392949559367740880000011166433809934344837_"  style="overflow:visible;"/>
					</clipPath>
					<g id="XMLID_2592_" style="clip-path:url(#SVGID_00000155122488363289173120000001487057549759196587_);">
						<rect id="XMLID_2871_" x="43.5" y="18.9" class="st5" width="1.8" height="26.9"/>
					</g>
				</g>
				<g>
					<defs>
						<path id="SVGID_00000117666000841081648580000011643076128893548168_" d="M32.6,45.4L32.6,45.4c-7,0-12.7-5.7-12.7-12.7V20.3
							c0-7,5.7-12.7,12.7-12.7l0,0c7,0,12.7,5.7,12.7,12.7v12.4C45.3,39.8,39.6,45.4,32.6,45.4z"/>
					</defs>
					<clipPath id="SVGID_00000047039411984136388830000004161157856927464381_">
						<use xlink:href="#SVGID_00000117666000841081648580000011643076128893548168_"  style="overflow:visible;"/>
					</clipPath>
					<g id="XMLID_320_" style="clip-path:url(#SVGID_00000047039411984136388830000004161157856927464381_);">
						<polygon id="XMLID_2870_" class="st5" points="21.7,43.4 19.8,43.4 19.8,32.7 19.7,16.3 21.5,16.3 21.7,32.6 						"/>
					</g>
				</g>
				<g>
					<defs>
						<path id="SVGID_00000142151019668179974050000003003561226793944476_" d="M32.6,45.4L32.6,45.4c-7,0-12.7-5.7-12.7-12.7V20.3
							c0-7,5.7-12.7,12.7-12.7l0,0c7,0,12.7,5.7,12.7,12.7v12.4C45.3,39.8,39.6,45.4,32.6,45.4z"/>
					</defs>
					<clipPath id="SVGID_00000083075473950633778630000014472662468480750724_">
						<use xlink:href="#SVGID_00000142151019668179974050000003003561226793944476_"  style="overflow:visible;"/>
					</clipPath>
					<g id="XMLID_270_" style="clip-path:url(#SVGID_00000083075473950633778630000014472662468480750724_);">
						<path id="XMLID_2863_" class="st5" d="M43.6,29.4c0,2.6-2,4.7-4.6,4.7l-12.6,0.2c-2.6,0-4.7-2-4.7-4.6L22,46.5l22-0.4
							L43.6,29.4z"/>
					</g>
				</g>
				<g>
					<defs>
						<path id="SVGID_00000037661285726056824790000003847905888239377072_" d="M32.6,45.4L32.6,45.4c-7,0-12.7-5.7-12.7-12.7V20.3
							c0-7,5.7-12.7,12.7-12.7l0,0c7,0,12.7,5.7,12.7,12.7v12.4C45.3,39.8,39.6,45.4,32.6,45.4z"/>
					</defs>
					<clipPath id="SVGID_00000052807294061269350260000001817631183838214847_">
						<use xlink:href="#SVGID_00000037661285726056824790000003847905888239377072_"  style="overflow:visible;"/>
					</clipPath>
					<g id="XMLID_268_" style="clip-path:url(#SVGID_00000052807294061269350260000001817631183838214847_);">
						<g id="XMLID_3208_">
							<rect id="XMLID_3054_" x="19.6" y="34.5" class="st5" width="26.5" height="10.6"/>
						</g>
						<g id="XMLID_2772_">
							<rect id="XMLID_2888_" x="21.2" y="33.5" class="st5" width="1" height="1"/>
						</g>
					</g>
				</g>
			</g>
			<g id="XMLID_36_">
				<path id="XMLID_267_" class="st5" d="M40.6,9.1c-0.3,0-0.7,0-1,0.1c-1.3-1.5-3.2-2.5-5.4-2.5c-0.4,0-0.9,0.1-1.3,0.1
					c-1.6-2.9-4.6-5-8.2-5c-5.1,0-9.3,4.1-9.3,9.3c0,5.1,4.1,9.3,9.3,9.3c1.8,0,3.5-0.5,4.9-1.4c1.2,1.1,2.8,1.7,4.6,1.7
					c0.7,0,1.4-0.1,2-0.3c1.2,1.1,2.7,1.7,4.4,1.7c3.6,0,6.5-2.9,6.5-6.5S44.1,9.1,40.6,9.1z"/>
			</g>
			<g id="XMLID_1952_">
				<g id="XMLID_1913_">
					<path id="XMLID_2783_" class="st17" d="M27.4,30.4c-3,0-5.5-2.5-5.5-5.5s2.5-5.5,5.5-5.5s5.5,2.5,5.5,5.5S30.4,30.4,27.4,30.4z
						 M27.4,20.3c-2.5,0-4.6,2.1-4.6,4.6s2.1,4.6,4.6,4.6s4.6-2.1,4.6-4.6C32,22.3,29.9,20.3,27.4,20.3z"/>
				</g>
				<g id="XMLID_1924_">
					<path id="XMLID_272_" class="st17" d="M37.6,30.4c-3,0-5.5-2.5-5.5-5.5s2.5-5.5,5.5-5.5s5.5,2.5,5.5,5.5S40.6,30.4,37.6,30.4z
						 M37.6,20.3c-2.5,0-4.6,2.1-4.6,4.6s2.1,4.6,4.6,4.6s4.6-2.1,4.6-4.6C42.2,22.3,40.1,20.3,37.6,20.3z"/>
				</g>
			</g>
			<g id="XMLID_2428_">
				<path id="XMLID_271_" class="st17" d="M32.6,39.9c-1,0-1.8-0.5-2.3-1c-0.2-0.2-0.2-0.5,0-0.6c0.2-0.2,0.5-0.2,0.6,0
					c0.2,0.2,1.6,1.5,3.2,0c0.2-0.2,0.5-0.2,0.6,0c0.2,0.2,0.2,0.5,0,0.7C34.1,39.6,33.3,39.9,32.6,39.9z"/>
			</g>
		</g>
	</g>
	<g>
		<defs>
			<rect id="SVGID_00000006704962983638409410000006231778005296947090_" x="5.5" y="0" width="52.8" height="63"/>
		</defs>
		<clipPath id="SVGID_00000137091033216271792400000010196690198127273098_">
			<use xlink:href="#SVGID_00000006704962983638409410000006231778005296947090_"  style="overflow:visible;"/>
		</clipPath>
		<g id="XMLID_517_" style="clip-path:url(#SVGID_00000137091033216271792400000010196690198127273098_);">
			<rect id="XMLID_530_" x="7.1" y="1" class="st19" width="50.7" height="61.7"/>
		</g>
	</g>
	<g>
		<defs>
			<rect id="SVGID_00000083807782656574610610000005498280551930857351_" x="5.5" y="0" width="52.8" height="63"/>
		</defs>
		<clipPath id="SVGID_00000053507449067874743050000015220058844770650297_">
			<use xlink:href="#SVGID_00000083807782656574610610000005498280551930857351_"  style="overflow:visible;"/>
		</clipPath>
		<g id="XMLID_511_" style="clip-path:url(#SVGID_00000053507449067874743050000015220058844770650297_);">
			<rect id="XMLID_525_" x="7.1" y="1" class="st19" width="50.7" height="61.7"/>
		</g>
	</g>
	<g>
		<defs>
			<rect id="SVGID_00000168811999151517168620000006196383098122206888_" x="5.5" y="0" width="52.8" height="63"/>
		</defs>
		<clipPath id="SVGID_00000170249402064332732870000001175417442476821134_">
			<use xlink:href="#SVGID_00000168811999151517168620000006196383098122206888_"  style="overflow:visible;"/>
		</clipPath>
		<g id="XMLID_508_" style="clip-path:url(#SVGID_00000170249402064332732870000001175417442476821134_);">
			<rect id="XMLID_522_" x="7.1" y="1" class="st19" width="50.7" height="61.7"/>
		</g>
	</g>
</g>
</svg>
