<?xml version="1.0" encoding="utf-8"?>
<!-- Generator: Adobe Illustrator 26.5.0, SVG Export Plug-In . SVG Version: 6.00 Build 0)  -->
<svg version="1.1" id="Capa_1" xmlns="http://www.w3.org/2000/svg" xmlns:xlink="http://www.w3.org/1999/xlink" x="0px" y="0px"
	 width="63px" height="63px" viewBox="0 0 63 63" style="enable-background:new 0 0 63 63;" xml:space="preserve">
<style type="text/css">
	.st0{fill:#F9F9F9;}
	.st1{fill:#FCF3E2;}
	.st2{fill:#C0EEDD;}
	.st3{fill:#38333A;}
	.st4{fill:#FD5B5F;}
	.st5{fill:none;stroke:#FFFFFF;stroke-width:3;stroke-linecap:round;stroke-linejoin:round;stroke-miterlimit:10;}
	.st6{fill:#FFDA84;}
	.st7{clip-path:url(#SVGID_00000170274170720882046180000010616681891099369859_);fill:#FFDA84;}
</style>
<path id="XMLID_441_" class="st0" d="M0,62.9L0,62.9C0,49,11.2,37.7,25.2,37.7c13.9,0,25.2,11.3,25.2,25.2H0L0,62.9L0,62.9z"/>
<path id="XMLID_487_" class="st1" d="M55.6,63H11V2.9h40c2.6,0,4.6,2.1,4.6,4.6V63z"/>
<g id="XMLID_655_">
	<path id="XMLID_555_" class="st2" d="M54.2,50.2c1.4,2.6,0.7,5.7,0.7,5.7s-3-1.1-4.4-3.7c-1.4-2.6-0.7-5.7-0.7-5.7
		S52.8,47.6,54.2,50.2z"/>
	<path id="XMLID_207_" class="st2" d="M61,47.5c-1,4.8-5.1,8-5.1,8s-2.6-4.6-1.6-9.4s5.1-8,5.1-8S62,42.7,61,47.5z"/>
	<path id="XMLID_206_" class="st3" d="M49.4,55.2l2,6.7c0.2,0.5,0.7,0.9,1.2,0.9h5.2c0.6,0,1.1-0.4,1.2-1l1.5-6.8
		c0.2-1-0.5-1.9-1.5-1.8h-8.1C49.8,53.2,49.1,54.2,49.4,55.2z"/>
</g>
<circle id="XMLID_403_" class="st4" cx="18.2" cy="25.2" r="15.3"/>
<polyline id="XMLID_724_" class="st5" points="12.1,25.5 16.2,30.2 23.8,20.9 "/>
<path id="XMLID_739_" class="st6" d="M40.8,44.5H24.7c-1.1,0-2,0.9-2,2l0,0c0,1.1,0.9,2,2,2h16.1c1.1,0,2-0.9,2-2l0,0
	C42.8,45.4,41.9,44.5,40.8,44.5z"/>
<path id="XMLID_738_" class="st6" d="M40.8,51.6H24.7c-1.1,0-2,0.9-2,2l0,0c0,1.1,0.9,2,2,2h16.1c1.1,0,2-0.9,2-2l0,0
	C42.8,52.5,41.9,51.6,40.8,51.6z"/>
<g id="XMLID_129_">
	<g>
		<defs>
			<path id="SVGID_1_" d="M55.6,63H11V2.9h40c2.6,0,4.6,2.1,4.6,4.6V63z"/>
		</defs>
		<clipPath id="SVGID_00000136408936441371885420000009481501696223656330_">
			<use xlink:href="#SVGID_1_"  style="overflow:visible;"/>
		</clipPath>
		
			<rect id="XMLID_347_" x="11" y="1.8" style="clip-path:url(#SVGID_00000136408936441371885420000009481501696223656330_);fill:#FFDA84;" width="44.6" height="5"/>
	</g>
</g>
<circle id="XMLID_35_" class="st6" cx="4.6" cy="6.6" r="1.1"/>
<circle id="XMLID_328_" class="st6" cx="59.1" cy="26.3" r="1.1"/>
</svg>
