<?xml version="1.0" encoding="utf-8"?>
<!-- Generator: Adobe Illustrator 26.5.0, SVG Export Plug-In . SVG Version: 6.00 Build 0)  -->
<svg version="1.1" id="Capa_1" xmlns="http://www.w3.org/2000/svg" xmlns:xlink="http://www.w3.org/1999/xlink" x="0px" y="0px"
	 width="63px" height="63px" viewBox="0 0 63 63" style="enable-background:new 0 0 63 63;" xml:space="preserve">
<style type="text/css">
	.st0{fill:#F4AAA0;}
	.st1{fill:#39363C;}
	.st2{fill:#FCF3E2;}
	.st3{fill:#FD5B5F;}
	.st4{fill:#FFDA84;}
	.st5{fill:#C0EEDD;}
	.st6{fill:#FFFFFF;}
	.st7{fill:#FC5C63;}
</style>
<g id="XMLID_35_">
	<g id="XMLID_234_">
		<g id="XMLID_242_">
			<path id="XMLID_243_" class="st0" d="M22.6,50.6c-1,0.3-1.9,0.2-2.8-0.5l-5.5-4c-1.3-1-1.6-2.9-0.6-4.4c1-1.3,2.9-1.6,4.4-0.6
				l5.5,4c1.3,1,1.6,2.9,0.6,4.4C23.7,50.1,23.3,50.4,22.6,50.6z"/>
		</g>
		<g id="XMLID_240_">
			<path id="XMLID_241_" class="st0" d="M21.6,42.3c-1,0.3-1.9,0.2-2.8-0.5l-5.5-4c-1.3-1-1.6-2.9-0.6-4.4c1-1.3,2.9-1.6,4.4-0.6
				l5.5,4c1.3,1,1.6,2.9,0.6,4.4C22.8,41.7,22.1,42.1,21.6,42.3z"/>
		</g>
		<g id="XMLID_237_">
			<path id="XMLID_239_" class="st0" d="M21.8,35.3c-1,0.3-1.9,0.2-2.8-0.5l-5.5-4c-1.3-1-1.6-2.9-0.6-4.4c1-1.3,2.9-1.6,4.4-0.6
				l5.3,4c1.3,1,1.6,2.9,0.6,4.4C22.9,34.9,22.4,35.2,21.8,35.3z"/>
		</g>
		<g id="XMLID_235_">
			<path id="XMLID_236_" class="st0" d="M22.3,26.8c-1,0.3-1.9,0.2-2.8-0.5l-5.5-4c-1.3-1-1.6-2.9-0.6-4.4c1-1.3,2.9-1.6,4.4-0.6
				l5.5,4c1.3,1,1.6,2.9,0.6,4.4C23.4,26.3,22.8,26.6,22.3,26.8z"/>
		</g>
	</g>
	<circle id="XMLID_233_" class="st0" cx="38.9" cy="44.9" r="18.1"/>
	<path id="XMLID_232_" class="st1" d="M46.5,16h-0.3V7.3c0-2.8-2.3-5-5-5H22.7c-2.8,0-5,2.3-5,5l0,0V55c0,2.8,2.3,5,5,5h18.4
		c2.8,0,5-2.3,5-5l0,0V22.2h0.3L46.5,16z"/>
	<path id="XMLID_231_" class="st2" d="M41.3,3.6h-2.4c0.4,0.9-0.1,2-1,2.3C37.7,6,37.5,6,37.3,6H26.7c-1,0-1.8-0.8-1.8-1.8
		c0-0.2,0-0.5,0.1-0.7h-2.2c-2.1,0-3.8,1.7-3.8,3.7v47.6c0,2.1,1.7,3.8,3.8,3.8h18.5c2.1,0,3.8-1.7,3.8-3.8l0,0l0,0V7.3
		C45.1,5.3,43.4,3.6,41.3,3.6z"/>
	<circle id="XMLID_230_" class="st1" cx="32.3" cy="53.8" r="2.3"/>
	<circle id="XMLID_229_" class="st3" cx="9.5" cy="52.7" r="1.1"/>
	<circle id="XMLID_228_" class="st3" cx="53.1" cy="18.5" r="1.1"/>
	<circle id="XMLID_227_" class="st4" cx="7" cy="5.5" r="1.1"/>
	<g id="XMLID_225_">
		<path id="XMLID_226_" class="st0" d="M50.9,39.6c-1-0.1-1.7-0.7-2.3-1.5l-5.8-10l-8-1.1c-1.8-0.2-2.8-1.9-2.6-3.5s1.9-2.8,3.5-2.6
			l9.5,1.3c1,0.1,1.9,0.7,2.3,1.5L54,34.9c0.8,1.4,0.4,3.3-1.1,4.3C52.4,39.6,51.6,39.7,50.9,39.6z"/>
	</g>
	<circle id="XMLID_218_" class="st5" cx="41.3" cy="45.5" r="2.1"/>
	<path id="XMLID_217_" class="st6" d="M29.2,46.8c-4.7,0-8.5-3.8-8.5-8.6c0-4.7,3.8-8.5,8.6-8.5s8.5,3.8,8.5,8.6
		c0,2.1-0.8,4.2-2.2,5.8l1.8,2l-0.9,0.4c-1.4,0.6-2.7,0-3.5-0.4C31.8,46.6,30.5,46.8,29.2,46.8z"/>
	<g id="XMLID_214_">
		<path id="XMLID_216_" class="st5" d="M29.4,35.2h-3.9c-0.5,0-1,0.4-1,1l0,0c0,0.5,0.4,1,1,1h3.9c0.5,0,1-0.4,1-1l0,0
			C30.3,35.6,29.9,35.2,29.4,35.2z"/>
		<path id="XMLID_215_" class="st5" d="M33.2,39.1h-7.7c-0.5,0-1,0.4-1,1l0,0c0,0.5,0.4,1,1,1h7.7c0.5,0,1-0.4,1-1l0,0
			C34.2,39.5,33.7,39.1,33.2,39.1z"/>
	</g>
	<path id="XMLID_248_" class="st7" d="M17.1,25.8C11.5,25.8,7,21.2,7,15.6S11.5,5.5,17.1,5.5s10.1,4.6,10.1,10.2
		c0,2.5-0.9,5-2.7,6.8l2.1,2.4l-1.1,0.4c-1.6,0.7-3.2,0-4.1-0.5C20.1,25.4,18.6,25.8,17.1,25.8z"/>
	<g id="XMLID_249_">
		<path id="XMLID_251_" class="st2" d="M17.2,12.7h-3.9c-0.5,0-1,0.4-1,1l0,0c0,0.5,0.4,1,1,1h3.9c0.5,0,1-0.4,1-1l0,0
			C18.1,13.1,17.7,12.7,17.2,12.7z"/>
		<path id="XMLID_250_" class="st2" d="M21,16.6h-7.7c-0.5,0-1,0.4-1,1l0,0c0,0.5,0.4,1,1,1H21c0.5,0,1-0.4,1-1l0,0
			C22,17,21.5,16.6,21,16.6z"/>
	</g>
</g>
</svg>
