<?xml version="1.0" encoding="utf-8"?>
<!-- Generator: Adobe Illustrator 19.0.0, SVG Export Plug-In . SVG Version: 6.00 Build 0)  -->
<svg version="1.1" id="Capa_1" xmlns="http://www.w3.org/2000/svg" xmlns:xlink="http://www.w3.org/1999/xlink" x="0px" y="0px"
	 width="127px" height="36.7px" viewBox="-445.1 273.3 127 36.7" style="enable-background:new -445.1 273.3 127 36.7;"
	 xml:space="preserve">
<style type="text/css">
	.st0{fill:#009380;}
	.st1{fill:#005591;}
</style>
<g id="XMLID_2203_">
	<g id="XMLID_2216_">
		<g id="XMLID_2265_">
			<polygon id="XMLID_2268_" class="st0" points="-399.2,300 -337.8,300 -337.8,300 			"/>
			<rect id="XMLID_2266_" x="-399.2" y="299.8" class="st0" width="61.4" height="0.3"/>
		</g>
		<path id="XMLID_2263_" class="st1" d="M-402.1,281.4L-402.1,281.4c-1.1-1.2-3-1.6-4.6-1.6c-3.9,0-6.9,2.7-6.9,6.9
			c0,4.2,3.2,7.4,7.2,7.4c1.2,0,2.4-0.2,3.5-0.5l0-3.8c0-1.2,0-2.5-1.2-2.9v-0.1l3.8,0v0.1c-0.1,0.3-0.1,0.7-0.1,1.1l0,6
			c0,0.4,0,0.8,0.1,1.2c-2,0.4-4,0.8-6,0.8c-6.4,0-10.2-3.6-10.2-8.9c0-5.6,4.3-9.1,10.4-9.1c1.3,0,2.6,0.2,4,0.4L-402.1,281.4z"/>
		<path id="XMLID_2260_" class="st1" d="M-393.7,289.1l-1.3,3.7c-0.5,1.5-0.7,2.2,0.5,2.7v0.1l-4.6,0v-0.1c1.5-0.7,1.9-2.2,2.4-3.7
			l4.2-10.9c0.4-1,0.8-2-0.4-2.4v-0.1l4,0l5.2,13.4c0.6,1.5,1,3,2.5,3.7v0.1l-5.2,0v-0.1c1.2-0.6,1-0.9,0.3-2.7l-1.4-3.7
			L-393.7,289.1z M-390.5,280.6l-2.5,6.6h5L-390.5,280.6z"/>
		<path id="XMLID_2255_" class="st1" d="M-372.7,293.7c1.7,0.1,3.2-0.5,4.5-1.6h0.1l-1.3,3.5h-10.3v-0.1c1.3-0.5,1.1-2.4,1.1-3.6
			l0-9.8c0-1.2,0.1-3.1-1.1-3.6v-0.1h4.8v0.1c-1.3,0.5-1.1,2.4-1.1,3.6l0,11.4L-372.7,293.7z"/>
		<path id="XMLID_2253_" class="st1" d="M-363.6,293.4l3.2,0.3c1.7,0.2,3.4-0.4,4.7-1.5h0.1l-1.1,3.4l-10.5,0v-0.1
			c1.3-0.5,1.1-2.4,1.1-3.6l0-9.8c0-1.2,0.1-3.1-1.1-3.6v-0.1l8.1,0c0.4,0,0.9,0,1.2-0.1h0.1l0,3h-0.1c-0.8-0.9-1.8-1-3-1
			c-0.9,0-1.8,0-2.6,0.2l0,4.9h3c0.4,0,0.8,0,1.1-0.2h0.1l0,2.8h-0.1c-0.4-0.8-1.5-0.7-2.2-0.7h-1.9L-363.6,293.4z"/>
		<path id="XMLID_2240_" class="st1" d="M-351.4,292.1c0,1.5,0,2.5,1.3,3.3v0.1l-4.4,0v-0.1c1.3-0.8,1.3-1.9,1.3-3.3l0-10.4
			c0-1.5,0-2.5-1.3-3.3v-0.1l3.7,0v0c0.1,0.3,0.2,0.4,0.4,0.6l0.4,0.5l9.2,12.1l0-9.9c0-1.5,0-2.5-1.3-3.3v-0.1h4.4v0.1
			c-1.3,0.8-1.3,1.8-1.3,3.3l0,14.7c-1.8-0.6-2.6-1.5-3.7-3l-8.6-11.4L-351.4,292.1z"/>
		<path id="XMLID_2228_" class="st1" d="M-319.2,286.6c0.1,5.3-3.9,9.3-8.7,9.3c-4.7,0-8.8-3.6-8.8-9c-0.1-5,3.8-9.2,8.9-9.1
			C-322.8,277.8-319.2,281.9-319.2,286.6 M-334,286.7c0,3.7,2.4,7.4,6.2,7.3c3.6,0,5.9-3,5.9-6.9c0-3.8-2.3-7.5-6.1-7.4
			C-331.7,279.8-334,282.8-334,286.7"/>
		<g id="XMLID_2217_">
			<path id="XMLID_2227_" class="st0" d="M-429.5,277.5c0,0-3.7-3.8-8,2.5c-4.3,6.3-3.1,10.6-3.1,10.6s3.1,2.4,3.2,1.3
				c0.1-1.1-0.1-9.6,6.6-12.8C-430.9,279-428.5,278.2-429.5,277.5z"/>
			<path id="XMLID_2226_" class="st0" d="M-440.1,295.5l2.1,1c0,0,0.8,0.3,0.9,0.7c0.1,0.4,0.1,1.3-0.7,0.9
				C-438.6,297.5-440.5,296-440.1,295.5z"/>
			<path id="XMLID_2224_" class="st0" d="M-434.4,299.7c0,0,4,3.6,7.9-3c3.9-6.6,2.4-10.8,2.4-10.8s-3.3-2.2-3.2-1
				c0,1.1,0.7,9.6-5.7,13.3C-433.2,298.1-435.5,299.1-434.4,299.7z"/>
			<path id="XMLID_2223_" class="st0" d="M-427.3,278.7c0.9,0.4,2.3,1.7,2,2.3l-1.7-0.8"/>
			<path id="XMLID_2222_" class="st1" d="M-434.7,283.3c0,0,2.4-3.7,3.9-3.4c1.5,0.3,9.1,1.3,9.2,6.5c0,0-0.4,0.2-0.9-0.4
				c-0.5-0.7-6.5-4-11.5-2.3C-433.9,283.7-435.2,284-434.7,283.3z"/>
			<path id="XMLID_2220_" class="st1" d="M-441.2,285.9c0,0,1-2.9,1.7-4.1c0.7-1.3-0.6-0.7-0.6-0.7s-3.5,1.9-3.8,5
				c-0.3,3.1,0.6,2.8,1.1,2.1C-442.3,287.3-441.3,286.3-441.2,285.9z"/>
			<path id="XMLID_2219_" class="st1" d="M-429.7,293.6c0,0-2.2,3.7-3.7,3.4c-1.5-0.3-9.1-1.3-9.2-6.5c0,0,0.4-0.2,0.9,0.4
				c0.5,0.7,6.4,4,11.3,2.3C-430.5,293.3-429.2,292.9-429.7,293.6z"/>
			<path id="XMLID_2218_" class="st1" d="M-423.7,291.4c0,0-0.6,2.4-1.2,3.7s0.4,0.5,0.4,0.5s3.8-1.5,4.1-4.7
				c0.3-3.1-0.8-2.8-1.1-2.1C-421.8,289.8-423.5,291-423.7,291.4z"/>
		</g>
	</g>
	<g id="XMLID_2204_">
		<path id="XMLID_2215_" class="st0" d="M-398.4,306.2C-398.4,306.2-398.3,306.2-398.4,306.2c0.1,0.3,0.2,0.7,0.4,1
			c0.2,0.4,0.6,0.5,1,0.5c0.4,0,1-0.3,1-0.9c0-0.7-0.1-0.9-1.2-1.2c-0.2-0.1-0.8-0.3-1.2-0.7c-0.3-0.2-0.4-0.7-0.4-1.1
			c0-0.5,0.1-0.8,0.6-1.2c0.4-0.3,0.7-0.4,1.1-0.4c0.6,0,0.9,0.1,1.1,0.2c0.1,0,0.1,0,0.2,0l0.1-0.1c0,0,0.1,0,0.1,0
			c0.1,0,0.1,0.1,0.1,0.1l0.1,1.4c0,0,0,0,0,0l-0.2,0.1c0,0-0.1,0-0.1-0.1c-0.1-0.2-0.2-0.5-0.5-0.8c-0.2-0.2-0.4-0.3-0.8-0.3
			c-0.6,0-0.8,0.5-0.8,0.7c0,0.3,0,0.5,0.2,0.7c0.2,0.2,0.7,0.4,1.1,0.5c0.4,0.1,0.7,0.3,1,0.6c0.3,0.3,0.4,0.6,0.4,1.2
			c0,1-0.7,1.8-1.7,1.8c-0.7,0-1.1-0.1-1.4-0.3c-0.1-0.1-0.1-0.1-0.2-0.1c0,0-0.1,0.1-0.1,0.1c0,0.1-0.1,0.1-0.1,0.1
			c-0.1,0-0.1,0-0.1-0.1l0.1-1.5c0-0.1,0-0.1,0.1-0.1L-398.4,306.2z"/>
		<path id="XMLID_2214_" class="st0" d="M-388.9,304.9c0.4,0,0.7,0,0.8,0c0.1,0,0.2-0.1,0.4-0.2c0.1-0.1,0.2-0.3,0.2-0.5
			c0-0.1,0-0.1,0.1-0.1l0.2,0c0,0,0.1,0,0.1,0.1c0,0.1,0,0.6,0,0.8c0,0.4,0,0.7,0,0.9c0,0,0,0.1-0.1,0.1l-0.2,0c0,0,0,0-0.1-0.1
			c0-0.1-0.1-0.3-0.2-0.4c-0.1-0.2-0.3-0.3-0.4-0.3c-0.2,0-0.5,0-0.8,0v0.5c0,0.4,0,1.2,0,1.3c0,0.4,0.1,0.6,0.2,0.6
			c0.1,0,0.3,0.1,0.7,0.1c0.1,0,0.5,0,0.6,0c0.2,0,0.4-0.1,0.6-0.3c0.2-0.2,0.7-0.7,0.8-0.9c0,0,0.1,0,0.1,0l0.1,0.1c0,0,0,0,0,0.1
			l-0.4,1.2c0,0.1-0.1,0.1-0.2,0.1c0,0-0.2,0-0.7,0c-0.5,0-1.4,0-2.7,0c-0.3,0-0.5,0-0.7,0c-0.2,0-0.3,0-0.3,0c-0.1,0-0.1,0-0.1-0.1
			v-0.2c0,0,0-0.1,0.1-0.1h0.2c0.4,0,0.4-0.1,0.4-0.3v-2.7c0-0.7,0-1.6,0-1.7c0-0.3-0.1-0.3-0.3-0.3h-0.3c0,0,0,0,0-0.1v-0.2
			c0,0,0-0.1,0.1-0.1c0.2,0,0.5,0,1.2,0l2.8,0c0.1,0,0.3,0,0.3,0c0,0,0.1,0,0.1,0c0,0.1,0.3,1.2,0.3,1.3c0,0,0,0.1,0,0.1l-0.1,0.1
			c0,0-0.1,0-0.1,0c0-0.1-0.8-0.8-0.9-0.9c-0.2-0.1-0.4-0.2-0.6-0.2l-1.1,0L-388.9,304.9z"/>
		<path id="XMLID_2213_" class="st0" d="M-376,307.1c0,0.1,0,0.2,0,0.3c0,0.1,0,0.1-0.1,0.1c-0.6,0.3-1.3,0.5-2.3,0.5
			c-0.8,0-1.8-0.3-2.3-0.9c-0.5-0.6-0.7-1.2-0.7-2.2c0-0.7,0.3-1.5,0.9-2c0.6-0.5,1.3-0.8,2.3-0.8c0.8,0,1.4,0.2,1.7,0.4
			c0.1,0.1,0.2,0,0.2,0l0.1-0.1c0-0.1,0.1-0.1,0.1-0.1c0.1,0,0.1,0.1,0.1,0.1l0.1,1.6c0,0.1,0,0.1,0,0.1l-0.2,0c0,0-0.1,0-0.1-0.1
			c-0.1-0.4-0.4-0.9-0.7-1.2c-0.3-0.3-0.7-0.5-1.3-0.5c-0.4,0-0.8,0.1-1.2,0.6c-0.4,0.4-0.6,1.1-0.6,1.8c0,0.9,0.3,1.8,0.7,2.2
			c0.4,0.4,0.7,0.5,1.2,0.5c0.4,0,0.6,0,0.9-0.2c0.2-0.1,0.2-0.3,0.2-0.7v-0.6c0-0.3-0.1-0.4-0.3-0.4h-0.3c0,0-0.1,0-0.1-0.1v-0.2
			c0,0,0-0.1,0.1-0.1c0.1,0,0.5,0,1.2,0c0.7,0,1,0,1.1,0c0.1,0,0.1,0,0.1,0.1v0.2c0,0,0,0.1-0.1,0.1h-0.2c-0.1,0-0.2,0.1-0.2,0.3
			L-376,307.1L-376,307.1z"/>
		<path id="XMLID_2212_" class="st0" d="M-370.9,303c0-0.3-0.1-0.4-0.2-0.4h-0.4c0,0-0.1,0-0.1-0.1v-0.2c0,0,0-0.1,0.1-0.1
			c0.1,0,0.5,0,1.3,0c0.7,0,1.1,0,1.2,0c0.1,0,0.1,0,0.1,0.1v0.2c0,0,0,0.1-0.1,0.1h-0.3c-0.3,0-0.4,0.2-0.4,0.3c0,0.1,0,0.6,0,1
			v0.5c0,0.4,0,1.4,0,1.7c0,0.4,0.1,0.7,0.3,0.9c0.3,0.3,0.6,0.4,1,0.4c0.3,0,0.7-0.2,0.9-0.4c0.3-0.3,0.5-0.7,0.5-1.3v-1.2
			c0-0.7-0.1-1.5-0.1-1.7c0-0.2-0.2-0.4-0.3-0.4h-0.3c0,0-0.1,0-0.1-0.1v-0.2c0,0,0-0.1,0.1-0.1c0.1,0,0.4,0,1,0c0.4,0,0.7,0,0.8,0
			c0.1,0,0.1,0,0.1,0.1v0.2c0,0,0,0.1,0,0.1h-0.2c-0.3,0-0.3,0.2-0.3,0.3c0,0.1,0,1.2,0,1.3s0,1.5,0,1.8c0,0.7-0.3,1.2-0.7,1.5
			c-0.4,0.3-0.9,0.5-1.4,0.5c-0.4,0-0.9-0.1-1.2-0.2c-0.4-0.2-0.7-0.5-0.9-1.1c-0.1-0.3-0.2-0.9-0.2-1.9L-370.9,303L-370.9,303z"/>
		<path id="XMLID_2209_" class="st0" d="M-361.1,304.3c0-0.6,0-1.1,0-1.3c0-0.3-0.1-0.4-0.2-0.4h-0.3c0,0,0,0,0-0.1v-0.2
			c0,0,0-0.1,0-0.1c0.1,0,0.3,0,1.2,0c0.4,0,1.1,0,1.5,0c0.6,0,1.1,0.2,1.4,0.5c0.3,0.3,0.5,0.6,0.5,0.9c0,1-0.8,1.5-1.5,1.5v0.1
			c0.2,0.1,0.4,0.2,0.5,0.4c0.1,0.1,0.5,0.8,0.6,0.9c0,0.1,0.5,0.7,0.6,0.9c0.1,0.1,0.4,0.2,0.6,0.2c0.1,0,0.1,0,0.1,0.1v0.2
			c0,0,0,0.1-0.1,0.1c-0.1,0-0.3,0-0.9,0c-0.2,0-0.5,0-0.8,0c-0.2-0.2-0.7-1.1-0.9-1.4c-0.3-0.5-0.6-1.1-1-1.1h-0.3v0.4
			c0,0.5,0,1.4,0,1.5c0,0.2,0.1,0.3,0.2,0.3h0.3c0.1,0,0.1,0,0.1,0.1v0.2c0,0.1,0,0.1-0.1,0.1c0,0-0.2,0-1,0c-0.8,0-1,0-1.1,0
			c-0.1,0-0.1,0-0.1-0.1v-0.2c0,0,0-0.1,0-0.1h0.2c0.2,0,0.3-0.1,0.3-0.3c0-0.8,0-1.5,0-2.3L-361.1,304.3L-361.1,304.3z M-360,305.2
			c0.2,0,0.2,0,0.3,0c1.1,0,1.3-1,1.3-1.4c0-0.4-0.1-0.7-0.3-0.9c-0.3-0.3-0.6-0.4-0.9-0.4c-0.1,0-0.2,0-0.3,0.1
			c0,0-0.1,0.1-0.1,0.2L-360,305.2z"/>
		<path id="XMLID_2206_" class="st0" d="M-351.2,307.5c-0.6-0.3-1.2-1.2-1.2-2.4c0-0.5,0.1-1.2,0.7-2c0.7-0.9,1.6-1,2.3-1
			c0.7,0,1.3,0.1,1.9,0.6c0.6,0.5,1.1,1.3,1.1,2.4c0,0.6-0.2,1.2-0.6,1.7c-0.5,0.6-1.2,1.1-2.5,1.1
			C-349.9,308-350.5,307.9-351.2,307.5z M-347.5,305.2c0-1.7-1.1-2.7-1.8-2.7c-0.2,0-0.6,0-1,0.4c-0.5,0.4-0.7,1.3-0.7,1.9
			c0,2,1.2,2.8,1.8,2.8C-347.8,307.7-347.5,305.9-347.5,305.2z"/>
		<path id="XMLID_2205_" class="st0" d="M-341.4,306.2C-341.4,306.2-341.3,306.2-341.4,306.2c0.1,0.3,0.2,0.7,0.4,1
			c0.2,0.4,0.6,0.5,1,0.5c0.4,0,1-0.3,1-0.9c0-0.7-0.1-0.9-1.2-1.2c-0.2-0.1-0.8-0.3-1.2-0.7c-0.3-0.2-0.4-0.7-0.4-1.1
			c0-0.5,0.1-0.8,0.6-1.2c0.4-0.3,0.7-0.4,1.1-0.4c0.6,0,0.9,0.1,1.1,0.2c0.1,0,0.1,0,0.2,0l0.1-0.1c0,0,0.1,0,0.1,0
			c0.1,0,0.1,0.1,0.1,0.1l0.1,1.4c0,0,0,0,0,0l-0.2,0.1c0,0-0.1,0-0.1-0.1c-0.1-0.2-0.2-0.5-0.5-0.8c-0.2-0.2-0.4-0.3-0.8-0.3
			c-0.6,0-0.8,0.5-0.8,0.7c0,0.3,0,0.5,0.2,0.7c0.2,0.2,0.7,0.4,1.1,0.5c0.4,0.1,0.7,0.3,1,0.6c0.3,0.3,0.4,0.6,0.4,1.2
			c0,1-0.7,1.8-1.7,1.8c-0.7,0-1.1-0.1-1.4-0.3c-0.1-0.1-0.1-0.1-0.2-0.1c0,0-0.1,0.1-0.1,0.1c0,0.1-0.1,0.1-0.1,0.1
			c-0.1,0-0.1,0-0.1-0.1l0.1-1.5c0-0.1,0-0.1,0.1-0.1L-341.4,306.2z"/>
	</g>
</g>
</svg>
