<?xml version="1.0" encoding="utf-8"?>
<!-- Generator: Adobe Illustrator 26.5.0, SVG Export Plug-In . SVG Version: 6.00 Build 0)  -->
<svg version="1.1" id="Capa_1" xmlns="http://www.w3.org/2000/svg" xmlns:xlink="http://www.w3.org/1999/xlink" x="0px" y="0px"
	 viewBox="0 0 133 38" style="enable-background:new 0 0 133 38;" xml:space="preserve">
<style type="text/css">
	.st0{clip-path:url(#SVGID_00000012464717416082943360000013870611219024301744_);}
	.st1{fill:#FFFFFF;}
	.st2{fill:url(#SVGID_00000145048564826437540070000009100831499884580790_);}
	.st3{fill:url(#SVGID_00000028301347553324918510000015577359716643413153_);}
	.st4{fill:url(#SVGID_00000083773235201198987740000012418473175587694267_);}
	.st5{fill:url(#SVGID_00000053545752678658362860000007872721894458936196_);}
	.st6{opacity:0.2;}
	.st7{opacity:0.2;enable-background:new    ;}
	.st8{opacity:0.12;}
	.st9{opacity:0.12;enable-background:new    ;}
	.st10{opacity:0.25;}
	.st11{opacity:0.25;fill:#FFFFFF;enable-background:new    ;}
	.st12{fill:none;stroke:#FFFFFF;stroke-width:0.2;stroke-miterlimit:10;}
	.st13{fill:#FFFFFF;stroke:#FFFFFF;stroke-width:0.2;stroke-miterlimit:10;}
</style>
<g>
	<defs>
		<rect id="SVGID_1_" width="133" height="38"/>
	</defs>
	<clipPath id="SVGID_00000049933751577674154640000005443537861579870397_">
		<use xlink:href="#SVGID_1_"  style="overflow:visible;"/>
	</clipPath>
	<g style="clip-path:url(#SVGID_00000049933751577674154640000005443537861579870397_);">
		<path d="M128,38H4.9c-2.7,0-5-2.1-5-4.8V4.7c0-2.6,2.2-4.8,5-4.8H128c2.7,0.1,5,2.2,5,4.8v28.5C133,35.9,130.8,38,128,38z"/>
		<path class="st1" d="M105.4,28.5h1.8V16.6h-1.8V28.5z M121.9,20.9l-2.1,5.1h-0.1l-2.2-5.1h-2l3.3,7.2l-1.8,4h1.9l5-11.2H121.9z
			 M111.5,27.2c-0.6,0-1.5-0.3-1.5-1c0-0.9,1-1.3,1.9-1.3c0.8,0,1.2,0.1,1.7,0.4C113.5,26.4,112.5,27.2,111.5,27.2z M111.7,20.7
			c-1.3,0-2.7,0.6-3.3,1.9l1.6,0.6c0.4-0.6,1-0.9,1.7-0.9c1,0,1.9,0.6,1.9,1.5V24c-0.4-0.2-1-0.4-1.9-0.4c-1.8,0-3.5,0.9-3.5,2.7
			c0,1.6,1.5,2.6,3,2.6c1.3,0,1.9-0.6,2.4-1.1h0.1v0.8h1.8V24C115.4,21.8,113.8,20.7,111.7,20.7z M100.3,22.4h-2.6v-4.1h2.6
			c1.4,0,2.1,1.1,2.1,2.1C102.5,21.2,101.7,22.4,100.3,22.4z M100.3,16.6h-4.4v11.9h1.8V24h2.6c2.1,0,4.1-1.4,4.1-3.7
			S102.3,16.6,100.3,16.6z M76.3,27.2c-1.3,0-2.4-1-2.4-2.4c0-1.4,1-2.5,2.4-2.5c1.3,0,2.2,1.1,2.2,2.5
			C78.5,26.2,77.5,27.2,76.3,27.2z M78.4,21.6c-0.4-0.5-1.3-0.9-2.3-0.9c-2.1,0-4,1.8-4,4.1s1.9,4,4,4c1,0,1.8-0.4,2.2-0.9h0.1v0.6
			c0,1.6-0.9,2.4-2.2,2.4c-1.1,0-1.8-0.8-2.1-1.4L72.4,30c0.4,1.1,1.7,2.4,3.7,2.4c2.1,0,4-1.2,4-4.2v-7.3h-1.8L78.4,21.6L78.4,21.6
			z M81.4,28.5h1.8V16.6h-1.8V28.5z M85.9,24.6c-0.1-1.6,1.3-2.4,2.2-2.4c0.7,0,1.3,0.4,1.6,0.9L85.9,24.6z M91.7,23.2
			c-0.4-0.9-1.4-2.6-3.6-2.6c-2.1,0-3.9,1.6-3.9,4.1c0,2.3,1.8,4.1,4.1,4.1c1.9,0,3-1.1,3.5-1.8l-1.4-0.9c-0.4,0.6-1.1,1.1-2.1,1.1
			c-1,0-1.6-0.4-2-1.2l5.6-2.2L91.7,23.2z M47.1,21.9v1.7h4.3c-0.1,1-0.4,1.6-1,2.1c-0.6,0.6-1.6,1.3-3.3,1.3
			c-2.6,0-4.7-2.1-4.7-4.6c0-2.5,2.1-4.6,4.7-4.6c1.4,0,2.4,0.6,3.2,1.2l1.3-1.2c-1-1-2.5-1.7-4.4-1.7c-3.6,0-6.6,2.9-6.6,6.3
			c0,3.4,3,6.3,6.6,6.3c1.9,0,3.4-0.6,4.5-1.8c1.2-1.1,1.6-2.7,1.6-4c0-0.4,0-0.8-0.1-1.1H47.1z M57.9,27.2c-1.3,0-2.4-1-2.4-2.4
			c0-1.4,1.1-2.4,2.4-2.4c1.3,0,2.4,1,2.4,2.4C60.3,26.2,59.2,27.2,57.9,27.2z M57.9,20.7c-2.3,0-4.2,1.7-4.2,4.1s1.9,4.1,4.2,4.1
			c2.3,0,4.2-1.7,4.2-4.1S60.3,20.7,57.9,20.7z M67.1,27.2c-1.3,0-2.4-1-2.4-2.4c0-1.4,1.1-2.4,2.4-2.4c1.3,0,2.4,1,2.4,2.4
			C69.5,26.2,68.4,27.2,67.1,27.2z M67.1,20.7c-2.3,0-4.2,1.7-4.2,4.1s1.9,4.1,4.2,4.1c2.3,0,4.2-1.7,4.2-4.1S69.5,20.7,67.1,20.7z"
			/>
		
			<linearGradient id="SVGID_00000149369053522645773660000003103605413675064743_" gradientUnits="userSpaceOnUse" x1="21.3101" y1="31.8608" x2="5.3671" y2="15.3376" gradientTransform="matrix(1 0 0 -1 0 40)">
			<stop  offset="0" style="stop-color:#00A0FF"/>
			<stop  offset="6.574450e-03" style="stop-color:#00A1FF"/>
			<stop  offset="0.2601" style="stop-color:#00BEFF"/>
			<stop  offset="0.5122" style="stop-color:#00D2FF"/>
			<stop  offset="0.7604" style="stop-color:#00DFFF"/>
			<stop  offset="1" style="stop-color:#00E3FF"/>
		</linearGradient>
		<path style="fill:url(#SVGID_00000149369053522645773660000003103605413675064743_);" d="M10.3,7.2C10,7.5,9.8,7.9,9.8,8.6v21
			c0,0.6,0.1,1.1,0.4,1.4l0.1,0.1l12.2-11.8v-0.1V19L10.3,7.2z"/>
		
			<linearGradient id="SVGID_00000065046329271287733610000018229678812097201059_" gradientUnits="userSpaceOnUse" x1="33.3233" y1="20.9643" x2="9.4848" y2="20.9643" gradientTransform="matrix(1 0 0 -1 0 40)">
			<stop  offset="0" style="stop-color:#FFE000"/>
			<stop  offset="0.4087" style="stop-color:#FFBD00"/>
			<stop  offset="0.7754" style="stop-color:#FFA500"/>
			<stop  offset="1" style="stop-color:#FF9C00"/>
		</linearGradient>
		<path style="fill:url(#SVGID_00000065046329271287733610000018229678812097201059_);" d="M22.5,18.9V19v0.1l4.1,3.9l0.1-0.1
			l4.8-2.6c1.4-0.8,1.4-2,0-2.8L26.7,15h-0.1L22.5,18.9z"/>
		
			<linearGradient id="SVGID_00000057137525029649267140000004909881443478805136_" gradientUnits="userSpaceOnUse" x1="24.2637" y1="19.0145" x2="2.6436" y2="-3.3923" gradientTransform="matrix(1 0 0 -1 0 40)">
			<stop  offset="0" style="stop-color:#FF3A44"/>
			<stop  offset="1" style="stop-color:#C31162"/>
		</linearGradient>
		<path style="fill:url(#SVGID_00000057137525029649267140000004909881443478805136_);" d="M10.3,30.9c0.4,0.4,1.2,0.5,2.1,0.1
			L26.7,23l-4.1-4L10.3,30.9z"/>
		
			<linearGradient id="SVGID_00000016788536006097309500000014329561912369243817_" gradientUnits="userSpaceOnUse" x1="7.567" y1="40.18" x2="17.2213" y2="30.1745" gradientTransform="matrix(1 0 0 -1 0 40)">
			<stop  offset="0" style="stop-color:#32A071"/>
			<stop  offset="6.850000e-02" style="stop-color:#2DA771"/>
			<stop  offset="0.4762" style="stop-color:#15CF74"/>
			<stop  offset="0.8009" style="stop-color:#06E775"/>
			<stop  offset="1" style="stop-color:#00F076"/>
		</linearGradient>
		<path style="fill:url(#SVGID_00000016788536006097309500000014329561912369243817_);" d="M10.3,7.2L22.5,19l4.1-4L12.3,7.1
			c-0.4-0.2-0.7-0.3-1.1-0.3C10.9,6.8,10.5,6.9,10.3,7.2z"/>
		<g class="st6">
			<g class="st6">
				<path class="st7" d="M26.6,22.9l-14.3,7.8c-0.8,0.4-1.6,0.4-2,0l-0.1,0.1l0.1,0.1c0.4,0.4,1.2,0.4,2,0L26.6,22.9L26.6,22.9z"/>
			</g>
		</g>
		<g class="st8">
			<g class="st8">
				<path class="st9" d="M10.3,30.7C10,30.4,9.9,30,9.9,29.4v0.1c0,0.6,0.1,1.1,0.4,1.4V30.7z"/>
			</g>
		</g>
		<g class="st8">
			<g class="st8">
				<path class="st9" d="M31.6,20.2l-5,2.7l0.1,0.1l4.8-2.6c0.7-0.4,1.1-0.9,1.1-1.4C32.5,19.5,32.2,19.9,31.6,20.2z"/>
			</g>
		</g>
		<g class="st10">
			<g class="st10">
				<path class="st11" d="M12.3,7.3l19.2,10.6c0.6,0.4,1,0.8,1,1.2c0-0.5-0.4-1-1-1.4L12.3,7.1C10.9,6.3,9.8,7,9.8,8.5v0.1
					C9.8,7.1,10.9,6.5,12.3,7.3z"/>
			</g>
		</g>
		<path class="st1" d="M41.4,11.6h1c0.7,0,1.3-0.2,1.6-0.6c0.4-0.4,0.6-0.9,0.6-1.6c0-0.6-0.2-1.2-0.6-1.6c-0.4-0.4-1-0.6-1.6-0.6
			h-1V11.6z M40.7,12.4V6.7h1.8c0.9,0,1.6,0.3,2.2,0.8c0.6,0.5,0.8,1.2,0.8,2.1c0,0.9-0.3,1.5-0.8,2.1c-0.5,0.5-1.3,0.8-2.2,0.8
			H40.7z"/>
		<path class="st12" d="M41.4,11.6h1c0.7,0,1.3-0.2,1.6-0.6c0.4-0.4,0.6-0.9,0.6-1.6c0-0.6-0.2-1.2-0.6-1.6c-0.4-0.4-1-0.6-1.6-0.6
			h-1V11.6z M40.7,12.4V6.7h1.8c0.9,0,1.6,0.3,2.2,0.8c0.6,0.5,0.8,1.2,0.8,2.1c0,0.9-0.3,1.5-0.8,2.1c-0.5,0.5-1.3,0.8-2.2,0.8
			H40.7z"/>
		<path class="st13" d="M46.5,6.6h0.7v5.7h-0.7V6.6z"/>
		<path class="st1" d="M50.3,12.5c-0.4,0-0.8-0.1-1.3-0.4c-0.4-0.3-0.7-0.6-0.8-1.1l0.7-0.3c0.1,0.3,0.2,0.6,0.5,0.8
			c0.2,0.2,0.5,0.4,0.9,0.4c0.3,0,0.6-0.1,0.8-0.3c0.2-0.1,0.4-0.4,0.4-0.7c0-0.3-0.1-0.6-0.4-0.7c-0.2-0.1-0.6-0.4-1.1-0.5
			c-0.5-0.1-0.9-0.4-1.2-0.6c-0.3-0.3-0.4-0.6-0.4-1s0.1-0.8,0.5-1.1c0.4-0.3,0.7-0.4,1.3-0.4c0.5,0,0.9,0.1,1.3,0.4
			c0.3,0.2,0.5,0.5,0.6,0.8l-0.7,0.3c-0.1-0.1-0.2-0.2-0.4-0.4c-0.2-0.1-0.4-0.2-0.7-0.2c-0.3,0-0.5,0.1-0.7,0.2
			c-0.2,0.1-0.3,0.4-0.3,0.6c0,0.2,0.1,0.4,0.3,0.6C49.8,8.7,50,8.9,50.4,9c0.3,0.1,0.5,0.1,0.7,0.3c0.2,0.1,0.4,0.2,0.6,0.4
			c0.2,0.1,0.4,0.3,0.4,0.5c0.1,0.2,0.1,0.4,0.1,0.7s-0.1,0.5-0.1,0.7c-0.1,0.2-0.3,0.4-0.4,0.5c-0.2,0.1-0.4,0.2-0.7,0.3
			C50.8,12.5,50.5,12.5,50.3,12.5z"/>
		<path class="st12" d="M50.3,12.5c-0.4,0-0.8-0.1-1.3-0.4c-0.4-0.3-0.7-0.6-0.8-1.1l0.7-0.3c0.1,0.3,0.2,0.6,0.5,0.8
			c0.2,0.2,0.5,0.4,0.9,0.4c0.3,0,0.6-0.1,0.8-0.3c0.2-0.1,0.4-0.4,0.4-0.7c0-0.3-0.1-0.6-0.4-0.7c-0.2-0.1-0.6-0.4-1.1-0.5
			c-0.5-0.1-0.9-0.4-1.2-0.6c-0.3-0.3-0.4-0.6-0.4-1s0.1-0.8,0.5-1.1c0.4-0.3,0.7-0.4,1.3-0.4c0.5,0,0.9,0.1,1.3,0.4
			c0.3,0.2,0.5,0.5,0.6,0.8l-0.7,0.3c-0.1-0.1-0.2-0.2-0.4-0.4c-0.2-0.1-0.4-0.2-0.7-0.2c-0.3,0-0.5,0.1-0.7,0.2
			c-0.2,0.1-0.3,0.4-0.3,0.6c0,0.2,0.1,0.4,0.3,0.6C49.8,8.7,50,8.9,50.4,9c0.3,0.1,0.5,0.1,0.7,0.3c0.2,0.1,0.4,0.2,0.6,0.4
			c0.2,0.1,0.4,0.3,0.4,0.5c0.1,0.2,0.1,0.4,0.1,0.7s-0.1,0.5-0.1,0.7c-0.1,0.2-0.3,0.4-0.4,0.5c-0.2,0.1-0.4,0.2-0.7,0.3
			C50.8,12.5,50.5,12.5,50.3,12.5z"/>
		<path class="st1" d="M54.1,9.3h1.3c0.3,0,0.6-0.1,0.7-0.3c0.2-0.2,0.3-0.4,0.3-0.7c0-0.3-0.1-0.5-0.3-0.7
			c-0.2-0.2-0.4-0.3-0.7-0.3h-1.3V9.3z M54.1,12.4h-0.7V6.7h2c0.5,0,1,0.1,1.3,0.5c0.4,0.4,0.5,0.7,0.5,1.2s-0.1,0.9-0.5,1.2
			c-0.4,0.4-0.8,0.5-1.3,0.5h-1.3V12.4z"/>
		<path class="st12" d="M54.1,9.3h1.3c0.3,0,0.6-0.1,0.7-0.3c0.2-0.2,0.3-0.4,0.3-0.7c0-0.3-0.1-0.5-0.3-0.7
			c-0.2-0.2-0.4-0.3-0.7-0.3h-1.3V9.3z M54.1,12.4h-0.7V6.7h2c0.5,0,1,0.1,1.3,0.5c0.4,0.4,0.5,0.7,0.5,1.2s-0.1,0.9-0.5,1.2
			c-0.4,0.4-0.8,0.5-1.3,0.5h-1.3V12.4z"/>
		<path class="st1" d="M59.3,11.2c0.4,0.4,1,0.6,1.6,0.6s1.2-0.2,1.6-0.6c0.4-0.4,0.7-1,0.7-1.6c0-0.6-0.2-1.2-0.7-1.6
			c-0.4-0.4-1-0.6-1.6-0.6s-1.2,0.2-1.6,0.6c-0.4,0.4-0.7,1-0.7,1.6C58.6,10.2,58.9,10.7,59.3,11.2z M63.1,11.6
			c-0.6,0.6-1.3,0.9-2.1,0.9c-0.8,0-1.6-0.3-2.1-0.9c-0.6-0.6-0.9-1.3-0.9-2.1c0-0.9,0.3-1.6,0.9-2.1c0.6-0.6,1.3-0.9,2.1-0.9
			c0.9,0,1.6,0.3,2.1,0.9S64,8.6,64,9.5C63.9,10.3,63.6,11,63.1,11.6z"/>
		<path class="st12" d="M59.3,11.2c0.4,0.4,1,0.6,1.6,0.6s1.2-0.2,1.6-0.6c0.4-0.4,0.7-1,0.7-1.6c0-0.6-0.2-1.2-0.7-1.6
			c-0.4-0.4-1-0.6-1.6-0.6s-1.2,0.2-1.6,0.6c-0.4,0.4-0.7,1-0.7,1.6C58.6,10.2,58.9,10.7,59.3,11.2z M63.1,11.6
			c-0.6,0.6-1.3,0.9-2.1,0.9c-0.8,0-1.6-0.3-2.1-0.9c-0.6-0.6-0.9-1.3-0.9-2.1c0-0.9,0.3-1.6,0.9-2.1c0.6-0.6,1.3-0.9,2.1-0.9
			c0.9,0,1.6,0.3,2.1,0.9S64,8.6,64,9.5C63.9,10.3,63.6,11,63.1,11.6z"/>
		<path class="st1" d="M65,12.3V6.6h1l2.9,4.4V10V6.6h0.7v5.7h-0.8l-3-4.6v1.1v3.6H65z"/>
		<path class="st12" d="M65,12.3V6.6h1l2.9,4.4V10V6.6h0.7v5.7h-0.8l-3-4.6v1.1v3.6H65z"/>
		<path class="st13" d="M70.9,6.6h0.7v5.7h-0.7V6.6z"/>
		<path class="st1" d="M73.8,11.6h1.5c0.3,0,0.5-0.1,0.7-0.3c0.1-0.2,0.3-0.4,0.3-0.6c0-0.2-0.1-0.4-0.3-0.6
			c-0.2-0.2-0.4-0.3-0.7-0.3h-1.5V11.6z M73.8,9.1h1.4c0.3,0,0.5-0.1,0.7-0.3c0.1-0.2,0.3-0.4,0.3-0.6c0-0.2-0.1-0.4-0.2-0.6
			c-0.1-0.2-0.4-0.3-0.7-0.3h-1.5V9.1z M73,12.4V6.7h2.1c0.4,0,0.9,0.1,1.2,0.4c0.4,0.3,0.5,0.6,0.5,1.1c0,0.3-0.1,0.5-0.2,0.7
			c-0.1,0.2-0.4,0.4-0.6,0.5c0.3,0.1,0.5,0.3,0.7,0.5c0.2,0.2,0.3,0.5,0.3,0.8c0,0.5-0.1,0.9-0.5,1.1c-0.4,0.3-0.7,0.4-1.3,0.4
			L73,12.4L73,12.4z"/>
		<path class="st12" d="M73.8,11.6h1.5c0.3,0,0.5-0.1,0.7-0.3c0.1-0.2,0.3-0.4,0.3-0.6c0-0.2-0.1-0.4-0.3-0.6
			c-0.2-0.2-0.4-0.3-0.7-0.3h-1.5V11.6z M73.8,9.1h1.4c0.3,0,0.5-0.1,0.7-0.3c0.1-0.2,0.3-0.4,0.3-0.6c0-0.2-0.1-0.4-0.2-0.6
			c-0.1-0.2-0.4-0.3-0.7-0.3h-1.5V9.1z M73,12.4V6.7h2.1c0.4,0,0.9,0.1,1.2,0.4c0.4,0.3,0.5,0.6,0.5,1.1c0,0.3-0.1,0.5-0.2,0.7
			c-0.1,0.2-0.4,0.4-0.6,0.5c0.3,0.1,0.5,0.3,0.7,0.5c0.2,0.2,0.3,0.5,0.3,0.8c0,0.5-0.1,0.9-0.5,1.1c-0.4,0.3-0.7,0.4-1.3,0.4
			L73,12.4L73,12.4z"/>
		<path class="st1" d="M78.1,12.3V6.6h0.7v5h2.6v0.7H78.1z"/>
		<path class="st12" d="M78.1,12.3V6.6h0.7v5h2.6v0.7H78.1z"/>
		<path class="st1" d="M85.8,7.4h-2.7v1.8h2.4v0.7h-2.4v1.8h2.7v0.7h-3.5V6.7h3.5V7.4z"/>
		<path class="st12" d="M85.8,7.4h-2.7v1.8h2.4v0.7h-2.4v1.8h2.7v0.7h-3.5V6.7h3.5V7.4z"/>
		<path class="st1" d="M92.4,7.4h-2.7v1.8h2.4v0.7h-2.4v1.8h2.7v0.7H89V6.7h3.5V7.4z"/>
		<path class="st12" d="M92.4,7.4h-2.7v1.8h2.4v0.7h-2.4v1.8h2.7v0.7H89V6.7h3.5V7.4z"/>
		<path class="st1" d="M93.6,12.3V6.6h1l2.9,4.4V10V6.6h0.7v5.7h-0.8l-3-4.6v1.1v3.6H93.6z"/>
		<path class="st12" d="M93.6,12.3V6.6h1l2.9,4.4V10V6.6h0.7v5.7h-0.8l-3-4.6v1.1v3.6H93.6z"/>
	</g>
</g>
</svg>
