<?xml version="1.0" encoding="utf-8"?>
<!-- Generator: Adobe Illustrator 19.0.0, SVG Export Plug-In . SVG Version: 6.00 Build 0)  -->
<svg version="1.1" id="Capa_1" xmlns="http://www.w3.org/2000/svg" xmlns:xlink="http://www.w3.org/1999/xlink" x="0px" y="0px"
	 width="54.7px" height="54.4px" viewBox="-270 393.5 54.7 54.4" style="enable-background:new -270 393.5 54.7 54.4;"
	 xml:space="preserve">
<style type="text/css">
	.st0{fill:none;stroke:#FD5B5F;stroke-width:1.8;stroke-linecap:round;stroke-linejoin:round;stroke-miterlimit:10;}
</style>
<g id="XMLID_665_">
	<ellipse id="XMLID_3251_" class="st0" cx="-242.6" cy="420.7" rx="23" ry="23.4"/>
	<g id="XMLID_3112_">
		<polyline id="XMLID_8223_" class="st0" points="-252,415.5 -252,431.3 -233.4,431.3 		"/>
		<path id="XMLID_8222_" class="st0" d="M-232,425.9"/>
		<path id="XMLID_3149_" class="st0" d="M-254.3,416.9l11.5-9.5c0.5-0.4,1.1-0.4,1.6,0l11.7,9.7"/>
		<path id="XMLID_8220_" class="st0" d="M-230.5,419.2"/>
		<path id="XMLID_3148_" class="st0" d="M-237.9,419.7c0-2.2-1.8-4-3.9-4h0c-2.2,0-3.9,1.8-3.9,4l0,0"/>
		<polyline id="XMLID_3147_" class="st0" points="-245.7,420.4 -238,420.4 -238,431.1 		"/>
		<line id="XMLID_3146_" class="st0" x1="-245.7" y1="431" x2="-245.7" y2="420.6"/>
		<line id="XMLID_8217_" class="st0" x1="-231.9" y1="415.3" x2="-231.9" y2="424.4"/>
		<path id="XMLID_3145_" class="st0" d="M-250.8,431.2"/>
		<path id="XMLID_664_" class="st0" d="M-232.5,415.5"/>
		<path id="XMLID_615_" class="st0" d="M-246.5,416.7"/>
		<path id="XMLID_614_" class="st0" d="M-242,430.7"/>
		<path id="XMLID_3136_" class="st0" d="M-241.9,419.7"/>
		<line id="XMLID_3114_" class="st0" x1="-246.4" y1="420.4" x2="-237.2" y2="420.4"/>
	</g>
</g>
</svg>
