<?xml version="1.0" encoding="utf-8"?>
<!-- Generator: Adobe Illustrator 26.5.0, SVG Export Plug-In . SVG Version: 6.00 Build 0)  -->
<svg version="1.1" id="Capa_1" xmlns="http://www.w3.org/2000/svg" xmlns:xlink="http://www.w3.org/1999/xlink" x="0px" y="0px"
	 width="64px" height="64px" viewBox="0 0 64 64" style="enable-background:new 0 0 64 64;" xml:space="preserve">
<style type="text/css">
	.st0{clip-path:url(#SVGID_00000090999080846848632800000007236953883287558318_);}
	.st1{fill:#FFDA84;}
	.st2{clip-path:url(#SVGID_00000033327168701881667060000010708833382244644273_);}
	.st3{fill:#342F45;}
	.st4{fill:#FF6B71;}
	.st5{fill:#FCF3E2;}
	.st6{fill:#F55C63;}
</style>
<g id="XMLID_45_">
	<g id="XMLID_41_">
		<g>
			<defs>
				<path id="SVGID_1_" d="M47.9,30.6c0-8.9-7.3-16.2-16.2-16.2s-16.2,7.3-16.2,16.2c0,5.2,2.4,9.9,6.3,12.9v5.8
					c0,5.6,4.5,9.9,9.9,9.9s9.9-4.5,9.9-9.9v-5.8C45.5,40.4,47.9,35.8,47.9,30.6z"/>
			</defs>
			<clipPath id="SVGID_00000163791695235268958250000004017655156613350329_">
				<use xlink:href="#SVGID_1_"  style="overflow:visible;"/>
			</clipPath>
			<g id="XMLID_44_" style="clip-path:url(#SVGID_00000163791695235268958250000004017655156613350329_);">
				<path class="st1" d="M47.9,30.6c0-8.9-7.3-16.2-16.2-16.2s-16.2,7.3-16.2,16.2c0,5.2,2.4,9.9,6.3,12.9v5.8
					c0,5.6,4.5,9.9,9.9,9.9s9.9-4.5,9.9-9.9v-5.8C45.5,40.4,47.9,35.8,47.9,30.6z"/>
			</g>
		</g>
		<g>
			<defs>
				<path id="SVGID_00000136383681996677148240000010068096385285811844_" d="M47.9,30.6c0-8.9-7.3-16.2-16.2-16.2
					s-16.2,7.3-16.2,16.2c0,5.2,2.4,9.9,6.3,12.9v5.8c0,5.6,4.5,9.9,9.9,9.9s9.9-4.5,9.9-9.9v-5.8C45.5,40.4,47.9,35.8,47.9,30.6z"
					/>
			</defs>
			<clipPath id="SVGID_00000183241182531289470890000016955733323055922081_">
				<use xlink:href="#SVGID_00000136383681996677148240000010068096385285811844_"  style="overflow:visible;"/>
			</clipPath>
			<g id="XMLID_43_" style="clip-path:url(#SVGID_00000183241182531289470890000016955733323055922081_);">
				<rect x="20.1" y="50.3" class="st3" width="23.3" height="11"/>
			</g>
		</g>
	</g>
	<g id="XMLID_39_">
		<g id="XMLID_40_">
			<path class="st4" d="M29.4,51.2"/>
		</g>
	</g>
	<g id="XMLID_23_">
		<path class="st5" d="M36.9,27.2c-1.7,0-3,1.3-3,3v2.1c-0.6,0-1.9,0-4.1,0v-2.1c0-1.7-1.3-3-3-3s-3,1.3-3,3c0,1.7,1.3,3,3,3h2.1
			v17.2h0.9V33.2l0,0c1.5,0,3.4,0,4.1,0l0,0v17.2h0.9V33.2h2.1c1.7,0,3-1.3,3-3S38.4,27.2,36.9,27.2z M24.6,30.2
			c0-1.1,0.9-2.1,2.1-2.1c1.1,0,2.1,0.9,2.1,2.1v2.1h-2.1C25.5,32.2,24.6,31.3,24.6,30.2z M36.9,32.2h-2.1v-2.1
			c0-1.1,0.9-2.1,2.1-2.1c1.1,0,2.1,0.9,2.1,2.1S38,32.2,36.9,32.2z"/>
	</g>
	<g id="XMLID_76_">
		<path class="st6" d="M15.4,17.7c-0.2,0-0.4-0.1-0.6-0.2l-3.9-3.4c-0.4-0.3-0.4-0.9-0.1-1.3c0.3-0.4,0.9-0.4,1.3-0.1l3.9,3.4
			c0.4,0.3,0.4,0.9,0.1,1.3C16,17.6,15.7,17.7,15.4,17.7z"/>
	</g>
	<g id="XMLID_20_">
		<path class="st6" d="M31.1,11.9c-0.5,0-0.9-0.4-0.9-0.9V5.8c0-0.5,0.4-0.9,0.9-0.9S32,5.2,32,5.8V11C32,11.5,31.6,11.9,31.1,11.9z
			"/>
	</g>
	<g id="XMLID_77_">
		<path class="st6" d="M11.2,30H5.9C5.4,30,5,29.6,5,29.1s0.4-0.9,0.9-0.9h5.2c0.5,0,0.9,0.4,0.9,0.9S11.7,30,11.2,30z"/>
	</g>
	<g id="XMLID_79_">
		<path class="st6" d="M48.3,17.7c-0.3,0-0.5-0.1-0.7-0.3c-0.3-0.4-0.3-1,0.1-1.3l3.9-3.4c0.4-0.3,1-0.3,1.3,0.1
			c0.3,0.4,0.3,1-0.1,1.3l-3.9,3.4C48.7,17.6,48.5,17.7,48.3,17.7z"/>
	</g>
	<g id="XMLID_78_">
		<path class="st6" d="M58,30h-5c-0.5,0-0.9-0.4-0.9-0.9s0.4-0.9,0.9-0.9h5c0.5,0,0.9,0.4,0.9,0.9S58.5,30,58,30z"/>
	</g>
</g>
</svg>
