<?xml version="1.0" encoding="utf-8"?>
<!-- Generator: Adobe Illustrator 26.5.0, SVG Export Plug-In . SVG Version: 6.00 Build 0)  -->
<svg version="1.1" id="Capa_1" xmlns="http://www.w3.org/2000/svg" xmlns:xlink="http://www.w3.org/1999/xlink" x="0px" y="0px"
	 width="64px" height="64px" viewBox="0 0 64 64" style="enable-background:new 0 0 64 64;" xml:space="preserve">
<style type="text/css">
	.st0{fill:#F9F9F9;}
	.st1{fill:#E6F8FC;}
	.st2{fill:#FC5C63;}
	.st3{fill:#38333A;}
	.st4{fill:#BBEBF7;}
	.st5{clip-path:url(#SVGID_00000177469476069991999450000009173212172084944543_);}
	.st6{fill:#FFDA84;}
	.st7{fill:#48C9EA;}
	.st8{fill:#FFFFFF;}
	.st9{fill:#FD5B5F;}
</style>
<g>
</g>
<g>
	<g id="XMLID_645_">
		<g id="XMLID_663_">
			<path class="st0" d="M1.8,59.3L1.8,59.3c0-12.9,10.4-23.4,23.4-23.4c12.9,0,23.4,10.5,23.4,23.4H1.8L1.8,59.3L1.8,59.3z"/>
		</g>
		<g id="XMLID_662_">
			<path class="st1" d="M52.5,59.4H12.7V5.8h35.5c2.4,0,4.3,1.9,4.3,4.3V59.4z"/>
		</g>
		<g id="XMLID_658_">
			<g id="XMLID_661_">
				<path class="st2" d="M51.2,47.5c1.3,2.4,0.6,5.3,0.6,5.3s-2.8-1-4.1-3.4c-1.3-2.4-0.6-5.3-0.6-5.3S49.9,45.1,51.2,47.5z"/>
			</g>
			<g id="XMLID_660_">
				<path class="st2" d="M57.5,45c-0.9,4.5-4.7,7.4-4.7,7.4s-2.4-4.3-1.5-8.7s4.7-7.4,4.7-7.4S58.3,40.6,57.5,45z"/>
			</g>
			<g id="XMLID_659_">
				<path class="st3" d="M46.6,52.2l1.9,6.2c0.2,0.5,0.6,0.8,1.1,0.8h4.8c0.6,0,1-0.4,1.1-0.9l1.4-6.3c0.2-0.9-0.5-1.8-1.4-1.7H48
					C47.1,50.3,46.3,51.2,46.6,52.2z"/>
			</g>
		</g>
		<g id="XMLID_650_">
			<path class="st4" d="M39.2,51.1H24.8c-1,0-1.8,0.8-1.8,1.8l0,0c0,1,0.8,1.8,1.8,1.8h14.4c1,0,1.8-0.8,1.8-1.8l0,0
				C41,51.8,40.2,51.1,39.2,51.1z"/>
		</g>
		<g id="XMLID_646_">
			<g>
				<defs>
					<path id="SVGID_1_" d="M52.5,59.4H12.7V5.8h35.5c2.4,0,4.3,1.9,4.3,4.3V59.4z"/>
				</defs>
				<clipPath id="SVGID_00000042735537161698091630000007542361779829955996_">
					<use xlink:href="#SVGID_1_"  style="overflow:visible;"/>
				</clipPath>
				<g id="XMLID_648_" style="clip-path:url(#SVGID_00000042735537161698091630000007542361779829955996_);">
					<rect x="12.6" y="4.8" class="st6" width="39.8" height="4.5"/>
				</g>
			</g>
		</g>
		<g id="XMLID_699_">
			<path class="st7" d="M32.8,49.1h-0.9c-6.3,0-11.5-5.1-11.5-11.5V21.8c0-0.6,0.5-1,1-1h21.9c0.6,0,1,0.5,1,1v15.9
				C44.2,44,39.1,49.1,32.8,49.1z"/>
		</g>
		<g id="XMLID_691_">
			<path class="st6" d="M16.1,7.6v10.8l3.2-3l3,3.2V7.6C22.1,7.6,15.8,7.6,16.1,7.6z"/>
		</g>
		<g id="XMLID_652_">
			<path class="st8" d="M30.9,40.3c-0.4,0-0.8-0.2-1.1-0.5L26,35.3c-0.5-0.6-0.4-1.5,0.2-2c0.6-0.5,1.5-0.4,2,0.2l2.8,3.3l6.3-7.6
				c0.5-0.6,1.4-0.7,2-0.2c0.6,0.5,0.7,1.4,0.2,2L32,39.8C31.7,40.1,31.4,40.3,30.9,40.3C30.9,40.3,30.9,40.3,30.9,40.3z"/>
		</g>
	</g>
	<g id="XMLID_644_">
		<circle class="st9" cx="6.9" cy="12.7" r="1"/>
	</g>
	<g id="XMLID_643_">
		<circle class="st6" cx="57.3" cy="25.4" r="1"/>
	</g>
	<g id="XMLID_642_">
		<circle class="st6" cx="7.7" cy="51.3" r="1"/>
	</g>
</g>
</svg>
