<?xml version="1.0" encoding="utf-8"?>
<!-- Generator: Adobe Illustrator 19.0.0, SVG Export Plug-In . SVG Version: 6.00 Build 0)  -->
<svg version="1.1" id="Capa_1" xmlns="http://www.w3.org/2000/svg" xmlns:xlink="http://www.w3.org/1999/xlink" x="0px" y="0px"
	 width="100.6px" height="36.7px" viewBox="-432.1 273.3 100.6 36.7" style="enable-background:new -432.1 273.3 100.6 36.7;"
	 xml:space="preserve">
<style type="text/css">
	.st0{fill:#FFFFFF;}
	.st1{fill:#99989D;}
	.st2{clip-path:url(#XMLID_2_);fill:url(#XMLID_3_);}
	.st3{clip-path:url(#XMLID_4_);fill:url(#XMLID_5_);}
	.st4{fill:#717175;}
</style>
<g id="XMLID_2310_">
	<rect id="XMLID_2608_" x="-432" y="273.6" class="st0" width="100.5" height="24.1"/>
	<polygon id="XMLID_2607_" class="st1" points="-408.2,274.4 -332.3,274.4 -332.3,282.5 -408.2,282.5 	"/>
	<g id="XMLID_2602_">
		<g id="XMLID_2603_">
			<defs>
				<rect id="XMLID_2605_" x="-408.2" y="281.9" width="75.9" height="14.9"/>
			</defs>
			<clipPath id="XMLID_2_">
				<use xlink:href="#XMLID_2605_"  style="overflow:visible;"/>
			</clipPath>
			
				<linearGradient id="XMLID_3_" gradientUnits="userSpaceOnUse" x1="-1668.6104" y1="1248.3986" x2="-1668.2847" y2="1248.3986" gradientTransform="matrix(-3.234458e-02 45.7109 -45.7109 -3.234458e-02 56641.2148 76595.9844)">
				<stop  offset="0" style="stop-color:#7E181A"/>
				<stop  offset="1" style="stop-color:#591410"/>
			</linearGradient>
			<polygon id="XMLID_2606_" class="st2" points="-332.3,282 -332.3,296.8 -408.2,296.7 -408.2,281.9 			"/>
		</g>
	</g>
	<polygon id="XMLID_2601_" class="st1" points="-427.1,292.7 -427.1,274.4 -431.2,274.4 -431.2,296.7 -430.5,296.7 -427.2,296.7 
		-409.8,296.7 -409.8,292.7 	"/>
	<path id="XMLID_2598_" class="st0" d="M-401.1,277.4c-0.5-0.3-0.9-0.3-1.4-0.3c-1,0-1.4,0.6-1.4,1.2c0,0.6,0.5,1.1,1.3,1.1
		c0.3,0,0.3,0,0.6-0.1v-0.5h-0.5V278h1.5v1.5c-0.3,0.3-1,0.5-1.6,0.5c-1.3,0-2.2-0.8-2.2-1.9c0-1.2,0.9-1.9,2.3-1.9
		c0.6,0,1.1,0.1,1.5,0.3L-401.1,277.4z"/>
	<path id="XMLID_2595_" class="st0" d="M-399.8,276.3v3.7h0.9v-1.5h0.3c0.5,0,0.6,0.7,1,1.5h1c-0.5-1.1-0.6-1.6-1-1.8
		c0.5-0.2,0.6-0.5,0.6-0.9c0-0.6-0.5-1.1-1.2-1.1L-399.8,276.3z M-398.9,277h0.5c0.3,0,0.5,0.1,0.5,0.4c0,0.3-0.3,0.5-0.5,0.5h-0.5
		L-398.9,277z"/>
	<path id="XMLID_2594_" class="st0" d="M-392.1,276.3v2.1c0,1.2-0.8,1.7-1.9,1.7c-1.1,0-1.9-0.5-1.9-1.7v-2.1h0.9v2.1
		c0,0.5,0.4,0.8,0.9,0.8s1-0.3,1-0.9v-2.1H-392.1z"/>
	<path id="XMLID_2591_" class="st0" d="M-390.8,276.3v3.7h0.9v-1.5h0.7c0.9,0,1.3-0.6,1.3-1.1s-0.4-1.1-1.2-1.1H-390.8z M-389.9,277
		h0.3c0.5,0,0.7,0.1,0.7,0.5c0,0.3-0.1,0.5-0.6,0.5h-0.5V277z"/>
	<path id="XMLID_2588_" class="st0" d="M-382.7,278.2c0-0.9-0.7-1.9-2.1-1.9c-1.4,0-2.1,1-2.1,1.9c0,1,0.8,1.9,2.1,1.9
		C-383.5,280.1-382.7,279.1-382.7,278.2 M-383.6,278.2c0,0.7-0.5,1.2-1.2,1.2c-0.7,0-1.2-0.5-1.2-1.2c0-0.7,0.5-1.2,1.2-1.2
		C-384.2,277-383.6,277.5-383.6,278.2"/>
	<path id="XMLID_2585_" class="st0" d="M-377.9,276.3h-1.1l-1.5,3.7h1l0.3-0.7h1.7l0.3,0.7h1L-377.9,276.3z M-377.9,278.7h-1.2
		l0.5-1.4L-377.9,278.7z"/>
	<path id="XMLID_2584_" class="st0" d="M-372.9,277.3c-0.5-0.3-0.8-0.3-1.2-0.3c-0.3,0-0.5,0.1-0.5,0.3c0,0.6,1.9,0.4,1.9,1.7
		c0,0.7-0.6,1.1-1.4,1.1c-0.6,0-1-0.2-1.4-0.4v-0.8c0.5,0.3,0.8,0.5,1.3,0.5c0.3,0,0.5-0.1,0.5-0.3c0-0.6-1.9-0.4-1.9-1.8
		c0-0.6,0.6-1,1.4-1c0.4,0,0.8,0.1,1.2,0.3V277.3z"/>
	<polygon id="XMLID_2583_" class="st0" points="-368.9,280 -371.6,280 -371.6,276.3 -368.9,276.3 -368.9,277 -370.7,277 
		-370.7,277.8 -369,277.8 -369,278.5 -370.7,278.5 -370.7,279.4 -368.9,279.4 	"/>
	<path id="XMLID_2582_" class="st0" d="M-364.2,277.4c-0.5-0.3-0.9-0.3-1.4-0.3c-1,0-1.4,0.6-1.4,1.2c0,0.6,0.5,1.1,1.3,1.1
		c0.3,0,0.3,0,0.6-0.1v-0.5h-0.5v-0.7h1.5v1.5c-0.3,0.3-1,0.5-1.6,0.5c-1.3,0-2.2-0.8-2.2-1.9c0-1.2,0.9-1.9,2.3-1.9
		c0.6,0,1.1,0.1,1.5,0.3L-364.2,277.4z"/>
	<path id="XMLID_2581_" class="st0" d="M-359.1,276.3v2.1c0,1.2-0.8,1.7-1.9,1.7c-1.1,0-1.9-0.5-1.9-1.7v-2.1h0.9v2.1
		c0,0.5,0.4,0.8,0.9,0.8s1-0.3,1-0.9v-2.1H-359.1z"/>
	<path id="XMLID_2554_" class="st0" d="M-357.9,276.3v3.7h0.9v-1.5h0.3c0.5,0,0.6,0.7,1,1.5h1c-0.5-1.1-0.6-1.6-1-1.8
		c0.5-0.2,0.6-0.5,0.6-0.9c0-0.6-0.5-1.1-1.2-1.1L-357.9,276.3z M-357,277h0.5c0.3,0,0.5,0.1,0.5,0.4c0,0.3-0.3,0.5-0.5,0.5h-0.5
		L-357,277z"/>
	<path id="XMLID_2550_" class="st0" d="M-351.5,276.3h-1.1l-1.5,3.7h1l0.3-0.7h1.7l0.3,0.7h1L-351.5,276.3z M-351.5,278.7h-1.2
		l0.5-1.4L-351.5,278.7z"/>
	<path id="XMLID_2545_" class="st0" d="M-349,276.3v3.7h1.6c1.5,0,2.1-0.8,2.1-1.9c0-1-0.7-1.9-2.1-1.9L-349,276.3z M-348.1,277h0.6
		c0.9,0,1.2,0.5,1.2,1.2c0,0.5-0.3,1.2-1.2,1.2h-0.6V277z"/>
	<path id="XMLID_2542_" class="st0" d="M-340.1,278.2c0-0.9-0.7-1.9-2.1-1.9c-1.4,0-2.1,1-2.1,1.9c0,1,0.8,1.9,2.1,1.9
		C-340.8,280.1-340.1,279.2-340.1,278.2 M-341,278.2c0,0.7-0.5,1.2-1.2,1.2s-1.2-0.5-1.2-1.2c0-0.7,0.5-1.2,1.2-1.2
		C-341.5,277.1-341,277.6-341,278.2"/>
	<path id="XMLID_2537_" class="st0" d="M-339,276.3v3.7h0.9v-1.5h0.3c0.5,0,0.6,0.7,1,1.5h1c-0.5-1.1-0.6-1.6-1-1.8
		c0.5-0.2,0.6-0.5,0.6-0.9c0-0.6-0.5-1.1-1.2-1.1L-339,276.3z M-338,277h0.5c0.3,0,0.5,0.1,0.5,0.4c0,0.3-0.3,0.5-0.5,0.5h-0.5
		L-338,277z"/>
	<g id="XMLID_2533_">
		<g id="XMLID_2534_">
			<defs>
				<path id="XMLID_2535_" d="M-424.6,274.4c-0.9,0-1.6,0.8-1.6,1.7v4.5h7.7v-2.3c0-0.3,0.3-0.5,0.5-0.5c0.3,0,0.5,0.3,0.5,0.5v1.8
					c0,0.3-0.2,0.6-0.5,0.8l-7.7,4.2c-0.4,0.3-0.6,0.6-0.6,1.2v5.6h16.4v-6.2h-7.7v2.9c0,0.3-0.3,0.5-0.5,0.5
					c-0.3,0-0.5-0.3-0.5-0.5v-2.3c0-0.3,0.2-0.6,0.5-0.8l7.7-4.2c0.4-0.3,0.6-0.6,0.6-1.2v-3.9c0-0.9-0.7-1.7-1.6-1.7H-424.6z"/>
			</defs>
			<clipPath id="XMLID_4_">
				<use xlink:href="#XMLID_2535_"  style="overflow:visible;"/>
			</clipPath>
			
				<linearGradient id="XMLID_5_" gradientUnits="userSpaceOnUse" x1="-1672.7405" y1="1249.6547" x2="-1672.4149" y2="1249.6547" gradientTransform="matrix(-3.768605e-02 53.2598 -53.2598 -3.768605e-02 66075.3594 89411.3516)">
				<stop  offset="0" style="stop-color:#7E181A"/>
				<stop  offset="1" style="stop-color:#591410"/>
			</linearGradient>
			<polygon id="XMLID_2536_" class="st3" points="-409.8,274.4 -409.8,291.8 -426.2,291.8 -426.2,274.4 			"/>
		</g>
	</g>
	<path id="XMLID_2515_" class="st0" d="M-401,292c-0.1,0-0.3-0.1-0.3-0.3v-7.7h-3.5v8.2c0,0.6,0.5,1,1,1h4V292H-401z M-392.3,293.3
		v-6.6c0-0.6-0.5-1-1-1h-5.3c-0.5,0-1,0.5-1,1v1.6h3.3v-1c0-0.2,0.1-0.3,0.3-0.3s0.3,0.1,0.3,0.3v1.4h-3c-0.6,0-1,0.5-1,1v2.5
		c0,0.6,0.5,1,1,1L-392.3,293.3z M-395.9,290.1c0.2,0,0.3,0.1,0.3,0.4v1.2c0,0.2-0.1,0.3-0.3,0.3s-0.3-0.1-0.3-0.4v-1.2
		C-396.2,290.3-396.1,290.1-395.9,290.1 M-370.5,292.1c-0.2,0-0.3-0.1-0.3-0.4v-4.3c0-0.2,0.1-0.4,0.3-0.4s0.3,0.1,0.3,0.4v4.3
		C-370.2,291.9-370.4,292.1-370.5,292.1 M-366.9,285.7h-6.2c-0.6,0-1,0.5-1,1v5.6c0,0.6,0.5,1,1,1h3v0.3c0,0.2-0.1,0.3-0.3,0.3h-1.6
		v1.3h4.3c0.5,0,1-0.5,1-1L-366.9,285.7z M-363.1,285.7h-3.3v6.6c0,0.6,0.5,1,1,1h6.2v-7.6h-3.3v6c0,0.2-0.1,0.4-0.3,0.4
		s-0.3-0.1-0.3-0.4L-363.1,285.7z M-354.6,293.4h3.3v-6.6c0-0.6-0.5-1-1-1h-6.2v7.6h3.3v-6c0-0.2,0.1-0.4,0.3-0.4s0.3,0.1,0.3,0.4
		L-354.6,293.4z M-378.3,288.9c-0.2,0-0.3-0.1-0.3-0.4v-1.2c0-0.2,0.1-0.4,0.3-0.4s0.3,0.1,0.3,0.4v1.2
		C-378,288.8-378.1,288.9-378.3,288.9 M-386,290.4l-3-0.7c-0.4-0.1-0.7-0.5-0.7-1v-2c0-0.5,0.5-1,1-1h5.3c0.5,0,1,0.5,1,1v1.6h-3.3
		v-1c0-0.2-0.1-0.3-0.3-0.3s-0.3,0.1-0.3,0.3v1c0,0.1,0.1,0.3,0.3,0.3l3,0.7c0.4,0.1,0.7,0.5,0.7,1v2c0,0.6-0.5,1-1,1h-5.3
		c-0.6,0-1-0.5-1-1v-1.6h3.3v1c0,0.2,0.1,0.3,0.3,0.3s0.3-0.1,0.3-0.3v-1C-385.8,290.5-385.8,290.4-386,290.4 M-381.9,286.7v5.6
		c0,0.6,0.5,1,1,1h5.3c0.6,0,1-0.5,1-1v-1.6h-3.3v1c0,0.2-0.1,0.3-0.3,0.3s-0.3-0.1-0.3-0.3v-1.5h3c0.5,0,1-0.5,1-1v-2.5
		c0-0.6-0.5-1-1-1h-5.3C-381.5,285.7-381.9,286.2-381.9,286.7 M-347.3,287c-0.2,0-0.3,0.1-0.3,0.3v4.3c0,0.2,0.1,0.4,0.3,0.4
		s0.3-0.1,0.3-0.4v-4.3C-346.9,287.2-347.1,287-347.3,287 M-343.6,293.4h-6.3c-0.5,0-1-0.5-1-1v-5.6c0-0.6,0.5-1,1-1h2.9v-2h3.3
		L-343.6,293.4z M-335.8,293.4v-6.6c0-0.6-0.5-1-1-1h-5.3c-0.5,0-1,0.5-1,1v1.6h3.3v-1c0-0.2,0.1-0.3,0.3-0.3s0.3,0.1,0.3,0.3v1.5
		h-3c-0.6,0-1,0.5-1,1v2.5c0,0.5,0.5,1,1,1H-335.8z M-339.5,290.2c0.2,0,0.3,0.1,0.3,0.4v1.2c0,0.2-0.1,0.4-0.3,0.4
		s-0.3-0.1-0.3-0.4v-1.2C-339.8,290.3-339.7,290.2-339.5,290.2"/>
	<polygon id="XMLID_2514_" class="st4" points="-429,302.4 -429.7,302.4 -429.7,309.6 -425.6,309.6 -425.6,309 -429,309 	"/>
	<path id="XMLID_2511_" class="st4" d="M-421.5,302.3c-1,0-1.9,0.4-2.7,1.1c-0.7,0.7-1.1,1.6-1.1,2.6c0,1,0.4,1.9,1.1,2.6
		s1.6,1.1,2.7,1.1s1.9-0.4,2.7-1.1c0.7-0.7,1.1-1.6,1.1-2.6c0-1-0.4-1.9-1.1-2.6C-419.5,302.6-420.4,302.3-421.5,302.3 M-421.4,309
		c-0.8,0-1.6-0.3-2.2-0.9s-0.9-1.3-0.9-2.1c0-0.8,0.3-1.6,0.9-2.1s1.4-0.9,2.2-0.9c0.8,0,1.6,0.3,2.2,0.9s0.9,1.3,0.9,2.1
		c0,0.8-0.3,1.6-0.9,2.1C-419.9,308.7-420.6,309-421.4,309"/>
	<path id="XMLID_2508_" class="st4" d="M-410,302.9c-0.4-0.3-1-0.5-1.8-0.5h-2v7.2h0.6v-3.3h1.3c0.8,0,1.4-0.2,1.8-0.5
		c0.4-0.3,0.6-0.8,0.6-1.4C-409.4,303.8-409.6,303.2-410,302.9 M-413.1,303h1.3c0.5,0,1,0.1,1.2,0.4c0.3,0.3,0.5,0.6,0.5,1
		c0,0.5-0.1,0.8-0.5,1c-0.3,0.3-0.7,0.4-1.3,0.4h-1.2V303z"/>
	<path id="XMLID_2499_" class="st4" d="M-405.6,306c0.8-0.3,1.2-0.9,1.2-1.8c0-0.6-0.2-1-0.6-1.4c-0.4-0.3-1-0.5-1.8-0.5h-1.9v7.2
		h0.6v-3.4h0.9c0.5,0,0.8,0.1,1,0.3c0.2,0.1,0.5,0.6,1,1.2l1.2,1.9h0.8l-1.6-2.5C-405.1,306.5-405.4,306.2-405.6,306 M-408,303h1.1
		c0.6,0,1,0.1,1.4,0.3c0.3,0.3,0.5,0.5,0.5,1c0,0.5-0.1,0.7-0.5,1c-0.3,0.3-0.8,0.3-1.3,0.3h-1.1L-408,303z"/>
	<rect id="XMLID_2498_" x="-402.8" y="302.4" class="st4" width="0.6" height="7.2"/>
	<polygon id="XMLID_2497_" class="st4" points="-397.4,305.6 -400.1,302.5 -400.1,302.4 -400.8,302.4 -400.8,309.6 -400.1,309.6 
		-400.1,303.4 -397.4,306.7 -394.9,303.4 -394.9,309.6 -394.1,309.6 -394.1,302.4 -394.8,302.4 	"/>
	<polygon id="XMLID_2496_" class="st4" points="-392.1,306.3 -388.8,306.3 -388.8,305.7 -392.1,305.7 -392.1,303 -388.8,303 
		-388.8,302.4 -392.8,302.4 -392.8,309.6 -388.7,309.6 -388.7,309 -392.1,309 	"/>
	<path id="XMLID_2488_" class="st4" d="M-384.7,306c0.8-0.3,1.2-0.9,1.2-1.8c0-0.6-0.2-1-0.6-1.4c-0.4-0.3-1-0.5-1.8-0.5h-1.9v7.2
		h0.6v-3.4h0.9c0.5,0,0.8,0.1,1,0.3c0.2,0.1,0.5,0.6,1,1.2l1.2,1.9h0.8l-1.7-2.5C-384.3,306.5-384.5,306.2-384.7,306 M-387.1,303
		h1.1c0.6,0,1,0.1,1.4,0.3c0.3,0.3,0.5,0.5,0.5,1c0,0.5-0.1,0.7-0.5,1c-0.3,0.3-0.8,0.3-1.3,0.3h-1.1L-387.1,303z"/>
	<path id="XMLID_2482_" class="st4" d="M-378.4,302.3c-1,0-1.9,0.4-2.7,1.1c-0.7,0.7-1.1,1.6-1.1,2.6c0,1,0.4,1.9,1.1,2.6
		c0.7,0.7,1.6,1.1,2.7,1.1s1.9-0.4,2.7-1.1c0.7-0.7,1.1-1.6,1.1-2.6c0-1-0.4-1.9-1.1-2.6C-376.4,302.7-377.3,302.3-378.4,302.3
		 M-378.4,309.1c-0.8,0-1.6-0.3-2.2-0.9c-0.6-0.6-0.9-1.3-0.9-2.1c0-0.8,0.3-1.6,0.9-2.1c0.6-0.6,1.4-0.9,2.2-0.9
		c0.8,0,1.6,0.3,2.2,0.9s0.9,1.3,0.9,2.1c0,0.8-0.3,1.6-0.9,2.1C-376.8,308.7-377.5,309.1-378.4,309.1"/>
	<path id="XMLID_2480_" class="st4" d="M-367.9,306.1c-0.3-0.1-0.6-0.3-1.2-0.5c-0.5-0.2-0.8-0.4-1-0.6c-0.1-0.2-0.3-0.5-0.3-0.7
		c0-0.4,0.1-0.6,0.4-0.9c0.3-0.3,0.6-0.4,1-0.4s1,0.2,1.6,0.5l0.1,0.1v-0.8h-0.1c-0.5-0.3-1.1-0.5-1.7-0.5s-1.1,0.2-1.5,0.6
		c-0.4,0.4-0.6,0.8-0.6,1.4c0,0.4,0.1,0.7,0.3,1c0.2,0.3,0.4,0.5,0.6,0.6c0.3,0.1,0.6,0.3,1.2,0.5c0.5,0.2,0.9,0.5,1,0.6
		c0.2,0.3,0.3,0.5,0.3,0.8c0,0.4-0.1,0.7-0.4,1c-0.3,0.3-0.6,0.4-1,0.4c-0.5,0-1.1-0.3-1.8-0.7l-0.1-0.1v0.8l0,0
		c0.6,0.4,1.2,0.6,1.8,0.6s1.1-0.2,1.5-0.6c0.4-0.4,0.6-0.8,0.6-1.4c0-0.4-0.1-0.8-0.3-1C-367.4,306.4-367.6,306.2-367.9,306.1"/>
	<path id="XMLID_2477_" class="st4" d="M-362.7,302.3c-1,0-1.9,0.4-2.7,1.1c-0.7,0.7-1.1,1.6-1.1,2.6c0,1,0.4,1.9,1.1,2.6
		c0.7,0.7,1.6,1.1,2.7,1.1s1.9-0.4,2.7-1.1c0.7-0.7,1.1-1.6,1.1-2.6c0-1-0.4-1.9-1.1-2.6C-360.7,302.7-361.6,302.3-362.7,302.3
		 M-362.6,309.1c-0.8,0-1.6-0.3-2.2-0.9s-0.9-1.3-0.9-2.1c0-0.8,0.3-1.6,0.9-2.1s1.4-0.9,2.2-0.9c0.8,0,1.6,0.3,2.2,0.9
		s0.9,1.3,0.9,2.1c0,0.8-0.3,1.6-0.9,2.1C-361.1,308.8-361.8,309.1-362.6,309.1"/>
	<path id="XMLID_2476_" class="st4" d="M-355.1,306.1c-0.3-0.1-0.6-0.3-1.2-0.5s-0.8-0.4-1-0.6c-0.1-0.2-0.3-0.5-0.3-0.7
		c0-0.4,0.1-0.6,0.4-0.9c0.3-0.3,0.6-0.4,1-0.4s1,0.2,1.6,0.5l0.1,0.1v-0.8h-0.1c-0.5-0.3-1.1-0.5-1.7-0.5s-1.1,0.2-1.5,0.6
		c-0.4,0.4-0.6,0.8-0.6,1.4c0,0.4,0.1,0.7,0.3,1c0.2,0.3,0.4,0.5,0.6,0.6c0.3,0.1,0.6,0.3,1.2,0.5c0.5,0.2,0.9,0.5,1,0.6
		c0.2,0.3,0.3,0.5,0.3,0.8c0,0.4-0.1,0.7-0.4,1c-0.3,0.3-0.6,0.4-1,0.4s-1.1-0.3-1.8-0.7l-0.1-0.1v0.8l0,0c0.6,0.4,1.2,0.6,1.8,0.6
		c0.6,0,1.1-0.2,1.5-0.6s0.6-0.8,0.6-1.4c0-0.4-0.1-0.8-0.3-1C-354.6,306.4-354.9,306.2-355.1,306.1"/>
	<polygon id="XMLID_2337_" class="st4" points="-346.7,302.5 -349.1,308.3 -351.6,302.5 -352.3,302.5 -349.3,309.7 -349.3,309.7 
		-349,309.7 -346,302.5 	"/>
	<path id="XMLID_2330_" class="st4" d="M-342.3,302.3c-1,0-1.9,0.4-2.7,1.1c-0.7,0.7-1.1,1.6-1.1,2.6c0,1,0.4,1.9,1.1,2.6
		c0.7,0.7,1.6,1.1,2.7,1.1c1,0,1.9-0.4,2.7-1.1c0.7-0.7,1.1-1.6,1.1-2.6c0-1-0.4-1.9-1.1-2.6C-340.4,302.7-341.3,302.3-342.3,302.3
		 M-342.3,309.1c-0.8,0-1.6-0.3-2.2-0.9s-0.9-1.3-0.9-2.1c0-0.8,0.3-1.6,0.9-2.1s1.4-0.9,2.2-0.9c0.8,0,1.6,0.3,2.2,0.9
		s0.9,1.3,0.9,2.1c0,0.8-0.3,1.6-0.9,2.1C-340.7,308.8-341.5,309.1-342.3,309.1"/>
	<path id="XMLID_2312_" class="st4" d="M-334,306.7c-0.2-0.3-0.4-0.5-0.6-0.6c-0.3-0.1-0.6-0.3-1.2-0.5s-0.8-0.4-1-0.6
		c-0.1-0.2-0.3-0.5-0.3-0.7c0-0.4,0.1-0.6,0.4-0.9c0.3-0.3,0.6-0.4,1-0.4c0.5,0,1,0.2,1.6,0.5l0.1,0.1v-0.8h-0.1
		c-0.5-0.3-1.1-0.5-1.7-0.5s-1.1,0.2-1.5,0.6c-0.4,0.4-0.6,0.8-0.6,1.4c0,0.4,0.1,0.7,0.3,1c0.2,0.3,0.4,0.5,0.6,0.6
		c0.3,0.1,0.6,0.3,1.2,0.5c0.5,0.2,0.9,0.5,1,0.6c0.2,0.3,0.3,0.5,0.3,0.8c0,0.4-0.1,0.7-0.4,1c-0.3,0.3-0.6,0.4-1,0.4
		c-0.5,0-1.1-0.3-1.8-0.7l-0.1-0.1v0.8l0,0c0.6,0.4,1.2,0.6,1.8,0.6s1.1-0.2,1.5-0.6c0.4-0.4,0.6-0.8,0.6-1.4
		C-333.7,307.3-333.8,307-334,306.7"/>
</g>
</svg>
