<?xml version="1.0" encoding="utf-8"?>
<!-- Generator: Adobe Illustrator 19.0.0, SVG Export Plug-In . SVG Version: 6.00 Build 0)  -->
<svg version="1.1" id="Capa_1" xmlns="http://www.w3.org/2000/svg" xmlns:xlink="http://www.w3.org/1999/xlink" x="0px" y="0px"
	 width="203.7px" height="60.1px" viewBox="0 0 203.7 60.1" style="enable-background:new 0 0 203.7 60.1;" xml:space="preserve">
<style type="text/css">
	.st0{fill:#002563;}
	.st1{fill:#DF5A5E;}
</style>
<g id="XMLID_1035_">
	<g id="XMLID_1253_">
		<path id="XMLID_1351_" class="st0" d="M70.5,34.6c-0.2-0.2-0.2-0.4-0.2-0.6V13.9c0-0.2,0.1-0.4,0.2-0.6c0.2-0.2,0.4-0.2,0.6-0.2
			h2.5c0.2,0,0.4,0.1,0.6,0.2c0.2,0.2,0.2,0.4,0.2,0.6V34c0,0.2-0.1,0.4-0.2,0.6c-0.2,0.2-0.4,0.2-0.6,0.2h-2.5
			C70.9,34.9,70.7,34.8,70.5,34.6z"/>
		<path id="XMLID_1343_" class="st0" d="M78,34.6c-0.2-0.2-0.2-0.4-0.2-0.6V13.9c0-0.2,0.1-0.4,0.2-0.6c0.2-0.2,0.4-0.2,0.6-0.2h9.2
			c1.6,0,3,0.3,4,1c1.1,0.6,1.8,1.4,2.3,2.4c0.5,0.9,0.7,1.9,0.7,2.8c0,1.1-0.2,2-0.7,2.7c-0.5,0.7-1,1.2-1.4,1.5
			c0.7,0.5,1.4,1.2,1.9,2c0.5,0.8,0.7,1.8,0.7,2.9c0,1.1-0.3,2.1-0.8,3.1c-0.5,1-1.3,1.8-2.3,2.5c-1,0.6-2.2,1-3.6,1h-9.9
			C78.4,34.9,78.2,34.8,78,34.6z M82,16.9v4.8h5.5c1.1,0,1.8-0.2,2.4-0.6c0.5-0.4,0.8-1,0.8-1.8c0-0.8-0.3-1.4-0.8-1.8
			c-0.5-0.4-1.3-0.6-2.4-0.6H82z M87.8,31c1.1,0,1.9-0.2,2.5-0.7c0.6-0.5,0.8-1.1,0.8-1.9c0-0.8-0.3-1.5-0.9-2
			c-0.6-0.5-1.4-0.7-2.4-0.7H82V31H87.8z"/>
		<g id="XMLID_1334_">
			<g id="XMLID_418_">
				<path id="XMLID_419_" class="st0" d="M109.2,35.4c-2.2,0-3.9-0.7-5.1-2.2v1c0,0.3-0.1,0.5-0.2,0.6c-0.2,0.2-0.4,0.2-0.6,0.2
					h-0.5c-0.3,0-0.5-0.1-0.6-0.2c-0.2-0.2-0.2-0.4-0.2-0.6V13.4c0-0.3,0.1-0.5,0.2-0.6c0.2-0.2,0.4-0.2,0.6-0.2h0.5
					c0.3,0,0.5,0.1,0.6,0.2c0.2,0.2,0.2,0.4,0.2,0.6v6.9c1.2-1.4,2.9-2.2,5.1-2.2c2.3,0,4,0.8,5.1,2.3c1.1,1.5,1.7,3.3,1.7,5.4
					c0,0.2,0,0.5,0,0.9c0,0.4,0,0.7,0,0.9c-0.1,2.1-0.6,3.9-1.7,5.4C113.2,34.6,111.5,35.4,109.2,35.4z M109,20.3
					c-1.1,0-2,0.3-2.7,0.8c-0.7,0.5-1.3,1.1-1.6,1.9c-0.4,0.8-0.6,1.6-0.6,2.5l0,1.2l0,1.2c0.1,1.4,0.5,2.7,1.3,3.8
					c0.8,1,2,1.6,3.6,1.6c1.6,0,2.8-0.5,3.6-1.5c0.8-1,1.2-2.4,1.2-4c0-0.2,0-0.5,0-0.9c0-1.9-0.4-3.5-1.1-4.7
					C112,20.9,110.7,20.3,109,20.3z"/>
			</g>
		</g>
		<g id="XMLID_1330_">
			<path id="XMLID_363_" class="st0" d="M120.8,35.1c-0.3,0-0.5-0.1-0.6-0.2c-0.2-0.2-0.2-0.4-0.2-0.6V19.4c0-0.2,0.1-0.5,0.2-0.6
				c0.2-0.2,0.4-0.3,0.6-0.3h0.5c0.3,0,0.5,0.1,0.6,0.2c0.2,0.2,0.3,0.4,0.3,0.6v0.9c0.8-1.2,2.2-1.7,4.1-1.7h1.2
				c0.3,0,0.5,0.1,0.6,0.2c0.2,0.2,0.2,0.4,0.2,0.6v0.4c0,0.3-0.1,0.5-0.2,0.6c-0.2,0.2-0.4,0.2-0.6,0.2h-1.3c-1.2,0-2.2,0.4-2.8,1
				c-0.7,0.7-1,1.7-1,2.8v9.7c0,0.3-0.1,0.5-0.3,0.6c-0.2,0.2-0.4,0.2-0.6,0.2H120.8z"/>
		</g>
		<g id="XMLID_1315_">
			<g id="XMLID_423_">
				<path id="XMLID_424_" class="st0" d="M136.8,35.4c-2.2,0-3.9-0.7-5.2-2c-1.2-1.3-1.9-3.1-1.9-5.2l0-1.3l0-1.3
					c0.1-2.1,0.7-3.9,1.9-5.2c1.2-1.4,3-2,5.2-2s3.9,0.7,5.2,2c1.2,1.3,1.9,3.1,1.9,5.2c0,0.2,0,0.6,0,1.3s0,1.1,0,1.3
					c-0.1,2.1-0.7,3.9-1.9,5.2C140.7,34.7,139,35.4,136.8,35.4z M136.8,20.3c-1.4,0-2.6,0.5-3.5,1.4c-0.9,0.9-1.3,2.2-1.4,3.9l0,1.2
					l0,1.1c0.1,1.7,0.5,3,1.4,3.9c0.9,0.9,2,1.4,3.5,1.4c1.4,0,2.6-0.5,3.5-1.4c0.9-0.9,1.3-2.2,1.4-3.9c0-0.2,0-0.6,0-1.1
					c0-0.6,0-0.9,0-1.1c-0.1-1.7-0.5-3-1.4-3.9C139.4,20.8,138.2,20.3,136.8,20.3z"/>
			</g>
		</g>
		<g id="XMLID_1287_">
			<path id="XMLID_380_" class="st0" d="M159.1,35.1c-0.3,0-0.6,0-0.7-0.1c-0.2-0.1-0.4-0.2-0.7-0.5l-7.6-6.7v6.4
				c0,0.3-0.1,0.5-0.2,0.6c-0.2,0.2-0.4,0.2-0.6,0.2h-0.5c-0.3,0-0.5-0.1-0.6-0.2c-0.2-0.2-0.2-0.4-0.2-0.6V13.4
				c0-0.3,0.1-0.5,0.2-0.6c0.2-0.2,0.4-0.2,0.6-0.2h0.5c0.3,0,0.5,0.1,0.6,0.2c0.2,0.2,0.2,0.4,0.2,0.6v10.7l6.7-5.1
				c0.3-0.3,0.6-0.4,0.7-0.5c0.1-0.1,0.4-0.1,0.7-0.1h0.6c0.2,0,0.4,0.1,0.6,0.2c0.1,0.1,0.2,0.3,0.2,0.6c0,0.3-0.2,0.5-0.5,0.8
				l-7.7,5.9l8.5,7.6c0.3,0.3,0.5,0.5,0.5,0.7c0,0.2-0.1,0.4-0.2,0.6c-0.1,0.1-0.3,0.2-0.6,0.2H159.1z"/>
		</g>
		<g id="XMLID_1262_">
			<g id="XMLID_427_">
				<path id="XMLID_428_" class="st0" d="M168.4,35.4c-2,0-3.7-0.7-4.9-2c-1.2-1.3-1.9-3.1-2.1-5.3l0-1.3l0-1.3
					c0.2-2.2,0.9-4,2.1-5.3c1.2-1.3,2.9-2,4.9-2c2.2,0,4,0.7,5.2,2.2c1.2,1.5,1.9,3.5,1.9,6v0.5c0,0.3-0.1,0.5-0.3,0.6
					c-0.2,0.2-0.4,0.2-0.6,0.2h-10.9v0.1c0,0.9,0.3,1.8,0.7,2.7c0.4,0.8,0.9,1.5,1.6,2c0.7,0.5,1.5,0.7,2.5,0.7c1.1,0,2-0.2,2.7-0.6
					c0.7-0.4,1.2-0.9,1.5-1.3c0.2-0.3,0.4-0.4,0.5-0.5c0.1-0.1,0.3-0.1,0.6-0.1h0.5c0.2,0,0.4,0.1,0.6,0.2c0.2,0.1,0.2,0.3,0.2,0.5
					c0,0.5-0.3,1-0.9,1.7c-0.6,0.6-1.4,1.2-2.3,1.6C170.8,35.1,169.7,35.4,168.4,35.4z M173.3,25.6c0-1.5-0.5-2.8-1.3-3.8
					c-0.9-1-2-1.5-3.5-1.5c-1.5,0-2.6,0.5-3.5,1.5c-0.8,1-1.3,2.3-1.3,3.8H173.3z"/>
			</g>
		</g>
		<g id="XMLID_1258_">
			<path id="XMLID_412_" class="st0" d="M180.1,35.1c-0.3,0-0.5-0.1-0.6-0.2c-0.2-0.2-0.2-0.4-0.2-0.6V19.4c0-0.2,0.1-0.5,0.2-0.6
				c0.2-0.2,0.4-0.3,0.6-0.3h0.5c0.3,0,0.5,0.1,0.6,0.2c0.2,0.2,0.2,0.4,0.2,0.6v0.9c0.8-1.2,2.2-1.7,4.1-1.7h1.2
				c0.3,0,0.5,0.1,0.6,0.2c0.2,0.2,0.2,0.4,0.2,0.6v0.4c0,0.3-0.1,0.5-0.2,0.6c-0.2,0.2-0.4,0.2-0.6,0.2h-1.3c-1.2,0-2.2,0.4-2.8,1
				c-0.7,0.7-1,1.7-1,2.8v9.7c0,0.3-0.1,0.5-0.3,0.6c-0.2,0.2-0.4,0.2-0.6,0.2H180.1z"/>
		</g>
		<g id="XMLID_1254_">
			<path id="XMLID_413_" class="st0" d="M195.5,35.4c-1.4,0-2.5-0.2-3.5-0.7c-0.9-0.5-1.7-1-2.1-1.6c-0.5-0.6-0.7-1.1-0.7-1.5
				c0-0.2,0.1-0.4,0.3-0.6c0.2-0.1,0.4-0.2,0.6-0.2h0.5c0.2,0,0.3,0,0.4,0.1c0.1,0.1,0.2,0.2,0.4,0.4c0.4,0.6,1,1.1,1.6,1.5
				c0.6,0.3,1.5,0.5,2.6,0.5c1.3,0,2.3-0.2,3-0.7c0.7-0.5,1.1-1.1,1.1-2c0-0.5-0.1-0.9-0.4-1.3c-0.3-0.3-0.8-0.6-1.5-0.9
				c-0.7-0.3-1.8-0.6-3.2-0.9c-1.9-0.4-3.2-1-3.9-1.8c-0.7-0.8-1.1-1.7-1.1-2.9c0-0.8,0.2-1.6,0.7-2.3c0.4-0.7,1.1-1.3,2-1.7
				c0.9-0.4,1.9-0.7,3.1-0.7c1.3,0,2.4,0.2,3.2,0.7s1.6,1,2,1.5c0.5,0.6,0.7,1.1,0.7,1.5c0,0.2-0.1,0.4-0.3,0.6
				c-0.2,0.1-0.4,0.2-0.6,0.2h-0.5c-0.4,0-0.6-0.2-0.8-0.5c-0.4-0.6-0.9-1.1-1.4-1.4c-0.5-0.3-1.3-0.5-2.4-0.5
				c-1.2,0-2.1,0.2-2.6,0.7c-0.6,0.5-0.9,1.1-0.9,1.8c0,0.5,0.1,0.8,0.3,1.1c0.2,0.3,0.7,0.6,1.3,0.9c0.7,0.3,1.7,0.6,3,0.9
				c2,0.4,3.4,1,4.2,1.8c0.8,0.8,1.2,1.8,1.2,3c0,0.9-0.3,1.7-0.7,2.4c-0.5,0.7-1.2,1.3-2.2,1.7C198,35.2,196.8,35.4,195.5,35.4z"/>
		</g>
	</g>
	<g id="XMLID_1152_">
		<path id="XMLID_1250_" class="st1" d="M72.7,42.1h0.9l2.6,5.9H75l-0.6-1.4h-2.6l-0.5,1.4h-1.2L72.7,42.1z M74.1,45.8l-0.9-2.4
			l-0.9,2.4H74.1z"/>
		<path id="XMLID_1248_" class="st1" d="M81.5,43.4c-0.1-0.1-0.3-0.3-0.5-0.4c-0.2-0.1-0.4-0.1-0.6-0.1c-0.1,0-0.2,0-0.4,0
			c-0.1,0-0.2,0.1-0.3,0.1c-0.1,0.1-0.2,0.1-0.2,0.3c-0.1,0.1-0.1,0.2-0.1,0.4c0,0.1,0,0.2,0.1,0.3c0.1,0.1,0.1,0.2,0.2,0.2
			c0.1,0.1,0.2,0.1,0.4,0.2c0.1,0.1,0.3,0.1,0.5,0.2c0.2,0.1,0.4,0.1,0.6,0.2c0.2,0.1,0.4,0.2,0.6,0.3c0.2,0.1,0.3,0.3,0.4,0.5
			c0.1,0.2,0.2,0.4,0.2,0.7c0,0.3-0.1,0.6-0.2,0.8c-0.1,0.2-0.3,0.4-0.5,0.6c-0.2,0.2-0.4,0.3-0.7,0.4c-0.3,0.1-0.5,0.1-0.8,0.1
			c-0.4,0-0.8-0.1-1.1-0.2c-0.4-0.1-0.7-0.4-0.9-0.6l0.8-0.7c0.1,0.2,0.3,0.4,0.6,0.5c0.2,0.1,0.5,0.2,0.7,0.2c0.1,0,0.2,0,0.4,0
			c0.1,0,0.2-0.1,0.3-0.2c0.1-0.1,0.2-0.2,0.3-0.3c0.1-0.1,0.1-0.2,0.1-0.4c0-0.2,0-0.3-0.1-0.4c-0.1-0.1-0.2-0.2-0.3-0.3
			c-0.1-0.1-0.3-0.1-0.4-0.2c-0.2-0.1-0.3-0.1-0.5-0.2c-0.2-0.1-0.4-0.1-0.5-0.2c-0.2-0.1-0.3-0.2-0.5-0.3c-0.1-0.1-0.3-0.3-0.3-0.5
			c-0.1-0.2-0.1-0.4-0.1-0.7c0-0.3,0.1-0.6,0.2-0.8c0.1-0.2,0.3-0.4,0.5-0.5c0.2-0.1,0.4-0.2,0.7-0.3c0.3-0.1,0.5-0.1,0.8-0.1
			c0.3,0,0.6,0.1,0.9,0.2c0.3,0.1,0.6,0.3,0.8,0.5L81.5,43.4z"/>
		<path id="XMLID_1246_" class="st1" d="M85,42.1h3.9v0.9H86v1.5h2.7v0.9H86v1.7h3v0.9H85V42.1z"/>
		<path id="XMLID_1244_" class="st1" d="M94.8,43.4c-0.1-0.1-0.3-0.3-0.5-0.4c-0.2-0.1-0.4-0.1-0.6-0.1c-0.1,0-0.2,0-0.4,0
			c-0.1,0-0.2,0.1-0.3,0.1c-0.1,0.1-0.2,0.1-0.2,0.3c-0.1,0.1-0.1,0.2-0.1,0.4c0,0.1,0,0.2,0.1,0.3c0.1,0.1,0.1,0.2,0.2,0.2
			c0.1,0.1,0.2,0.1,0.4,0.2c0.1,0.1,0.3,0.1,0.5,0.2c0.2,0.1,0.4,0.1,0.6,0.2c0.2,0.1,0.4,0.2,0.6,0.3c0.2,0.1,0.3,0.3,0.4,0.5
			c0.1,0.2,0.2,0.4,0.2,0.7c0,0.3-0.1,0.6-0.2,0.8c-0.1,0.2-0.3,0.4-0.5,0.6c-0.2,0.2-0.4,0.3-0.7,0.4c-0.3,0.1-0.5,0.1-0.8,0.1
			c-0.4,0-0.8-0.1-1.1-0.2c-0.4-0.1-0.7-0.4-0.9-0.6l0.8-0.7c0.1,0.2,0.3,0.4,0.6,0.5c0.2,0.1,0.5,0.2,0.7,0.2c0.1,0,0.2,0,0.4,0
			c0.1,0,0.2-0.1,0.3-0.2c0.1-0.1,0.2-0.2,0.3-0.3c0.1-0.1,0.1-0.2,0.1-0.4c0-0.2,0-0.3-0.1-0.4c-0.1-0.1-0.2-0.2-0.3-0.3
			c-0.1-0.1-0.3-0.1-0.4-0.2c-0.2-0.1-0.3-0.1-0.5-0.2c-0.2-0.1-0.4-0.1-0.5-0.2c-0.2-0.1-0.3-0.2-0.5-0.3c-0.1-0.1-0.3-0.3-0.3-0.5
			c-0.1-0.2-0.1-0.4-0.1-0.7c0-0.3,0.1-0.6,0.2-0.8c0.1-0.2,0.3-0.4,0.5-0.5c0.2-0.1,0.4-0.2,0.7-0.3c0.3-0.1,0.5-0.1,0.8-0.1
			c0.3,0,0.6,0.1,0.9,0.2s0.6,0.3,0.8,0.5L94.8,43.4z"/>
		<path id="XMLID_1241_" class="st1" d="M98,45.1c0-0.5,0.1-0.9,0.2-1.3c0.2-0.4,0.4-0.7,0.7-1c0.3-0.3,0.6-0.5,1-0.6
			c0.4-0.1,0.8-0.2,1.3-0.2c0.5,0,0.9,0.1,1.3,0.2c0.4,0.1,0.7,0.4,1,0.6c0.3,0.3,0.5,0.6,0.7,1c0.2,0.4,0.2,0.8,0.2,1.3
			c0,0.5-0.1,0.9-0.2,1.3c-0.2,0.4-0.4,0.7-0.7,1c-0.3,0.3-0.6,0.5-1,0.6c-0.4,0.2-0.8,0.2-1.3,0.2c-0.5,0-0.9-0.1-1.3-0.2
			c-0.4-0.2-0.7-0.4-1-0.6c-0.3-0.3-0.5-0.6-0.7-1C98.1,46,98,45.6,98,45.1z M99.1,45.1c0,0.3,0,0.6,0.1,0.9
			c0.1,0.3,0.2,0.5,0.4,0.7c0.2,0.2,0.4,0.3,0.6,0.5c0.2,0.1,0.5,0.2,0.8,0.2c0.3,0,0.6-0.1,0.8-0.2c0.3-0.1,0.5-0.3,0.7-0.5
			c0.2-0.2,0.3-0.4,0.4-0.7c0.1-0.3,0.1-0.6,0.1-0.9c0-0.3,0-0.6-0.1-0.9c-0.1-0.3-0.2-0.5-0.4-0.7c-0.2-0.2-0.4-0.3-0.6-0.5
			c-0.3-0.1-0.5-0.2-0.8-0.2c-0.3,0-0.6,0.1-0.8,0.2c-0.2,0.1-0.5,0.3-0.6,0.5c-0.2,0.2-0.3,0.4-0.4,0.7
			C99.2,44.5,99.1,44.8,99.1,45.1z"/>
		<path id="XMLID_1238_" class="st1" d="M107.1,42.1h2.1c0.3,0,0.6,0,0.8,0.1c0.3,0.1,0.5,0.2,0.7,0.3c0.2,0.1,0.4,0.3,0.5,0.5
			c0.1,0.2,0.2,0.5,0.2,0.8c0,0.4-0.1,0.8-0.4,1.1c-0.2,0.3-0.6,0.5-1,0.5l1.6,2.6h-1.3l-1.4-2.5h-0.8v2.5h-1.1V42.1z M109,44.7
			c0.2,0,0.3,0,0.5,0c0.2,0,0.3-0.1,0.4-0.1c0.1-0.1,0.2-0.1,0.3-0.3c0.1-0.1,0.1-0.3,0.1-0.4c0-0.2,0-0.3-0.1-0.4s-0.2-0.2-0.3-0.2
			c-0.1-0.1-0.2-0.1-0.4-0.1c-0.1,0-0.3,0-0.4,0h-1v1.7H109z"/>
		<path id="XMLID_1236_" class="st1" d="M114,42.1h3.9v0.9h-2.9v1.5h2.7v0.9h-2.7v1.7h3v0.9H114V42.1z"/>
		<path id="XMLID_1234_" class="st1" d="M123.8,43.4c-0.1-0.1-0.3-0.3-0.5-0.4c-0.2-0.1-0.4-0.1-0.6-0.1c-0.1,0-0.2,0-0.4,0
			c-0.1,0-0.2,0.1-0.3,0.1c-0.1,0.1-0.2,0.1-0.2,0.3s-0.1,0.2-0.1,0.4c0,0.1,0,0.2,0.1,0.3c0.1,0.1,0.1,0.2,0.2,0.2
			c0.1,0.1,0.2,0.1,0.4,0.2c0.1,0.1,0.3,0.1,0.5,0.2c0.2,0.1,0.4,0.1,0.6,0.2c0.2,0.1,0.4,0.2,0.6,0.3c0.2,0.1,0.3,0.3,0.4,0.5
			c0.1,0.2,0.2,0.4,0.2,0.7c0,0.3-0.1,0.6-0.2,0.8c-0.1,0.2-0.3,0.4-0.5,0.6c-0.2,0.2-0.4,0.3-0.7,0.4c-0.3,0.1-0.5,0.1-0.8,0.1
			c-0.4,0-0.8-0.1-1.1-0.2c-0.4-0.1-0.7-0.4-0.9-0.6l0.8-0.7c0.1,0.2,0.3,0.4,0.6,0.5c0.2,0.1,0.5,0.2,0.7,0.2c0.1,0,0.2,0,0.4,0
			c0.1,0,0.2-0.1,0.3-0.2c0.1-0.1,0.2-0.2,0.3-0.3c0.1-0.1,0.1-0.2,0.1-0.4c0-0.2,0-0.3-0.1-0.4c-0.1-0.1-0.2-0.2-0.3-0.3
			c-0.1-0.1-0.3-0.1-0.4-0.2c-0.2-0.1-0.3-0.1-0.5-0.2c-0.2-0.1-0.4-0.1-0.5-0.2c-0.2-0.1-0.3-0.2-0.5-0.3c-0.1-0.1-0.3-0.3-0.3-0.5
			c-0.1-0.2-0.1-0.4-0.1-0.7c0-0.3,0.1-0.6,0.2-0.8c0.1-0.2,0.3-0.4,0.5-0.5c0.2-0.1,0.4-0.2,0.7-0.3c0.3-0.1,0.5-0.1,0.8-0.1
			c0.3,0,0.6,0.1,0.9,0.2c0.3,0.1,0.6,0.3,0.8,0.5L123.8,43.4z"/>
		<path id="XMLID_1232_" class="st1" d="M131.1,42.1h3.9v0.9h-2.9v1.5h2.7v0.9h-2.7v1.7h3v0.9h-4.1V42.1z"/>
		<path id="XMLID_1229_" class="st1" d="M137.9,42.1h1.4l2.8,4.4h0v-4.4h1.1v5.9h-1.3l-2.8-4.6h0v4.6h-1.1V42.1z"/>
		<path id="XMLID_1227_" class="st1" d="M152.9,43.4c-0.1-0.1-0.3-0.3-0.5-0.4c-0.2-0.1-0.4-0.1-0.6-0.1c-0.1,0-0.2,0-0.4,0
			c-0.1,0-0.2,0.1-0.3,0.1c-0.1,0.1-0.2,0.1-0.2,0.3s-0.1,0.2-0.1,0.4c0,0.1,0,0.2,0.1,0.3c0.1,0.1,0.1,0.2,0.2,0.2
			c0.1,0.1,0.2,0.1,0.4,0.2c0.1,0.1,0.3,0.1,0.5,0.2c0.2,0.1,0.4,0.1,0.6,0.2c0.2,0.1,0.4,0.2,0.6,0.3c0.2,0.1,0.3,0.3,0.4,0.5
			c0.1,0.2,0.2,0.4,0.2,0.7c0,0.3-0.1,0.6-0.2,0.8c-0.1,0.2-0.3,0.4-0.5,0.6c-0.2,0.2-0.4,0.3-0.7,0.4c-0.3,0.1-0.5,0.1-0.8,0.1
			c-0.4,0-0.8-0.1-1.1-0.2c-0.4-0.1-0.7-0.4-0.9-0.6l0.8-0.7c0.1,0.2,0.3,0.4,0.6,0.5c0.2,0.1,0.5,0.2,0.7,0.2c0.1,0,0.2,0,0.4,0
			c0.1,0,0.2-0.1,0.3-0.2c0.1-0.1,0.2-0.2,0.3-0.3c0.1-0.1,0.1-0.2,0.1-0.4c0-0.2,0-0.3-0.1-0.4c-0.1-0.1-0.2-0.2-0.3-0.3
			c-0.1-0.1-0.3-0.1-0.4-0.2c-0.2-0.1-0.3-0.1-0.5-0.2c-0.2-0.1-0.4-0.1-0.5-0.2c-0.2-0.1-0.3-0.2-0.5-0.3c-0.1-0.1-0.3-0.3-0.3-0.5
			c-0.1-0.2-0.1-0.4-0.1-0.7c0-0.3,0.1-0.6,0.2-0.8c0.1-0.2,0.3-0.4,0.5-0.5c0.2-0.1,0.4-0.2,0.7-0.3c0.3-0.1,0.5-0.1,0.8-0.1
			c0.3,0,0.6,0.1,0.9,0.2c0.3,0.1,0.6,0.3,0.8,0.5L152.9,43.4z"/>
		<path id="XMLID_1225_" class="st1" d="M156.3,42.1h3.9v0.9h-2.9v1.5h2.7v0.9h-2.7v1.7h3v0.9h-4.1V42.1z"/>
		<path id="XMLID_1223_" class="st1" d="M168.3,47.8c-0.3,0.1-0.6,0.3-1,0.3s-0.8,0.1-1.2,0.1c-0.5,0-0.9-0.1-1.3-0.2
			c-0.4-0.2-0.7-0.4-1-0.6c-0.3-0.3-0.5-0.6-0.7-1c-0.2-0.4-0.2-0.8-0.2-1.3c0-0.5,0.1-0.9,0.2-1.3c0.2-0.4,0.4-0.7,0.7-1
			c0.3-0.3,0.6-0.5,1-0.6c0.4-0.1,0.8-0.2,1.3-0.2c0.5,0,0.9,0.1,1.3,0.2c0.4,0.1,0.7,0.3,1,0.5l-0.7,0.8c-0.2-0.2-0.4-0.3-0.6-0.4
			c-0.3-0.1-0.6-0.2-0.9-0.2c-0.3,0-0.6,0.1-0.9,0.2c-0.3,0.1-0.5,0.3-0.6,0.5c-0.2,0.2-0.3,0.4-0.4,0.7c-0.1,0.3-0.1,0.5-0.1,0.9
			c0,0.3,0,0.6,0.1,0.9c0.1,0.3,0.2,0.5,0.4,0.7c0.2,0.2,0.4,0.3,0.7,0.5c0.3,0.1,0.6,0.2,0.9,0.2c0.5,0,0.8-0.1,1.2-0.2v-1.5h-1.3
			v-0.9h2.3V47.8z"/>
		<path id="XMLID_1221_" class="st1" d="M176,45.9c0,0.4-0.1,0.7-0.2,1c-0.1,0.3-0.3,0.5-0.5,0.7c-0.2,0.2-0.5,0.4-0.8,0.5
			c-0.3,0.1-0.6,0.2-0.9,0.2c-0.3,0-0.7-0.1-0.9-0.2c-0.3-0.1-0.5-0.3-0.8-0.5c-0.2-0.2-0.4-0.4-0.5-0.7c-0.1-0.3-0.2-0.6-0.2-1
			v-3.8h1.1v3.7c0,0.2,0,0.3,0.1,0.5c0,0.2,0.1,0.3,0.2,0.5c0.1,0.1,0.2,0.2,0.4,0.3c0.2,0.1,0.4,0.1,0.6,0.1c0.3,0,0.5,0,0.6-0.1
			c0.2-0.1,0.3-0.2,0.4-0.3c0.1-0.1,0.2-0.3,0.2-0.5c0-0.2,0.1-0.3,0.1-0.5v-3.7h1.1V45.9z"/>
		<path id="XMLID_1218_" class="st1" d="M179,42.1h2.1c0.3,0,0.6,0,0.8,0.1c0.3,0.1,0.5,0.2,0.7,0.3c0.2,0.1,0.4,0.3,0.5,0.5
			c0.1,0.2,0.2,0.5,0.2,0.8c0,0.4-0.1,0.8-0.4,1.1c-0.2,0.3-0.6,0.5-1,0.5l1.6,2.6h-1.3l-1.4-2.5H180v2.5H179V42.1z M180.9,44.7
			c0.2,0,0.3,0,0.5,0c0.2,0,0.3-0.1,0.4-0.1c0.1-0.1,0.2-0.1,0.3-0.3c0.1-0.1,0.1-0.3,0.1-0.4c0-0.2,0-0.3-0.1-0.4
			c-0.1-0.1-0.2-0.2-0.3-0.2c-0.1-0.1-0.2-0.1-0.4-0.1c-0.1,0-0.3,0-0.4,0h-1v1.7H180.9z"/>
		<path id="XMLID_1215_" class="st1" d="M185.6,45.1c0-0.5,0.1-0.9,0.2-1.3c0.2-0.4,0.4-0.7,0.7-1c0.3-0.3,0.6-0.5,1-0.6
			c0.4-0.1,0.8-0.2,1.3-0.2c0.5,0,0.9,0.1,1.3,0.2c0.4,0.1,0.7,0.4,1,0.6c0.3,0.3,0.5,0.6,0.7,1c0.2,0.4,0.2,0.8,0.2,1.3
			c0,0.5-0.1,0.9-0.2,1.3c-0.2,0.4-0.4,0.7-0.7,1c-0.3,0.3-0.6,0.5-1,0.6c-0.4,0.2-0.8,0.2-1.3,0.2c-0.5,0-0.9-0.1-1.3-0.2
			c-0.4-0.2-0.7-0.4-1-0.6c-0.3-0.3-0.5-0.6-0.7-1C185.7,46,185.6,45.6,185.6,45.1z M186.8,45.1c0,0.3,0,0.6,0.1,0.9
			c0.1,0.3,0.2,0.5,0.4,0.7c0.2,0.2,0.4,0.3,0.6,0.5c0.2,0.1,0.5,0.2,0.8,0.2s0.6-0.1,0.8-0.2c0.3-0.1,0.5-0.3,0.6-0.5
			c0.2-0.2,0.3-0.4,0.4-0.7c0.1-0.3,0.1-0.6,0.1-0.9c0-0.3,0-0.6-0.1-0.9c-0.1-0.3-0.2-0.5-0.4-0.7c-0.2-0.2-0.4-0.3-0.6-0.5
			c-0.3-0.1-0.5-0.2-0.8-0.2s-0.6,0.1-0.8,0.2c-0.2,0.1-0.5,0.3-0.6,0.5c-0.2,0.2-0.3,0.4-0.4,0.7C186.8,44.5,186.8,44.8,186.8,45.1
			z"/>
		<path id="XMLID_1213_" class="st1" d="M197.7,43.4c-0.1-0.1-0.3-0.3-0.5-0.4c-0.2-0.1-0.4-0.1-0.6-0.1c-0.1,0-0.2,0-0.4,0
			c-0.1,0-0.2,0.1-0.3,0.1c-0.1,0.1-0.2,0.1-0.2,0.3s-0.1,0.2-0.1,0.4c0,0.1,0,0.2,0.1,0.3c0.1,0.1,0.1,0.2,0.2,0.2
			c0.1,0.1,0.2,0.1,0.4,0.2c0.1,0.1,0.3,0.1,0.5,0.2c0.2,0.1,0.4,0.1,0.6,0.2c0.2,0.1,0.4,0.2,0.6,0.3c0.2,0.1,0.3,0.3,0.4,0.5
			c0.1,0.2,0.2,0.4,0.2,0.7c0,0.3-0.1,0.6-0.2,0.8c-0.1,0.2-0.3,0.4-0.5,0.6c-0.2,0.2-0.4,0.3-0.7,0.4c-0.3,0.1-0.5,0.1-0.8,0.1
			c-0.4,0-0.8-0.1-1.1-0.2c-0.4-0.1-0.7-0.4-0.9-0.6l0.8-0.7c0.1,0.2,0.3,0.4,0.6,0.5c0.2,0.1,0.5,0.2,0.7,0.2c0.1,0,0.2,0,0.4,0
			c0.1,0,0.2-0.1,0.3-0.2c0.1-0.1,0.2-0.2,0.3-0.3c0.1-0.1,0.1-0.2,0.1-0.4c0-0.2,0-0.3-0.1-0.4c-0.1-0.1-0.2-0.2-0.3-0.3
			c-0.1-0.1-0.3-0.1-0.4-0.2c-0.2-0.1-0.3-0.1-0.5-0.2c-0.2-0.1-0.4-0.1-0.5-0.2c-0.2-0.1-0.3-0.2-0.5-0.3c-0.1-0.1-0.3-0.3-0.3-0.5
			c-0.1-0.2-0.1-0.4-0.1-0.7c0-0.3,0.1-0.6,0.2-0.8c0.1-0.2,0.3-0.4,0.5-0.5c0.2-0.1,0.4-0.2,0.7-0.3c0.3-0.1,0.5-0.1,0.8-0.1
			c0.3,0,0.6,0.1,0.9,0.2c0.3,0.1,0.6,0.3,0.8,0.5L197.7,43.4z"/>
	</g>
	<g id="XMLID_1036_">
		<g id="XMLID_1125_">
			<g id="XMLID_455_">
				<g id="XMLID_456_">
					<path id="XMLID_457_" class="st0" d="M30.2,1.7c-4.6,0-8.9,1.1-12.7,3v27.7c0,3.3,2.7,6,6,6h9.1c1,0,1.7,0.8,1.7,1.7
						c0,1-0.8,1.7-1.7,1.7h-9.1c-5.2,0-9.5-4.2-9.5-9.5V6.8C6.7,11.9,1.8,20.4,1.8,30c0,15.6,12.7,28.3,28.3,28.3
						c15.6,0,28.3-12.7,28.3-28.3C58.5,14.4,45.8,1.7,30.2,1.7z M24,24.5v9.1c0,1-0.8,1.7-1.7,1.7c-1,0-1.7-0.8-1.7-1.7v-9.1
						c0-5.2,4.2-9.5,9.5-9.5H40c1,0,1.7,0.8,1.7,1.7S41,18.6,40,18.6H29.9C26.6,18.6,24,21.3,24,24.5z M41.5,38.9
						c0,5.2-4.2,9.5-9.5,9.5H22c-1,0-1.7-0.8-1.7-1.7s0.8-1.7,1.7-1.7h10.1c3.3,0,6-2.7,6-6v-9.1c0-1,0.8-1.7,1.7-1.7
						c1,0,1.7,0.8,1.7,1.7V38.9z M48.1,41.1c0,1-0.8,1.7-1.7,1.7c-1,0-1.7-0.8-1.7-1.7V31c0-3.3-2.7-6-6-6h-9.1
						c-1,0-1.7-0.8-1.7-1.7c0-1,0.8-1.7,1.7-1.7h9.1c5.2,0,9.5,4.2,9.5,9.5V41.1z"/>
				</g>
			</g>
		</g>
		<g id="XMLID_1037_">
			<g id="XMLID_1038_">
				<path id="XMLID_1039_" class="st0" d="M30.2,1.7c-4.6,0-8.9,1.1-12.7,3v27.7c0,3.3,2.7,6,6,6h9.1c1,0,1.7,0.8,1.7,1.7
					c0,1-0.8,1.7-1.7,1.7h-9.1c-5.2,0-9.5-4.2-9.5-9.5V6.8C6.7,11.9,1.8,20.4,1.8,30c0,15.6,12.7,28.3,28.3,28.3
					c15.6,0,28.3-12.7,28.3-28.3C58.5,14.4,45.8,1.7,30.2,1.7z M24,24.5v9.1c0,1-0.8,1.7-1.7,1.7c-1,0-1.7-0.8-1.7-1.7v-9.1
					c0-5.2,4.2-9.5,9.5-9.5H40c1,0,1.7,0.8,1.7,1.7S41,18.6,40,18.6H29.9C26.6,18.6,24,21.3,24,24.5z M41.5,38.9
					c0,5.2-4.2,9.5-9.5,9.5H22c-1,0-1.7-0.8-1.7-1.7s0.8-1.7,1.7-1.7h10.1c3.3,0,6-2.7,6-6v-9.1c0-1,0.8-1.7,1.7-1.7
					c1,0,1.7,0.8,1.7,1.7V38.9z M48.1,41.1c0,1-0.8,1.7-1.7,1.7c-1,0-1.7-0.8-1.7-1.7V31c0-3.3-2.7-6-6-6h-9.1c-1,0-1.7-0.8-1.7-1.7
					c0-1,0.8-1.7,1.7-1.7h9.1c5.2,0,9.5,4.2,9.5,9.5V41.1z"/>
			</g>
		</g>
	</g>
</g>
</svg>
