<?xml version="1.0" encoding="utf-8"?>
<!-- Generator: Adobe Illustrator 26.5.0, SVG Export Plug-In . SVG Version: 6.00 Build 0)  -->
<svg version="1.1" id="Outline" xmlns="http://www.w3.org/2000/svg" xmlns:xlink="http://www.w3.org/1999/xlink" x="0px" y="0px"
	 width="30.2px" height="46.8px" viewBox="0 0 30.2 46.8" style="enable-background:new 0 0 30.2 46.8;" xml:space="preserve">
<style type="text/css">
	.st0{fill:#FFFFFF;}
</style>
<path class="st0" d="M15.1,16.1c-0.8,0-1.4,0.7-1.4,1.5v2.9c0,0.8,0.6,1.5,1.4,1.5c0.8,0,1.4-0.7,1.4-1.5v-2.9
	C16.5,16.8,15.9,16.1,15.1,16.1z"/>
<path class="st0" d="M16.5,10.2V7.3c0-0.8-0.6-1.5-1.4-1.5c-0.8,0-1.4,0.7-1.4,1.5v2.9c-5.5,0-9.9,4.6-9.9,10.2v8.8
	C3.8,35.7,8.8,41,15.1,41s11.3-5.2,11.3-11.7v-8.8C26.4,14.8,22,10.3,16.5,10.2z M23.6,29.3c0,4.8-3.8,8.8-8.5,8.8s-8.5-3.9-8.5-8.8
	v-8.8c0-4,3.2-7.3,7.1-7.3h2.8c3.9,0,7.1,3.3,7.1,7.3V29.3z"/>
</svg>
