<?xml version="1.0" encoding="utf-8"?>
<!-- Generator: Adobe Illustrator 26.5.0, SVG Export Plug-In . SVG Version: 6.00 Build 0)  -->
<svg version="1.1" id="Capa_1" xmlns="http://www.w3.org/2000/svg" xmlns:xlink="http://www.w3.org/1999/xlink" x="0px" y="0px"
	 width="64px" height="64px" viewBox="0 0 64 64" style="enable-background:new 0 0 64 64;" xml:space="preserve">
<style type="text/css">
	.st0{fill:#F9F9F9;}
	.st1{fill:#48C9EA;}
	.st2{fill:#E6F8FC;}
	.st3{fill:#BBEBF7;}
	.st4{fill:#FFDA84;}
	.st5{fill:#38333A;}
	.st6{fill:#E6E6E6;}
</style>
<g>
</g>
<g>
	<path class="st0" d="M0,55.4L0,55.4c0-13.9,11.2-25.2,25.2-25.2c13.9,0,25.2,11.3,25.2,25.2H0L0,55.4L0,55.4z"/>
	<path class="st1" d="M25.5,6.6h-16c-2.8,0-5,2.3-5,5h7.8h8.2C20.5,8.9,22.8,6.6,25.5,6.6z"/>
	<path class="st2" d="M49.8,55.4V11.6c0-2.8-2.3-5-5-5H14.4h-5c2.8,0,5,2.3,5,5v25v13.8v5H49.8z"/>
	<path class="st3" d="M32.1,15.5h-7.5c-1,0-1.9,0.8-1.9,1.9l0,0c0,1,0.8,1.9,1.9,1.9h7.5c1,0,1.9-0.8,1.9-1.9l0,0
		C34,16.4,33.2,15.5,32.1,15.5z"/>
	<path class="st3" d="M39.6,23.1h-15c-1,0-1.9,0.8-1.9,1.9l0,0c0,1,0.8,1.9,1.9,1.9h15c1,0,1.9-0.8,1.9-1.9l0,0
		C41.5,23.9,40.7,23.1,39.6,23.1z"/>
	<path class="st3" d="M39.6,30.6h-15c-1,0-1.9,0.8-1.9,1.9l0,0c0,1,0.8,1.9,1.9,1.9h15c1,0,1.9-0.8,1.9-1.9l0,0
		C41.5,31.4,40.7,30.6,39.6,30.6z"/>
	<path class="st3" d="M39.6,38.1h-15c-1,0-1.9,0.8-1.9,1.9l0,0c0,1,0.8,1.9,1.9,1.9h15c1,0,1.9-0.8,1.9-1.9l0,0
		C41.5,39,40.7,38.1,39.6,38.1z"/>
	<g>
		<g>
			<path class="st4" d="M47.5,32.8c-8.5,0-15.4,6.9-15.4,15.4S39,63.6,47.5,63.6s15.4-6.9,15.4-15.4C62.8,39.7,55.9,32.8,47.5,32.8z
				"/>
		</g>
		<g>
			<g>
				<path class="st5" d="M39.2,48.9c-0.1-1.2,0-2.3,0.3-3.3c1-3.5,4.2-6,8-6.1v-2.3c0-0.1,0.2-0.2,0.3-0.1l4.7,3.4
					c0.1,0.1,0.1,0.2,0,0.2l-4.7,3.4c-0.1,0.1-0.3,0-0.3-0.1v-2.3c-2.5,0-4.6,1.6-5.5,3.7c-0.3,0.8-0.5,1.7-0.5,2.7
					c0.1,1.3,0.6,2.5,1.3,3.5c0.4,0.5,0.3,1.3-0.2,1.7c-0.5,0.4-1.2,0.3-1.6-0.2C40,51.9,39.3,50.5,39.2,48.9z M52.6,44.5
					c0.8,1,1.3,2.2,1.3,3.5c0,1-0.1,1.9-0.5,2.7c-0.9,2.2-3,3.7-5.5,3.7v-2.3c0-0.1-0.2-0.2-0.3-0.1l-4.7,3.4
					c-0.1,0.1-0.1,0.2,0,0.2l4.7,3.4c0.1,0.1,0.3,0,0.3-0.1v-2.3c3.8,0,7-2.6,8-6.1c0.3-1,0.4-2.2,0.3-3.3c-0.2-1.6-0.8-3.1-1.8-4.2
					c-0.4-0.5-1.1-0.6-1.6-0.2C52.3,43.3,52.2,44,52.6,44.5z"/>
			</g>
		</g>
	</g>
	<circle class="st1" cx="9.9" cy="28.1" r="1.1"/>
	<circle class="st1" cx="56.2" cy="22.8" r="1.1"/>
	<circle class="st4" cx="50.3" cy="4.3" r="1.1"/>
	<path class="st6" d="M12,41.5c2.1,2.2,2.2,5.5,2.2,5.5s-3.2-0.3-5.3-2.6c-2.1-2.2-2.2-5.5-2.2-5.5S10,39.3,12,41.5z"/>
	<path class="st6" d="M18.6,45c-2.2,2.1-5.5,2.2-5.5,2.2s0.3-3.2,2.6-5.3c2.2-2.1,5.5-2.2,5.5-2.2S20.8,42.9,18.6,45z"/>
	<path class="st5" d="M19.9,55.3c-3.5,0.2-7.4,0-11.5,0v-9.4c3.8,0.5,7.7,0.5,11.5,0V55.3z"/>
</g>
</svg>
