<?xml version="1.0" encoding="utf-8"?>
<!-- Generator: Adobe Illustrator 19.0.0, SVG Export Plug-In . SVG Version: 6.00 Build 0)  -->
<svg version="1.1" id="Capa_1" xmlns="http://www.w3.org/2000/svg" xmlns:xlink="http://www.w3.org/1999/xlink" x="0px" y="0px"
	 width="104.5px" height="30.2px" viewBox="-433.8 276.6 104.5 30.2" style="enable-background:new -433.8 276.6 104.5 30.2;"
	 xml:space="preserve">
<style type="text/css">
	.st0{fill:#85105B;}
</style>
<g id="XMLID_2641_">
	<path id="XMLID_2685_" class="st0" d="M-417.3,277.1c7.1,0,13,5.1,14.2,11.9h-10.6l-1.6-3.8l-2.1-5l-2.1,5l-2.2,5h4.2h2.8h1.4h10.3
		c0.1,0.5,0.1,1,0.1,1.5c0,8-6.5,14.5-14.4,14.5c-7,0-12.9-5-14.2-11.7h10.2l1.6,3.8l2.1,5l2.1-5l2.1-5h-4.2h-1.5h-2.7h-9.9
		c-0.1-0.5-0.1-1.1-0.1-1.7C-431.9,283.7-425.4,277.1-417.3,277.1L-417.3,277.1z"/>
	<path id="XMLID_2673_" class="st0" d="M-394.8,290c-0.8,0-1.4-0.1-1.9-0.2c-0.5-0.2-1.1-0.3-1.5-0.5V287h0.2c0.5,0.4,1,0.7,1.6,0.9
		c0.6,0.2,1.1,0.3,1.7,0.3c0.2,0,0.3,0,0.5-0.1c0.2,0,0.4-0.1,0.5-0.2c0.2-0.1,0.3-0.2,0.5-0.3s0.2-0.3,0.2-0.5
		c0-0.2-0.1-0.5-0.3-0.6c-0.2-0.2-0.4-0.2-0.7-0.3c-0.3-0.1-0.7-0.2-1.1-0.2c-0.4-0.1-0.7-0.2-1.1-0.3c-0.8-0.2-1.3-0.6-1.6-1.1
		c-0.3-0.5-0.5-1-0.5-1.7c0-0.9,0.4-1.6,1.1-2.2c0.8-0.5,1.7-0.8,2.8-0.8c0.6,0,1.1,0.1,1.7,0.2c0.5,0.2,1.1,0.3,1.5,0.5v2.2h-0.2
		c-0.4-0.3-0.8-0.5-1.3-0.8c-0.5-0.2-1.1-0.3-1.6-0.3c-0.2,0-0.4,0-0.5,0.1c-0.2,0-0.4,0.1-0.5,0.2s-0.3,0.2-0.4,0.3
		c-0.1,0.2-0.2,0.3-0.2,0.5c0,0.2,0.1,0.5,0.2,0.6c0.2,0.2,0.5,0.3,1,0.4c0.3,0.1,0.6,0.2,0.9,0.2c0.3,0.1,0.6,0.2,1,0.3
		c0.7,0.2,1.1,0.5,1.5,1c0.3,0.4,0.5,0.9,0.5,1.6c0,1-0.4,1.8-1.1,2.3C-392.5,289.7-393.5,290-394.8,290L-394.8,290z M-387.8,289.9
		l3.3-9.6h2.7l3.3,9.6h-2.5l-0.6-1.9h-3.1l-0.6,1.9H-387.8L-387.8,289.9z M-382.2,286.1l-1-3.2l-1,3.2H-382.2L-382.2,286.1z
		 M-367,289.9h-2.3l-3.7-6.7v6.7h-2.2v-9.6h3l3.1,5.5v-5.5h2.2V289.9L-367,289.9z M-358.9,290c-1.5,0-2.6-0.5-3.4-1.3
		c-0.8-0.8-1.3-2.1-1.3-3.7c0-1.5,0.5-2.8,1.3-3.7c0.8-0.9,2-1.4,3.4-1.4c0.4,0,0.8,0,1.1,0.1s0.6,0.1,0.9,0.2
		c0.2,0.1,0.5,0.2,0.7,0.2c0.2,0.1,0.5,0.2,0.6,0.3v2.3h-0.2c-0.2-0.1-0.2-0.2-0.5-0.4c-0.2-0.2-0.4-0.3-0.6-0.5
		c-0.2-0.2-0.5-0.2-0.8-0.4c-0.3-0.1-0.5-0.2-0.8-0.2c-0.4,0-0.7,0.1-1,0.2c-0.3,0.1-0.5,0.3-0.8,0.5c-0.2,0.2-0.5,0.6-0.6,1
		c-0.2,0.4-0.2,0.9-0.2,1.5c0,0.6,0.1,1.1,0.2,1.5c0.2,0.4,0.4,0.8,0.6,1c0.2,0.2,0.5,0.4,0.8,0.5c0.3,0.1,0.6,0.2,0.9,0.2
		c0.3,0,0.6-0.1,0.9-0.2c0.3-0.1,0.5-0.2,0.8-0.4c0.2-0.2,0.4-0.2,0.5-0.4c0.2-0.2,0.3-0.2,0.5-0.4h0.2v2.3
		c-0.2,0.1-0.4,0.2-0.6,0.3c-0.2,0.1-0.5,0.2-0.7,0.2c-0.3,0.1-0.6,0.2-0.8,0.2C-358,290-358.4,290-358.9,290L-358.9,290z
		 M-343.1,284.9c0,1.5-0.4,2.8-1.2,3.7c-0.8,0.9-2,1.4-3.4,1.4s-2.6-0.5-3.4-1.4c-0.8-0.9-1.2-2.1-1.2-3.7s0.4-2.8,1.2-3.7
		c0.8-0.9,2-1.4,3.4-1.4s2.6,0.5,3.4,1.4C-343.5,282.2-343.1,283.4-343.1,284.9L-343.1,284.9z M-345.6,284.9c0-0.5-0.1-1.1-0.2-1.5
		c-0.2-0.4-0.3-0.8-0.5-1c-0.2-0.2-0.5-0.5-0.7-0.5c-0.2-0.1-0.5-0.2-0.8-0.2c-0.3,0-0.5,0.1-0.8,0.2c-0.2,0.1-0.5,0.3-0.7,0.5
		c-0.2,0.2-0.4,0.6-0.5,1c-0.2,0.4-0.2,0.9-0.2,1.5c0,0.6,0.1,1.1,0.2,1.5c0.2,0.4,0.3,0.7,0.5,1c0.2,0.2,0.5,0.5,0.7,0.5
		c0.2,0.1,0.5,0.2,0.8,0.2c0.3,0,0.5-0.1,0.8-0.2c0.2-0.2,0.5-0.3,0.7-0.5c0.2-0.3,0.4-0.6,0.5-1
		C-345.6,286-345.6,285.5-345.6,284.9L-345.6,284.9z M-331.2,289.9h-3l-2.7-3.5h-0.8v3.5h-2.4v-9.6h3.9c0.5,0,1,0,1.4,0.1
		c0.4,0.1,0.8,0.2,1.1,0.4c0.4,0.2,0.6,0.5,0.8,0.8c0.2,0.3,0.3,0.8,0.3,1.3c0,0.8-0.2,1.3-0.5,1.8c-0.3,0.5-0.8,0.8-1.3,1.1
		L-331.2,289.9L-331.2,289.9z M-335.1,283.2c0-0.2-0.1-0.5-0.2-0.6c-0.1-0.2-0.2-0.3-0.5-0.4c-0.2-0.1-0.3-0.1-0.5-0.2
		c-0.2,0-0.4,0-0.7,0h-0.8v2.6h0.7c0.3,0,0.6,0,0.8-0.1c0.2-0.1,0.5-0.2,0.6-0.2c0.2-0.2,0.3-0.2,0.4-0.5
		C-335.2,283.7-335.1,283.5-335.1,283.2L-335.1,283.2z"/>
	<path id="XMLID_2642_" class="st0" d="M-394.5,303.3c-0.8,0-1.5-0.1-2.1-0.2s-1.1-0.3-1.6-0.5v-2.3h0.2c0.5,0.4,1.1,0.7,1.7,0.9
		c0.6,0.2,1.2,0.3,1.8,0.3c0.2,0,0.3,0,0.5-0.1c0.2,0,0.5-0.1,0.5-0.2c0.2-0.1,0.3-0.2,0.5-0.3c0.2-0.2,0.2-0.3,0.2-0.5
		c0-0.2-0.1-0.5-0.3-0.6c-0.2-0.2-0.5-0.2-0.7-0.3c-0.3-0.1-0.7-0.2-1.1-0.2c-0.4-0.1-0.8-0.2-1.1-0.3c-0.8-0.2-1.4-0.6-1.7-1.1
		c-0.3-0.5-0.5-1-0.5-1.7c0-0.9,0.4-1.6,1.2-2.1c0.8-0.5,1.8-0.8,3-0.8c0.6,0,1.2,0.1,1.8,0.2c0.6,0.2,1.1,0.3,1.6,0.5v2.1h-0.2
		c-0.4-0.3-0.8-0.5-1.4-0.8c-0.5-0.2-1.1-0.3-1.7-0.3c-0.2,0-0.4,0-0.6,0.1c-0.2,0-0.4,0.1-0.5,0.2c-0.2,0.1-0.3,0.2-0.4,0.3
		c-0.2,0.2-0.2,0.3-0.2,0.5c0,0.2,0.1,0.5,0.3,0.6c0.2,0.2,0.5,0.3,1.1,0.4c0.3,0.1,0.7,0.2,1,0.2c0.3,0.1,0.6,0.2,1,0.3
		c0.7,0.2,1.2,0.5,1.5,1c0.3,0.4,0.5,0.9,0.5,1.6c0,0.9-0.4,1.7-1.1,2.3C-392.1,303-393.2,303.3-394.5,303.3L-394.5,303.3z
		 M-388.8,303.2v-9.6h6.9v1.8h-4.3v1.7h4v1.8h-4v2.4h4.3v1.8L-388.8,303.2L-388.8,303.2z M-371.8,302.6c-0.5,0.2-1,0.3-1.8,0.5
		c-0.7,0.2-1.4,0.2-2.1,0.2c-1.6,0-2.8-0.5-3.8-1.3c-0.9-0.8-1.5-2.1-1.5-3.7c0-1.5,0.5-2.7,1.5-3.6c0.9-0.9,2.2-1.4,3.9-1.4
		c0.8,0,1.5,0.1,2.1,0.2c0.5,0.2,1.1,0.4,1.7,0.6v2.2h-0.2c-0.2-0.1-0.3-0.2-0.5-0.4c-0.2-0.2-0.5-0.3-0.7-0.4
		c-0.2-0.2-0.5-0.2-0.9-0.4c-0.3-0.1-0.7-0.2-1.1-0.2c-0.5,0-0.8,0.1-1.2,0.2c-0.4,0.2-0.7,0.3-1,0.6c-0.2,0.2-0.5,0.6-0.6,1
		c-0.2,0.4-0.2,0.8-0.2,1.4c0,1.1,0.3,1.9,0.9,2.4c0.6,0.5,1.4,0.8,2.4,0.8c0.1,0,0.2,0,0.3,0c0.2,0,0.2,0,0.3,0v-1.8h-2V298h4.4
		L-371.8,302.6L-371.8,302.6z M-365.8,303.3c-1.4,0-2.4-0.3-3.1-0.9s-1.1-1.5-1.1-2.7v-6h2.5v6c0,0.7,0.2,1.1,0.4,1.5
		c0.2,0.3,0.7,0.5,1.3,0.5s1-0.2,1.3-0.5c0.3-0.3,0.4-0.8,0.4-1.5v-6h2.5v6c0,1.1-0.4,2.1-1.1,2.7
		C-363.4,303-364.4,303.3-365.8,303.3L-365.8,303.3z M-350.3,303.2h-3.1l-2.8-3.5h-0.9v3.5h-2.5v-9.6h4.1c0.5,0,1.1,0,1.5,0.1
		c0.4,0.1,0.8,0.2,1.1,0.4c0.4,0.2,0.6,0.5,0.8,0.8c0.2,0.3,0.3,0.8,0.3,1.3c0,0.8-0.2,1.3-0.5,1.8c-0.4,0.5-0.8,0.8-1.4,1.1
		L-350.3,303.2L-350.3,303.2z M-354.3,296.5c0-0.2-0.1-0.5-0.2-0.6c-0.1-0.2-0.2-0.3-0.5-0.4c-0.2-0.1-0.3-0.1-0.5-0.2
		c-0.2,0-0.5,0-0.7,0h-0.8v2.6h0.7c0.4,0,0.7,0,0.9-0.1c0.2-0.1,0.5-0.2,0.6-0.2c0.2-0.2,0.3-0.2,0.4-0.5
		C-354.4,297.1-354.3,296.8-354.3,296.5L-354.3,296.5z M-340.3,298.4c0,1.5-0.5,2.8-1.3,3.6c-0.8,0.9-2.1,1.3-3.6,1.3
		s-2.8-0.5-3.6-1.4c-0.8-0.9-1.3-2.1-1.3-3.6c0-1.5,0.5-2.8,1.3-3.6c0.8-0.9,2.1-1.3,3.6-1.3s2.8,0.5,3.6,1.3
		C-340.7,295.6-340.3,296.8-340.3,298.4L-340.3,298.4z M-343,298.4c0-0.5-0.1-1.1-0.2-1.5c-0.2-0.4-0.3-0.8-0.5-1
		c-0.2-0.2-0.5-0.5-0.8-0.5c-0.3-0.1-0.5-0.2-0.8-0.2c-0.3,0-0.6,0.1-0.8,0.2c-0.2,0.1-0.5,0.3-0.8,0.5c-0.2,0.2-0.4,0.6-0.5,1
		c-0.2,0.4-0.2,0.9-0.2,1.5c0,0.6,0.1,1.1,0.2,1.5c0.2,0.4,0.3,0.7,0.5,1c0.2,0.2,0.5,0.5,0.8,0.5c0.3,0.1,0.5,0.2,0.8,0.2
		s0.6-0.1,0.8-0.2c0.3-0.2,0.5-0.3,0.8-0.5c0.2-0.3,0.4-0.6,0.5-1C-343,299.4-343,299-343,298.4L-343,298.4z M-335.7,303.3
		c-0.8,0-1.5-0.1-2.1-0.2c-0.6-0.2-1.1-0.3-1.6-0.5v-2.3h0.2c0.5,0.4,1.1,0.7,1.7,0.9c0.6,0.2,1.2,0.3,1.8,0.3c0.2,0,0.3,0,0.5-0.1
		c0.2,0,0.5-0.1,0.5-0.2c0.2-0.1,0.3-0.2,0.5-0.3c0.2-0.2,0.2-0.3,0.2-0.5c0-0.2-0.1-0.5-0.3-0.6c-0.2-0.2-0.5-0.2-0.7-0.3
		c-0.3-0.1-0.7-0.2-1.1-0.2c-0.4-0.1-0.8-0.2-1.1-0.3c-0.8-0.2-1.4-0.6-1.7-1.1c-0.3-0.5-0.5-1-0.5-1.7c0-0.9,0.4-1.6,1.2-2.1
		c0.8-0.5,1.8-0.8,3-0.8c0.6,0,1.2,0.1,1.8,0.2c0.6,0.2,1.1,0.3,1.6,0.5v2.1h-0.2c-0.4-0.3-0.8-0.5-1.4-0.8
		c-0.5-0.2-1.1-0.3-1.7-0.3c-0.2,0-0.4,0-0.6,0.1c-0.2,0-0.4,0.1-0.5,0.2c-0.2,0.1-0.3,0.2-0.4,0.3c-0.2,0.2-0.2,0.3-0.2,0.5
		c0,0.2,0.1,0.5,0.3,0.6c0.2,0.2,0.5,0.3,1.1,0.4c0.3,0.1,0.7,0.2,1,0.2c0.3,0.1,0.6,0.2,1,0.3c0.7,0.2,1.2,0.5,1.5,1
		c0.3,0.4,0.5,0.9,0.5,1.6c0,0.9-0.4,1.7-1.1,2.3C-333.2,303-334.3,303.3-335.7,303.3L-335.7,303.3z"/>
</g>
</svg>
