<?xml version="1.0" encoding="utf-8"?>
<!-- Generator: Adobe Illustrator 26.5.0, SVG Export Plug-In . SVG Version: 6.00 Build 0)  -->
<svg version="1.1" id="Capa_1" xmlns="http://www.w3.org/2000/svg" xmlns:xlink="http://www.w3.org/1999/xlink" x="0px" y="0px"
	 width="64px" height="64px" viewBox="0 0 64 64" style="enable-background:new 0 0 64 64;" xml:space="preserve">
<style type="text/css">
	.st0{fill:#FD5B5F;}
	.st1{fill:#FFDA84;}
	.st2{clip-path:url(#SVGID_00000087381403380093024050000007464773848333211521_);}
	.st3{fill:#C0EEDD;}
	.st4{clip-path:url(#SVGID_00000152984112492530428040000018395971393231151529_);}
	.st5{fill:#FCF3E2;}
	.st6{clip-path:url(#SVGID_00000165936170494151539700000016789503574982485937_);}
	.st7{clip-path:url(#SVGID_00000037674480644765721740000017375781895081045890_);}
	.st8{fill:none;}
	.st9{clip-path:url(#SVGID_00000061466547980148133020000016713638497599423878_);}
	.st10{clip-path:url(#SVGID_00000003069622186009825280000007880477738357512837_);}
	.st11{fill:#F4AAA0;}
	.st12{fill:#855B54;}
	.st13{fill:#2D32DB;}
	.st14{fill:#FF988D;}
	.st15{clip-path:url(#SVGID_00000036964784645606032050000016295497957871439277_);}
	.st16{fill:none;stroke:#8D65FD;stroke-miterlimit:10;}
	.st17{fill:#76514B;}
</style>
<g>
</g>
<circle id="XMLID_547_" class="st0" cx="11.2" cy="46.5" r="1.1"/>
<circle id="XMLID_546_" class="st1" cx="53.3" cy="40.1" r="1.1"/>
<circle id="XMLID_545_" class="st1" cx="10.8" cy="13.2" r="1.1"/>
<g id="XMLID_527_">
	<g>
		<defs>
			<rect id="SVGID_1_" x="6.7" y="1" width="51.2" height="62.3"/>
		</defs>
		<clipPath id="SVGID_00000122684132385699189130000010065564704363953030_">
			<use xlink:href="#SVGID_1_"  style="overflow:visible;"/>
		</clipPath>
		<g id="XMLID_3545_" style="clip-path:url(#SVGID_00000122684132385699189130000010065564704363953030_);">
			<path id="XMLID_507_" class="st3" d="M47.8,55c0-2.6-2.1-4.7-4.7-4.7H20.6c-2.6,0-4.7,2.1-4.7,4.7l2.8,32.1c0,1,0.8,1.7,2,1.7
				h21.8c1,0,2-0.8,2.1-2L47.8,55z"/>
		</g>
	</g>
</g>
<g id="XMLID_524_">
	<g>
		<defs>
			<rect id="SVGID_00000019666284707909927480000009946878959385636007_" x="6.7" y="1" width="51.2" height="62.3"/>
		</defs>
		<clipPath id="SVGID_00000132785870541143202500000011115114804702488485_">
			<use xlink:href="#SVGID_00000019666284707909927480000009946878959385636007_"  style="overflow:visible;"/>
		</clipPath>
		<g id="XMLID_3549_" style="clip-path:url(#SVGID_00000132785870541143202500000011115114804702488485_);">
			<rect id="XMLID_519_" x="30.8" y="55.8" class="st5" width="0.8" height="32.9"/>
		</g>
	</g>
</g>
<g id="XMLID_521_">
	<g>
		<defs>
			<rect id="SVGID_00000167359116561262989720000001363476006169301403_" x="6.7" y="1" width="51.2" height="62.3"/>
		</defs>
		<clipPath id="SVGID_00000018947657116133227470000011528446394915991465_">
			<use xlink:href="#SVGID_00000167359116561262989720000001363476006169301403_"  style="overflow:visible;"/>
		</clipPath>
		<g id="XMLID_3494_" style="clip-path:url(#SVGID_00000018947657116133227470000011528446394915991465_);">
			<path id="XMLID_516_" class="st3" d="M9.3,88.9c-1.2,0-2.5-0.4-3.4-1.2c-1.3-1.2-2-3.1-1.5-4.8L8.4,61c1-6.2,6.4-10.7,12.9-10.7
				h8.2V59h-8.2c-2.2,0-3.9,1.4-4.2,3.5l-2.9,14.9l13.4-6.3l3.7,7.9l-20.1,9.4C10.7,88.8,10,88.9,9.3,88.9z"/>
		</g>
	</g>
</g>
<g id="XMLID_518_">
	<g>
		<defs>
			<rect id="SVGID_00000157282584160696951720000012996427270686829488_" x="6.7" y="1" width="51.2" height="62.3"/>
		</defs>
		<clipPath id="SVGID_00000019664874198690849030000013401227702186998454_">
			<use xlink:href="#SVGID_00000157282584160696951720000012996427270686829488_"  style="overflow:visible;"/>
		</clipPath>
		<g id="XMLID_3473_" style="clip-path:url(#SVGID_00000019664874198690849030000013401227702186998454_);">
			<path id="XMLID_513_" class="st3" d="M53.9,88.7c-0.7,0-1.4-0.2-2.2-0.5l-20-9.4l3.7-7.9L49,77.1l-2.7-14.8
				c-0.3-2.1-2.2-3.6-4.2-3.6h-8.2V50h8.2c6.4,0,11.8,4.5,12.9,10.8l4,21.7c0.4,1.7-0.2,3.6-1.5,4.7C56.3,88.2,55.2,88.7,53.9,88.7z
				"/>
		</g>
	</g>
</g>
<g id="XMLID_517_">
	<rect id="XMLID_530_" x="6.7" y="1" class="st8" width="51.2" height="62.3"/>
</g>
<g id="XMLID_3548_">
	<path id="XMLID_506_" class="st5" d="M40.9,55c0,2.6-2.1,4.7-4.7,4.7s-4.7-2.1-4.7-4.7c0-2.7,2.1-4.7,4.7-4.7
		C38.6,50.3,40.9,52.4,40.9,55"/>
</g>
<g id="XMLID_512_">
	<g>
		<defs>
			<rect id="SVGID_00000057147244160735240520000015732731163927120295_" x="6.7" y="1" width="51.2" height="62.3"/>
		</defs>
		<clipPath id="SVGID_00000076585923075579283960000001991704670270942876_">
			<use xlink:href="#SVGID_00000057147244160735240520000015732731163927120295_"  style="overflow:visible;"/>
		</clipPath>
		<g id="XMLID_3547_" style="clip-path:url(#SVGID_00000076585923075579283960000001991704670270942876_);">
			<path id="XMLID_505_" class="st5" d="M21.8,55c0,2.6,2.1,4.7,4.7,4.7s4.7-2.1,4.7-4.7c0-2.7-2.1-4.7-4.7-4.7S21.8,52.4,21.8,55"
				/>
		</g>
	</g>
</g>
<g id="XMLID_509_">
	<g>
		<defs>
			<rect id="SVGID_00000115480428872197639130000000152689406173826978_" x="6.7" y="1" width="51.2" height="62.3"/>
		</defs>
		<clipPath id="SVGID_00000125581034604947477790000006271171605411987587_">
			<use xlink:href="#SVGID_00000115480428872197639130000000152689406173826978_"  style="overflow:visible;"/>
		</clipPath>
		<g id="XMLID_3472_" style="clip-path:url(#SVGID_00000125581034604947477790000006271171605411987587_);">
			<path id="XMLID_503_" class="st11" d="M31.4,56.8L31.4,56.8c-3.3,0-6.1-3-6.1-6.5v-5.3c0-1,0.8-2,2-2h8.3c1,0,2,0.8,2,2v5.3
				C37.5,53.8,34.9,56.8,31.4,56.8z"/>
		</g>
	</g>
</g>
<g id="XMLID_508_">
	<rect id="XMLID_522_" x="6.7" y="1" class="st8" width="51.2" height="62.3"/>
</g>
<g id="XMLID_488_">
	<g id="XMLID_3538_">
		<ellipse id="XMLID_502_" class="st11" cx="43.7" cy="33.8" rx="2" ry="2.1"/>
	</g>
	<g id="XMLID_3537_">
		<ellipse id="XMLID_501_" class="st11" cx="19.8" cy="33.8" rx="2" ry="2.1"/>
	</g>
	<g id="XMLID_3496_">
		<path id="XMLID_500_" class="st12" d="M19,32.2v-9.1c0-7.1,5.8-12.9,12.9-12.9l0,0c7.1,0,12.9,5.8,12.9,12.9v9.1"/>
	</g>
	<g id="XMLID_3544_">
		<path id="XMLID_498_" class="st13" d="M40.1,45.1"/>
	</g>
	<g id="XMLID_3542_">
		<path id="XMLID_497_" class="st13" d="M40.1,45.1"/>
	</g>
	<g id="XMLID_3539_">
		<path id="XMLID_496_" class="st14" d="M25.1,44.4c0,0,1.4,4.5,6.1,4.5c4.7,0,6.8-4,6.8-4L25.1,44.4z"/>
	</g>
	<g id="XMLID_3536_">
		<path id="XMLID_495_" class="st11" d="M31.9,47L31.9,47c-6.6,0-11.8-5.2-11.8-11.8V23.6c0-6.5,5.2-11.8,11.8-11.8l0,0
			c6.5,0,11.8,5.2,11.8,11.8v11.5C43.7,41.6,38.4,47,31.9,47z"/>
	</g>
	<g id="XMLID_3048_">
		<g id="XMLID_3497_">
			<g>
				<defs>
					<path id="SVGID_00000096053603356668713200000010624932396763865480_" d="M31.9,47.2L31.9,47.2c-6.6,0-11.8-5.2-11.8-11.8V23.6
						c0-6.6,5.2-11.8,11.8-11.8l0,0c6.6,0,11.8,5.2,11.8,11.8v11.6C43.7,41.7,38.4,47.2,31.9,47.2z"/>
				</defs>
				<clipPath id="SVGID_00000181055105874649437780000010348069260726519174_">
					<use xlink:href="#SVGID_00000096053603356668713200000010624932396763865480_"  style="overflow:visible;"/>
				</clipPath>
				<g id="XMLID_3534_" style="clip-path:url(#SVGID_00000181055105874649437780000010348069260726519174_);">
					<path id="XMLID_494_" class="st16" d="M24.8,39.7"/>
				</g>
			</g>
		</g>
		<g id="XMLID_944_">
			<circle id="XMLID_492_" class="st17" cx="31.8" cy="10.3" r="6.8"/>
		</g>
		<g id="XMLID_3546_">
			<path id="XMLID_489_" class="st12" d="M19.6,32.2h12.8l1-5.2l1.2,5.2h9.6c0,0,3.7-20.9-13.3-20.9C31.1,11.3,17,10.6,19.6,32.2z"
				/>
		</g>
		<g id="XMLID_935_">
			<path id="XMLID_493_" class="st5" d="M31.9,43.2h-0.1c-1.4-0.1-2.5-1.1-2.5-1.1c-0.2-0.2-0.1-0.4,0-0.6c0.2-0.2,0.4-0.1,0.6,0
				c0.2,0.2,1.9,1.9,3.9,0c0.2-0.2,0.4-0.1,0.6,0c0.2,0.2,0.1,0.4,0,0.6C33.7,42.9,32.8,43.2,31.9,43.2z"/>
		</g>
	</g>
</g>
</svg>
