<?xml version="1.0" encoding="utf-8"?>
<!-- Generator: Adobe Illustrator 26.5.0, SVG Export Plug-In . SVG Version: 6.00 Build 0)  -->
<svg version="1.1" id="Capa_1" xmlns="http://www.w3.org/2000/svg" xmlns:xlink="http://www.w3.org/1999/xlink" x="0px" y="0px"
	 width="64px" height="64px" viewBox="0 0 64 64" style="enable-background:new 0 0 64 64;" xml:space="preserve">
<style type="text/css">
	.st0{fill:#FD5B5F;}
	.st1{fill:#FFDA84;}
	.st2{fill:#77C6EC;}
	.st3{fill:#F4AAA0;}
	.st4{clip-path:url(#SVGID_00000070076897154169365140000001710238392876931236_);}
	.st5{fill:none;stroke:#8D65FD;stroke-miterlimit:10;}
	.st6{clip-path:url(#SVGID_00000036959063594451769300000006349757329043828873_);}
	.st7{fill:#F55C63;}
	.st8{clip-path:url(#SVGID_00000172433146915037775800000011566354071707974818_);}
	.st9{clip-path:url(#SVGID_00000052786635750709506440000005629016282436029829_);}
	.st10{clip-path:url(#SVGID_00000005251784084566556670000004875336458916763532_);}
	.st11{fill:#F7F7F8;}
	.st12{clip-path:url(#SVGID_00000009579915438567002360000017421056706675224744_);}
	.st13{fill:#ECEDEF;}
	.st14{clip-path:url(#SVGID_00000132773903510281568380000011699692751600894635_);}
	.st15{clip-path:url(#SVGID_00000098928555036563370370000012377215518039691166_);}
	.st16{clip-path:url(#SVGID_00000031187779689619206020000005452434376279558057_);}
	.st17{clip-path:url(#SVGID_00000108306350530169481990000013225719921753267349_);}
	.st18{clip-path:url(#SVGID_00000179630401501630439030000002373394152382713741_);}
	.st19{fill:#FCF3E2;}
	.st20{fill:none;stroke:#39363C;stroke-linecap:round;stroke-linejoin:round;stroke-miterlimit:10;}
</style>
<g>
</g>
<g>
	<circle id="XMLID_122_" class="st0" cx="21.3" cy="5.8" r="1.1"/>
	<circle id="XMLID_123_" class="st1" cx="51.4" cy="50.4" r="1.1"/>
	<g id="XMLID_10_">
		<polygon id="XMLID_89_" class="st2" points="57.3,22.1 57.7,23.4 59,23.4 57.9,24.1 58.3,25.3 57.3,24.6 56.3,25.3 56.7,24.1 
			55.6,23.4 56.9,23.4 		"/>
	</g>
	<g id="XMLID_436_">
		<polygon id="XMLID_88_" class="st2" points="43.5,3.3 43.6,5.4 45.5,6 43.6,6.6 43.6,8.7 42.4,7 40.4,7.7 41.6,6 40.4,4.4 42.3,5 
					"/>
	</g>
	<g id="XMLID_453_">
		<polygon id="XMLID_8_" class="st2" points="7.2,25.3 7.2,26.5 8.4,26.9 7.3,27.3 7.3,28.4 6.6,27.5 5.4,27.9 6.1,26.9 5.4,26 
			6.5,26.3 		"/>
	</g>
	<g id="XMLID_155_">
		<g id="XMLID_318_">
			<g id="XMLID_384_">
				<g id="XMLID_2348_">
					<g id="XMLID_2349_">
						<ellipse id="XMLID_110_" class="st3" cx="48.2" cy="34.4" rx="2.8" ry="3.1"/>
					</g>
				</g>
				<g id="XMLID_2346_">
					<g id="XMLID_2347_">
						<ellipse id="XMLID_109_" class="st3" cx="13.9" cy="34.4" rx="2.8" ry="3.1"/>
					</g>
				</g>
				<g id="XMLID_2344_">
					<g id="XMLID_2345_">
						<path id="XMLID_108_" class="st3" d="M31.2,60.8L31.2,60.8c-9.3,0-16.9-7.6-16.9-16.9V27.4c0-9.3,7.6-16.9,16.9-16.9l0,0
							c9.3,0,16.9,7.6,16.9,16.9v16.5C48.1,53.2,40.5,60.8,31.2,60.8z"/>
					</g>
				</g>
				<g id="XMLID_12_">
					<g>
						<defs>
							<path id="SVGID_1_" d="M32,60.8h-1.6c-8.9,0-16.1-7.2-16.1-16.1V26.6c0-8.9,7.2-16.1,16.1-16.1H32c8.9,0,16.1,7.2,16.1,16.1
								v18.1C48.1,53.6,40.9,60.8,32,60.8z"/>
						</defs>
						<clipPath id="SVGID_00000096028734126175893790000002649955126354583948_">
							<use xlink:href="#SVGID_1_"  style="overflow:visible;"/>
						</clipPath>
						<g id="XMLID_2342_" style="clip-path:url(#SVGID_00000096028734126175893790000002649955126354583948_);">
							<g id="XMLID_2343_">
								<path id="XMLID_107_" class="st5" d="M21.2,50.1"/>
							</g>
						</g>
					</g>
					<g>
						<defs>
							<path id="SVGID_00000121958041162937537790000003149063867181959337_" d="M32,60.8h-1.6c-8.9,0-16.1-7.2-16.1-16.1V26.6
								c0-8.9,7.2-16.1,16.1-16.1H32c8.9,0,16.1,7.2,16.1,16.1v18.1C48.1,53.6,40.9,60.8,32,60.8z"/>
						</defs>
						<clipPath id="SVGID_00000157296488728595662890000002866919625945315208_">
							<use xlink:href="#SVGID_00000121958041162937537790000003149063867181959337_"  style="overflow:visible;"/>
						</clipPath>
						<g id="XMLID_1414_" style="clip-path:url(#SVGID_00000157296488728595662890000002866919625945315208_);">
							<g id="XMLID_2341_">
								<rect id="XMLID_106_" x="45.8" y="25.4" class="st7" width="2.5" height="35.9"/>
							</g>
						</g>
					</g>
					<g>
						<defs>
							<path id="SVGID_00000137822468861214883020000003852969114225042850_" d="M32,60.8h-1.6c-8.9,0-16.1-7.2-16.1-16.1V26.6
								c0-8.9,7.2-16.1,16.1-16.1H32c8.9,0,16.1,7.2,16.1,16.1v18.1C48.1,53.6,40.9,60.8,32,60.8z"/>
						</defs>
						<clipPath id="SVGID_00000028308749563676185080000012875981733521393086_">
							<use xlink:href="#SVGID_00000137822468861214883020000003852969114225042850_"  style="overflow:visible;"/>
						</clipPath>
						<g id="XMLID_78_" style="clip-path:url(#SVGID_00000028308749563676185080000012875981733521393086_);">
							<g id="XMLID_79_">
								<polygon id="XMLID_104_" class="st7" points="16.7,58.1 14.2,58.1 14.2,43.8 14,22 16.4,22 16.7,43.7 								"/>
							</g>
						</g>
					</g>
					<g>
						<defs>
							<path id="SVGID_00000159459399132710828980000005232620599440756376_" d="M32,60.8h-1.6c-8.9,0-16.1-7.2-16.1-16.1V26.6
								c0-8.9,7.2-16.1,16.1-16.1H32c8.9,0,16.1,7.2,16.1,16.1v18.1C48.1,53.6,40.9,60.8,32,60.8z"/>
						</defs>
						<clipPath id="SVGID_00000183227171899652644840000015506804775718731922_">
							<use xlink:href="#SVGID_00000159459399132710828980000005232620599440756376_"  style="overflow:visible;"/>
						</clipPath>
						<g id="XMLID_76_" style="clip-path:url(#SVGID_00000183227171899652644840000015506804775718731922_);">
							<g id="XMLID_77_">
								<path id="XMLID_99_" class="st7" d="M45.8,39.4c0.1,3.4-2.7,6.2-6.1,6.3L22.9,46c-3.4,0.1-6.2-2.7-6.3-6.1l-2.4,22.4
									l32.1-0.5L45.8,39.4z"/>
							</g>
						</g>
					</g>
					<g>
						<defs>
							<path id="SVGID_00000057850280522453274680000015933915639664117155_" d="M32,60.8h-1.6c-8.9,0-16.1-7.2-16.1-16.1V26.6
								c0-8.9,7.2-16.1,16.1-16.1H32c8.9,0,16.1,7.2,16.1,16.1v18.1C48.1,53.6,40.9,60.8,32,60.8z"/>
						</defs>
						<clipPath id="SVGID_00000063617941112804736780000011977948669688050595_">
							<use xlink:href="#SVGID_00000057850280522453274680000015933915639664117155_"  style="overflow:visible;"/>
						</clipPath>
						<g id="XMLID_75_" style="clip-path:url(#SVGID_00000063617941112804736780000011977948669688050595_);">
							
								<rect id="XMLID_98_" x="9" y="22.4" transform="matrix(0.9684 -0.2495 0.2495 0.9684 -5.42 9.0412)" class="st11" width="47.9" height="7"/>
						</g>
					</g>
					<g>
						<defs>
							<path id="SVGID_00000106826766918855666290000003383915562282603966_" d="M32,60.8h-1.6c-8.9,0-16.1-7.2-16.1-16.1V26.6
								c0-8.9,7.2-16.1,16.1-16.1H32c8.9,0,16.1,7.2,16.1,16.1v18.1C48.1,53.6,40.9,60.8,32,60.8z"/>
						</defs>
						<clipPath id="SVGID_00000158732767267782103600000009762247344333579671_">
							<use xlink:href="#SVGID_00000106826766918855666290000003383915562282603966_"  style="overflow:visible;"/>
						</clipPath>
						<g id="XMLID_346_" style="clip-path:url(#SVGID_00000158732767267782103600000009762247344333579671_);">
							
								<rect id="XMLID_97_" x="7.8" y="17.8" transform="matrix(0.9684 -0.2495 0.2495 0.9684 -4.3151 8.5938)" class="st13" width="47.9" height="7"/>
						</g>
					</g>
					<g>
						<defs>
							<path id="SVGID_00000049929791551373018670000006682952689549573300_" d="M32,60.8h-1.6c-8.9,0-16.1-7.2-16.1-16.1V26.6
								c0-8.9,7.2-16.1,16.1-16.1H32c8.9,0,16.1,7.2,16.1,16.1v18.1C48.1,53.6,40.9,60.8,32,60.8z"/>
						</defs>
						<clipPath id="SVGID_00000088838695665134641120000000435330760845281926_">
							<use xlink:href="#SVGID_00000049929791551373018670000006682952689549573300_"  style="overflow:visible;"/>
						</clipPath>
						<g id="XMLID_348_" style="clip-path:url(#SVGID_00000088838695665134641120000000435330760845281926_);">
							
								<rect id="XMLID_96_" x="5.3" y="13.6" transform="matrix(0.9684 -0.2495 0.2495 0.9684 -3.3464 7.8373)" class="st11" width="47.9" height="7"/>
						</g>
					</g>
					<g>
						<defs>
							<path id="SVGID_00000080197268345958300310000008867888857589006723_" d="M32,60.8h-1.6c-8.9,0-16.1-7.2-16.1-16.1V26.6
								c0-8.9,7.2-16.1,16.1-16.1H32c8.9,0,16.1,7.2,16.1,16.1v18.1C48.1,53.6,40.9,60.8,32,60.8z"/>
						</defs>
						<clipPath id="SVGID_00000100382145374315494570000001951378263671583653_">
							<use xlink:href="#SVGID_00000080197268345958300310000008867888857589006723_"  style="overflow:visible;"/>
						</clipPath>
						<g id="XMLID_349_" style="clip-path:url(#SVGID_00000100382145374315494570000001951378263671583653_);">
							
								<rect id="XMLID_95_" x="4.4" y="8.6" transform="matrix(0.9684 -0.2495 0.2495 0.9684 -2.1269 7.4542)" class="st13" width="47.9" height="7"/>
						</g>
					</g>
					<g>
						<defs>
							<path id="SVGID_00000028293994927528888200000008657285430977683347_" d="M32,60.8h-1.6c-8.9,0-16.1-7.2-16.1-16.1V26.6
								c0-8.9,7.2-16.1,16.1-16.1H32c8.9,0,16.1,7.2,16.1,16.1v18.1C48.1,53.6,40.9,60.8,32,60.8z"/>
						</defs>
						<clipPath id="SVGID_00000070097230860452617310000012730237887598946997_">
							<use xlink:href="#SVGID_00000028293994927528888200000008657285430977683347_"  style="overflow:visible;"/>
						</clipPath>
						<g id="XMLID_350_" style="clip-path:url(#SVGID_00000070097230860452617310000012730237887598946997_);">
							
								<rect id="XMLID_94_" x="33" y="-4" transform="matrix(0.1929 -0.9812 0.9812 0.1929 9.1296 50.9673)" class="st13" width="5.1" height="47.9"/>
						</g>
					</g>
					<g>
						<defs>
							<path id="SVGID_00000170998468744339823510000000446047576912369291_" d="M32,60.8h-1.6c-8.9,0-16.1-7.2-16.1-16.1V26.6
								c0-8.9,7.2-16.1,16.1-16.1H32c8.9,0,16.1,7.2,16.1,16.1v18.1C48.1,53.6,40.9,60.8,32,60.8z"/>
						</defs>
						<clipPath id="SVGID_00000016054756832515361090000010126455631209933743_">
							<use xlink:href="#SVGID_00000170998468744339823510000000446047576912369291_"  style="overflow:visible;"/>
						</clipPath>
						<g id="XMLID_74_" style="clip-path:url(#SVGID_00000016054756832515361090000010126455631209933743_);">
							
								<rect id="XMLID_93_" x="33.2" y="-9.4" transform="matrix(0.1929 -0.9812 0.9812 0.1929 14.8536 47.245)" class="st11" width="5.8" height="47.9"/>
						</g>
					</g>
					<g>
						<defs>
							<path id="SVGID_00000146501601591681533810000013544359622710925230_" d="M32,60.8h-1.6c-8.9,0-16.1-7.2-16.1-16.1V26.6
								c0-8.9,7.2-16.1,16.1-16.1H32c8.9,0,16.1,7.2,16.1,16.1v18.1C48.1,53.6,40.9,60.8,32,60.8z"/>
						</defs>
						<clipPath id="SVGID_00000044865572105199698920000015842459099640521093_">
							<use xlink:href="#SVGID_00000146501601591681533810000013544359622710925230_"  style="overflow:visible;"/>
						</clipPath>
						<g id="XMLID_73_" style="clip-path:url(#SVGID_00000044865572105199698920000015842459099640521093_);">
							
								<rect id="XMLID_92_" x="35.4" y="-13.1" transform="matrix(0.1929 -0.9812 0.9812 0.1929 20.0973 46.2296)" class="st13" width="5.6" height="47.9"/>
						</g>
					</g>
				</g>
				<g id="XMLID_11_">
					<path id="XMLID_91_" class="st19" d="M33.6,54.1c-0.2,0-0.3-0.1-0.4-0.2c-1.5-1.7-3.1-0.3-3.2-0.3c-0.2,0.2-0.6,0.2-0.9-0.1
						c-0.2-0.2-0.2-0.6,0.1-0.9c0.9-0.8,3-1.7,4.9,0.4c0.2,0.2,0.2,0.6,0,0.9C33.9,54,33.7,54.1,33.6,54.1z"/>
				</g>
			</g>
		</g>
		<g id="XMLID_5_">
			<g id="XMLID_7_">
				<path id="XMLID_84_" class="st19" d="M24.8,40.4c-3.9,0-7-3.2-7-7c0-3.9,3.1-7,7-7s7,3.2,7,7C31.8,37.3,28.7,40.4,24.8,40.4z
					 M24.8,27.5c-3.2,0-5.8,2.6-5.8,5.8c0,3.2,2.6,5.8,5.8,5.8c3.2,0,5.8-2.6,5.8-5.8C30.6,30.2,28,27.5,24.8,27.5z"/>
			</g>
			<g id="XMLID_6_">
				<path id="XMLID_9_" class="st19" d="M37.7,40.4c-3.9,0-7-3.2-7-7c0-3.9,3.1-7,7-7s7,3.2,7,7C44.7,37.3,41.6,40.4,37.7,40.4z
					 M37.7,27.5c-3.2,0-5.8,2.6-5.8,5.8c0,3.2,2.6,5.8,5.8,5.8c3.2,0,5.8-2.6,5.8-5.8C43.5,30.2,40.9,27.5,37.7,27.5z"/>
			</g>
		</g>
	</g>
	<line id="XMLID_633_" class="st20" x1="12.6" y1="17" x2="5.6" y2="13.9"/>
	<line id="XMLID_156_" class="st20" x1="14.8" y1="13.8" x2="12.5" y2="11.5"/>
</g>
</svg>
