<?xml version="1.0" encoding="utf-8"?>
<!-- Generator: Adobe Illustrator 19.0.0, SVG Export Plug-In . SVG Version: 6.00 Build 0)  -->
<svg version="1.1" id="Capa_1" xmlns="http://www.w3.org/2000/svg" xmlns:xlink="http://www.w3.org/1999/xlink" x="0px" y="0px"
	 width="145.4px" height="36.7px" viewBox="-454.9 273.3 145.4 36.7" style="enable-background:new -454.9 273.3 145.4 36.7;"
	 xml:space="preserve">
<style type="text/css">
	.st0{fill:#6F6F6E;}
	.st1{fill:#1A1A1A;}
	.st2{fill:#FFFFFF;}
	.st3{fill:#DE002B;}
</style>
<g id="XMLID_47_" transform="translate(-252.98 -367.679)">
	<g id="XMLID_2198_" transform="translate(328.218 404.996)">
		<rect id="XMLID_2200_" x="-496.9" y="256.9" class="st0" width="109.7" height="9.8"/>
	</g>
	<g id="XMLID_2038_" transform="translate(327.924 367.731)">
		<g id="XMLID_2085_" transform="translate(0 0)">
			<path id="XMLID_2197_" class="st1" d="M-487.9,286.3c-0.4-0.5-0.9-0.8-1.4-1c-0.9-0.3-1.7-0.6-2.6-0.7c-0.7-0.1-1.4-0.4-2-0.7
				c-0.4-0.2-0.6-0.6-0.6-1.1c0-0.5,0.2-1,0.7-1.3c0.5-0.3,1.2-0.5,1.8-0.5c1.1,0,2.2,0.3,3.2,0.8V280c-0.3-0.1-0.5-0.2-0.8-0.3
				c-0.8-0.3-1.6-0.4-2.4-0.4c-0.8,0-1.6,0.1-2.4,0.5c-0.6,0.3-1.2,0.7-1.6,1.3c-0.4,0.5-0.6,1.2-0.6,1.8c0,0.6,0.1,1.2,0.5,1.6
				c0.4,0.5,0.8,0.8,1.4,1.1c0.8,0.3,1.6,0.6,2.4,0.7c0.8,0.1,1.5,0.4,2.3,0.7c0.4,0.2,0.6,0.6,0.6,1c0,0.5-0.2,1-0.7,1.2
				c-0.7,0.3-1.4,0.5-2.1,0.4c-0.7,0-1.4-0.1-2.1-0.3c-0.8-0.3-1.5-0.7-2.2-1.2v2c0.5,0.3,1.1,0.6,1.7,0.8c0.8,0.2,1.7,0.4,2.6,0.4
				c0.9,0,1.8-0.1,2.7-0.4c0.6-0.2,1.2-0.7,1.6-1.2c0.4-0.5,0.6-1.2,0.6-1.8C-487.4,287.3-487.6,286.7-487.9,286.3z"/>
			<path id="XMLID_2196_" class="st1" d="M-477.2,288.6l-2.4-6.9h-1.3l-2.4,6.8l-2.3-6.8h-1.9l3.4,9.5h1.5l2.3-6.6l2.3,6.6h1.5
				l3.4-9.5h-1.8L-477.2,288.6z"/>
			<rect id="XMLID_2191_" x="-471.7" y="281.8" class="st1" width="1.9" height="9.5"/>
			<path id="XMLID_2190_" class="st1" d="M-462.1,286.4c-0.6-0.3-1.3-0.5-2-0.6c-0.5-0.1-1.1-0.3-1.6-0.5c-0.3-0.2-0.4-0.5-0.4-0.8
				c0-0.4,0.2-0.7,0.5-1c0.4-0.3,0.9-0.4,1.4-0.4c0.9,0,1.7,0.2,2.5,0.6l0.1,0.1v-1.6l0,0c-0.2-0.1-0.4-0.2-0.7-0.3
				c-0.6-0.2-1.3-0.3-1.9-0.3c-0.7,0-1.3,0.1-2,0.4c-0.5,0.2-1,0.6-1.3,1c-0.3,0.4-0.5,1-0.5,1.5c0,0.5,0.1,1,0.4,1.4
				c0.3,0.4,0.7,0.7,1.1,0.9c0.6,0.3,1.3,0.5,1.9,0.6c0.6,0.1,1.1,0.3,1.6,0.5c0.3,0.1,0.5,0.4,0.5,0.7c0,0.4-0.2,0.7-0.5,0.9
				c-0.5,0.2-1,0.4-1.5,0.3c-0.5,0-1.1-0.1-1.6-0.2c-0.6-0.2-1.2-0.5-1.7-0.8v1.7l0,0c0.4,0.2,0.8,0.4,1.2,0.5
				c0.7,0.2,1.4,0.3,2.1,0.3c0.7,0,1.4-0.1,2-0.3c0.5-0.2,1-0.5,1.3-1c0.3-0.4,0.5-1,0.5-1.5c0-0.5-0.1-0.9-0.4-1.3
				C-461.3,286.9-461.7,286.6-462.1,286.4z"/>
			<path id="XMLID_2188_" class="st1" d="M-453.2,286.4c-0.6-0.3-1.3-0.5-2-0.6c-0.6-0.1-1.1-0.3-1.6-0.5c-0.3-0.2-0.4-0.5-0.4-0.8
				c0-0.4,0.2-0.7,0.5-1c0.4-0.3,0.9-0.4,1.4-0.4c0.9,0,1.7,0.2,2.5,0.6l0.1,0.1v-1.6l0,0c-0.2-0.1-0.4-0.2-0.7-0.3
				c-0.6-0.2-1.3-0.3-1.9-0.3c-0.7,0-1.3,0.1-2,0.4c-0.5,0.2-1,0.6-1.3,1c-0.3,0.4-0.5,1-0.5,1.5c0,0.5,0.1,1,0.4,1.4
				c0.3,0.4,0.7,0.7,1.1,0.9c0.6,0.3,1.3,0.5,1.9,0.6c0.6,0.1,1.1,0.3,1.6,0.5c0.3,0.1,0.5,0.4,0.5,0.7c0,0.4-0.2,0.7-0.5,0.9
				c-0.5,0.2-1,0.4-1.5,0.3c-0.5,0-1.1-0.1-1.6-0.2c-0.6-0.2-1.2-0.5-1.7-0.8v1.7l0,0c0.4,0.2,0.8,0.4,1.2,0.5
				c0.7,0.2,1.4,0.3,2.1,0.3c0.7,0,1.4-0.1,2-0.3c0.5-0.2,1-0.5,1.3-1c0.3-0.4,0.5-1,0.5-1.5c0-0.5-0.1-0.9-0.4-1.3
				C-452.3,286.9-452.7,286.6-453.2,286.4z"/>
			<path id="XMLID_2187_" class="st1" d="M-441.7,287.8l-3.2-6.1h-1.5v9.5h1.7l0-5.9l2.4,4.4h1.3l2.4-4.5v6h1.7v-9.6h-1.5
				L-441.7,287.8z"/>
			<path id="XMLID_2183_" class="st1" d="M-435.2,291.3h6.5v-1.5h-4.7v-2.6h4.4v-1.5h-4.4v-2.4h4.7v-1.5h-6.5V291.3z"/>
			<path id="XMLID_2124_" class="st1" d="M-423.5,281.8h-3.6v9.5h3.6c1.6,0,2.8-0.4,3.7-1.3s1.3-2,1.3-3.5s-0.4-2.7-1.3-3.5
				S-422,281.8-423.5,281.8z M-425.2,283.3h1.6c2.1,0,3.2,1.1,3.2,3.2c0,2.2-1,3.2-3.2,3.2h-1.6V283.3z"/>
			<rect id="XMLID_2122_" x="-417" y="281.8" class="st1" width="1.9" height="9.5"/>
			<path id="XMLID_2116_" class="st1" d="M-408.9,283.2c0.5,0,1,0.1,1.5,0.2c0.4,0.1,0.8,0.3,1.2,0.5l0-1.7
				c-0.3-0.1-0.6-0.2-0.9-0.3c-0.6-0.2-1.2-0.3-1.8-0.3c-0.9,0-1.7,0.2-2.5,0.6c-0.7,0.4-1.3,1-1.6,1.7c-0.8,1.6-0.8,3.5,0,5.2
				c0.4,0.7,0.9,1.3,1.6,1.7c0.8,0.4,1.6,0.6,2.5,0.6c0.9,0,1.9-0.2,2.7-0.6l0-1.7c-0.8,0.4-1.8,0.7-2.7,0.7c-0.8,0-1.5-0.3-2.1-0.9
				c-1-1.5-1-3.5,0-5C-410.5,283.5-409.7,283.1-408.9,283.2z"/>
			<path id="XMLID_2106_" class="st1" d="M-399.4,281.8h-1.5l-4.4,9.5h1.9l1-2.2h4.5l1,2.2h1.9L-399.4,281.8z M-398.5,287.6h-3.2
				l1.6-3.7L-398.5,287.6z"/>
			<g id="XMLID_2087_" transform="translate(258.524 0.94)">
				<path id="XMLID_2103_" class="st1" d="M-650.5,278.7h-1.9v11.6h6.9v-1.6h-5.1L-650.5,278.7z"/>
			</g>
		</g>
	</g>
	<g id="XMLID_1176_" transform="translate(337.964 409.272)">
		<g id="XMLID_1180_" transform="translate(0)">
			<path id="XMLID_2037_" class="st2" d="M-501.6,260.4c-0.4-0.1-0.8-0.3-1.1-0.5l0.4-1c0.6,0.4,1.3,0.6,2,0.6c0.3,0,0.6,0,0.9-0.2
				c0.2-0.1,0.3-0.3,0.3-0.5c0-0.2-0.1-0.4-0.3-0.5c-0.3-0.2-0.7-0.3-1-0.3c-0.4-0.1-0.9-0.2-1.3-0.4c-0.3-0.1-0.5-0.3-0.7-0.6
				c-0.2-0.3-0.2-0.6-0.2-0.9c0-0.4,0.1-0.7,0.3-1c0.2-0.3,0.5-0.5,0.9-0.7c0.4-0.2,0.9-0.3,1.3-0.2c0.4,0,0.9,0.1,1.3,0.2
				c0.4,0.1,0.7,0.3,1,0.5l-0.4,1c-0.5-0.4-1.1-0.6-1.8-0.6c-0.3,0-0.6,0.1-0.8,0.2c-0.2,0.1-0.3,0.3-0.3,0.6c0,0.1,0,0.2,0.1,0.3
				c0.1,0.1,0.2,0.2,0.4,0.2c0.3,0.1,0.5,0.2,0.8,0.2c0.6,0.1,1.2,0.3,1.7,0.7c0.3,0.3,0.5,0.7,0.5,1.1c0,0.5-0.2,1.1-0.7,1.4
				c-0.6,0.4-1.2,0.5-1.9,0.5C-500.7,260.6-501.2,260.6-501.6,260.4z"/>
			<path id="XMLID_2036_" class="st2" d="M-486.2,260.6v-6.2h4.3v1.1h-2.9v1.4h2.8v1.1h-2.8v1.6h2.9v1.1H-486.2z"/>
			<path id="XMLID_2034_" class="st2" d="M-465.1,257.1v3c-0.3,0.2-0.7,0.3-1.1,0.3c-0.4,0.1-0.8,0.1-1.2,0.1
				c-0.6,0-1.2-0.1-1.7-0.4c-0.5-0.2-0.9-0.6-1.1-1.1c-0.5-1.1-0.5-2.3,0-3.4c0.2-0.5,0.6-0.9,1.1-1.1c0.5-0.3,1.1-0.4,1.7-0.4
				c0.4,0,0.8,0.1,1.2,0.2c0.3,0.1,0.7,0.3,1,0.5l-0.4,1c-0.3-0.2-0.5-0.3-0.8-0.4c-0.3-0.1-0.6-0.1-0.9-0.1c-1.2,0-1.8,0.7-1.8,2.1
				c0,0.6,0.1,1.1,0.5,1.6c0.4,0.4,0.9,0.6,1.4,0.5c0.3,0,0.7,0,1-0.1v-1.4h-1.2v-0.9H-465.1z"/>
			<path id="XMLID_2033_" class="st2" d="M-453.7,260c-0.5-0.5-0.7-1.2-0.7-2v-3.6h1.3v3.7c0,0.4,0.1,0.8,0.3,1.1
				c0.6,0.5,1.4,0.5,2,0c0.2-0.3,0.4-0.7,0.3-1.1v-3.7h1.3v3.6c0,0.7-0.2,1.4-0.7,2C-450.9,260.9-452.5,260.9-453.7,260L-453.7,260z
				"/>
			<path id="XMLID_1542_" class="st2" d="M-432.8,260.6h-1.5l-1.1-2c-0.1-0.1-0.2-0.2-0.3-0.3c-0.1-0.1-0.3-0.1-0.5-0.1h-0.7v2.4
				h-1.4v-6.2h2.8c0.6,0,1.2,0.1,1.6,0.5c0.4,0.4,0.6,0.9,0.6,1.4c0,0.4-0.1,0.8-0.4,1.2c-0.3,0.3-0.7,0.5-1.1,0.6
				c0.4,0.1,0.7,0.4,0.8,0.7L-432.8,260.6z M-434.7,256.9c0.4-0.4,0.4-0.9,0-1.3c-0.3-0.2-0.6-0.2-0.9-0.2h-1.3v1.7h1.3
				C-435.3,257.1-435,257.1-434.7,256.9L-434.7,256.9z"/>
			<path id="XMLID_1187_" class="st2" d="M-421,260.2c-0.5-0.3-0.8-0.6-1-1.1c-0.5-1.1-0.5-2.3,0-3.4c0.2-0.5,0.6-0.8,1-1.1
				c1-0.5,2.2-0.5,3.2,0c0.5,0.3,0.8,0.6,1,1.1c0.5,1.1,0.5,2.3,0,3.4c-0.2,0.5-0.6,0.8-1,1.1C-418.8,260.8-419.9,260.8-421,260.2
				L-421,260.2z M-418.1,259c0.6-1,0.6-2.2,0-3.1c-0.6-0.7-1.7-0.7-2.3-0.1c0,0-0.1,0.1-0.1,0.1c-0.6,1-0.6,2.2,0,3.1
				c0.6,0.7,1.6,0.7,2.3,0.1C-418.2,259.1-418.2,259.1-418.1,259L-418.1,259z"/>
			<path id="XMLID_1185_" class="st2" d="M-404.6,260.4c-0.4-0.1-0.8-0.3-1.1-0.5l0.4-1c0.6,0.4,1.3,0.6,2,0.6c0.3,0,0.6,0,0.9-0.2
				c0.2-0.1,0.3-0.3,0.3-0.5c0-0.2-0.1-0.4-0.3-0.5c-0.3-0.2-0.7-0.3-1-0.3c-0.4-0.1-0.9-0.2-1.3-0.4c-0.3-0.1-0.5-0.3-0.7-0.6
				c-0.2-0.3-0.2-0.6-0.2-0.9c0-0.4,0.1-0.7,0.3-1c0.2-0.3,0.5-0.5,0.9-0.7c0.4-0.2,0.9-0.3,1.3-0.2c0.4,0,0.9,0.1,1.3,0.2
				c0.4,0.1,0.7,0.3,1,0.5l-0.4,1c-0.5-0.4-1.1-0.6-1.8-0.6c-0.3,0-0.6,0.1-0.8,0.2c-0.2,0.1-0.3,0.3-0.3,0.6c0,0.1,0,0.2,0.1,0.3
				c0.1,0.1,0.2,0.2,0.4,0.2c0.3,0.1,0.5,0.2,0.8,0.2c0.6,0.1,1.2,0.3,1.7,0.7c0.3,0.3,0.5,0.7,0.5,1.1c0,0.5-0.2,1.1-0.7,1.4
				c-0.6,0.4-1.2,0.5-1.9,0.5C-403.7,260.6-404.1,260.6-404.6,260.4z"/>
		</g>
	</g>
	<g id="XMLID_62_" transform="translate(252.98 367.679)">
		<g id="XMLID_1143_" transform="translate(0 39.789)">
			<rect id="XMLID_1155_" x="-451.6" y="255.4" class="st3" width="8.8" height="8.8"/>
		</g>
		<rect id="XMLID_1130_" x="-451.6" y="279.3" class="st3" width="8.8" height="8.8"/>
		<g id="XMLID_291_" transform="translate(39.793 39.789)">
			<rect id="XMLID_293_" x="-475.5" y="255.4" class="st3" width="8.8" height="8.8"/>
		</g>
		<g id="XMLID_63_" transform="translate(39.793)">
			<rect id="XMLID_249_" x="-475.5" y="279.3" class="st3" width="8.8" height="8.8"/>
		</g>
	</g>
</g>
</svg>
