<?xml version="1.0" encoding="utf-8"?>
<!-- Generator: Adobe Illustrator 26.5.0, SVG Export Plug-In . SVG Version: 6.00 Build 0)  -->
<svg version="1.1" id="Capa_1" xmlns="http://www.w3.org/2000/svg" xmlns:xlink="http://www.w3.org/1999/xlink" x="0px" y="0px"
	 width="26.2px" height="26.3px" viewBox="0 0 26.2 26.3" style="enable-background:new 0 0 26.2 26.3;" xml:space="preserve">
<style type="text/css">
	.st0{fill-rule:evenodd;clip-rule:evenodd;fill:#FFFFFF;}
</style>
<g id="WA_Logo">
	<g>
		<path class="st0" d="M22.1,4.2c-2.4-2.4-5.5-3.6-8.8-3.7C6.4,0.5,0.8,6.1,0.8,12.9c0,2.2,0.6,4.3,1.7,6.2l-1.8,6.4l6.6-1.7
			c1.8,1,3.9,1.5,5.9,1.5h0c6.9,0,12.4-5.6,12.4-12.4C25.7,9.6,24.4,6.5,22.1,4.2z M13.3,23.3L13.3,23.3c-1.9,0-3.7-0.5-5.3-1.4
			l-0.4-0.2l-3.9,1l1-3.8l-0.2-0.4c-1-1.6-1.6-3.6-1.6-5.5c0-5.7,4.6-10.3,10.4-10.3c2.8,0,5.4,1.1,7.3,3c2,2,3,4.6,3,7.3
			C23.6,18.7,19,23.3,13.3,23.3z M18.9,15.6c-0.3-0.2-1.8-0.9-2.1-1c-0.3-0.1-0.5-0.2-0.7,0.2c-0.2,0.3-0.8,1-1,1.2
			c-0.2,0.2-0.4,0.2-0.7,0.1c-0.3-0.2-1.3-0.5-2.5-1.5c-0.9-0.8-1.5-1.8-1.7-2.2s0-0.5,0.1-0.6c0.1-0.1,0.3-0.4,0.5-0.5
			c0.2-0.2,0.2-0.3,0.3-0.5c0.1-0.2,0.1-0.4,0-0.5c-0.1-0.2-0.7-1.7-1-2.3C9.9,7.1,9.6,7.2,9.5,7.2c-0.2,0-0.4,0-0.6,0
			C8.6,7.2,8.3,7.3,8,7.6c-0.3,0.3-1.1,1.1-1.1,2.6c0,1.5,1.1,3,1.3,3.2c0.2,0.2,2.2,3.3,5.3,4.7c0.7,0.3,1.3,0.5,1.8,0.7
			c0.7,0.2,1.4,0.2,2,0.1c0.6-0.1,1.8-0.8,2.1-1.5c0.3-0.7,0.3-1.4,0.2-1.5C19.5,15.8,19.2,15.7,18.9,15.6z"/>
	</g>
</g>
</svg>
