<?xml version="1.0" encoding="utf-8"?>
<!-- Generator: Adobe Illustrator 19.0.0, SVG Export Plug-In . SVG Version: 6.00 Build 0)  -->
<svg version="1.1" id="Capa_1" xmlns="http://www.w3.org/2000/svg" xmlns:xlink="http://www.w3.org/1999/xlink" x="0px" y="0px"
	 width="127px" height="36.7px" viewBox="-445.1 273.3 127 36.7" style="enable-background:new -445.1 273.3 127 36.7;"
	 xml:space="preserve">
<style type="text/css">
	.st0{fill:#104F8B;}
	.st1{fill:#15285F;}
</style>
<g id="XMLID_2609_">
	<path id="XMLID_2620_" class="st0" d="M-428.8,276.6c-8.4,0-15.2,6.7-15.2,15.2c0,3.4,1.2,6.6,3.1,9.3l12.7-16.6h-1.3h-1.3
		c-1.4,0-2.8,0.1-3.8,0.3c-0.6,0-1.2,0.3-1.5,0.5c-0.5,0.4-1.1,1.1-1.5,1.8c-0.1,0.1-0.1,0.3-0.2,0.4l-0.8-0.2l1.2-4.8h15.8
		l-12.6,16.9c0.9-0.1,1.1-0.1,1.8-0.1c0.5,0,1.3,0,2.3,0.1l2.2,0.2c0.8,0.1,1.4,0.1,2,0.1c1.1,0,1.9-0.1,2.7-0.4
		c0.6-0.2,1.1-0.4,1.6-0.8c0.9-0.6,1.7-1.6,2.2-2.6c0.1-0.1,0.2-0.3,0.3-0.4l0.7,0.2c-0.3,0.9-0.4,1.1-0.7,1.9
		c-0.7,1.5-1.4,2.5-2.5,3.2c-1.1,0.8-2.3,1.2-3.7,1.2h-0.3c-1,0-1.9-0.1-4.4-0.4c-2.6-0.4-3.9-0.5-5.1-0.5c-0.9,0-1.6,0.1-2.5,0.2
		c-1.1,0.2-1.5,0.4-2.5,0.8c2.7,3,6.7,4.9,11.2,4.9c8.4,0,15.2-6.7,15.2-15.2C-413.7,283.3-420.5,276.6-428.8,276.6L-428.8,276.6z"
		/>
	<g id="XMLID_2610_">
		<path id="XMLID_2619_" class="st1" d="M-388.9,284.4h-11.7l-1.4,3.1c0.5-0.3,0.7-0.4,1.1-0.5c0.7-0.3,1.3-0.5,2.2-0.6
			c0.6-0.1,1.2-0.2,2.2-0.2c0.4,0,0.8,0,1.2,0h1.7l-9.3,13.1h12.9l1.4-3.4c-0.5,0.3-0.7,0.4-1.1,0.6c-0.8,0.4-1.5,0.6-2.4,0.8
			c-0.7,0.1-1.4,0.2-2.3,0.2c-0.4,0-0.7,0-1.2,0h-2.3L-388.9,284.4L-388.9,284.4z"/>
		<path id="XMLID_2618_" class="st1" d="M-350,299.3c-0.3-0.2-0.4-0.3-0.4-0.5c-0.1-0.2-0.2-0.4-0.3-0.4c-0.1-0.4-0.2-0.9-0.2-1.3
			v-0.7v-8.2v-0.9c0-1,0-1.3,0.2-1.7c0.1-0.2,0.1-0.4,0.2-0.4c0.2-0.3,0.3-0.4,0.6-0.6h-4.9c0.4,0.3,0.4,0.4,0.5,0.6
			c0.1,0.2,0.2,0.4,0.3,0.5c0.1,0.4,0.2,0.7,0.2,1.6c0,0.4,0,0.8,0,0.9v8.2v0.7c0,0.5-0.1,1.1-0.3,1.4c-0.1,0.2-0.2,0.4-0.3,0.4
			c-0.1,0.2-0.2,0.3-0.4,0.5h4.8V299.3L-350,299.3z"/>
		<path id="XMLID_2617_" class="st1" d="M-335,284.5c-0.4-0.1-0.5-0.2-0.9-0.3c-0.9-0.2-1.7-0.3-2.7-0.3c-1.6,0-3,0.3-4.3,0.8
			c-0.8,0.4-1.4,0.7-2.1,1.2c-1.9,1.4-2.8,3.6-2.8,6.1c0,2.4,0.9,4.5,2.7,5.9c1.4,1.1,3.3,1.7,5.6,1.7c1.3,0,2.7-0.2,4.2-0.7
			c0.1,0,0.2,0,0.3-0.1v-2.7c-0.4,0.3-0.5,0.4-0.7,0.4c-0.3,0.2-0.6,0.4-0.9,0.4c-0.9,0.4-1.7,0.5-2.6,0.5c-1.5,0-2.9-0.5-3.9-1.6
			c-0.9-1-1.4-2.5-1.4-4.1c0-1.5,0.5-3,1.3-4c0.4-0.4,0.9-0.9,1.3-1.1c0.9-0.5,1.8-0.7,2.9-0.7c0.9,0,1.8,0.2,2.7,0.5
			c0.5,0.3,0.8,0.4,1.2,0.7L-335,284.5L-335,284.5z"/>
		<path id="XMLID_2616_" class="st1" d="M-322,292.5v3.7c0,0.8,0,1.1-0.1,1.5c0,0.3-0.1,0.4-0.2,0.7c-0.1,0.3-0.3,0.5-0.5,0.8
			c-0.1,0.1-0.1,0.1-0.2,0.2h4.8c-0.2-0.2-0.3-0.3-0.4-0.4c-0.1-0.2-0.2-0.4-0.3-0.5c-0.2-0.4-0.2-0.6-0.2-1.3c0-0.4,0-0.7,0-0.8
			v-8.2v-0.9c0-0.7,0.1-1.2,0.2-1.5c0.1-0.2,0.2-0.4,0.3-0.5c0.2-0.3,0.3-0.4,0.6-0.6h-4.9c0.3,0.3,0.4,0.4,0.5,0.6
			c0.1,0.2,0.2,0.4,0.3,0.5c0.1,0.4,0.2,0.8,0.2,1.5v0.8v2.7h-6.6V288c0-0.9,0-1.3,0-1.8c0-0.3,0.1-0.4,0.1-0.7
			c0.1-0.4,0.4-0.8,0.6-1c0,0,0.1-0.1,0.2-0.2h-4.8c0.3,0.3,0.4,0.4,0.5,0.6c0.1,0.2,0.2,0.4,0.3,0.5c0.2,0.4,0.2,0.6,0.2,1.5v0.9
			v8.2c0,0.9,0,1.2-0.1,1.5c0,0.2-0.1,0.4-0.2,0.6c-0.1,0.4-0.3,0.6-0.6,0.9c0,0-0.1,0.1-0.2,0.2h4.7c-0.2-0.2-0.3-0.4-0.4-0.5
			c-0.1-0.2-0.2-0.3-0.3-0.4c-0.2-0.4-0.2-0.7-0.3-1.3c0-0.4,0-0.6,0-0.9v-3.6L-322,292.5L-322,292.5z"/>
		<path id="XMLID_2615_" class="st1" d="M-386.9,284.4c0.3,0.3,0.4,0.3,0.5,0.5c0.1,0.2,0.2,0.4,0.2,0.5c0.1,0.3,0.1,0.4,0.1,0.7
			c0,0.2,0,0.5,0,0.9v0.9v4.3c0,1.5,0,2.1,0.1,2.7c0.1,1.1,0.4,2,1,2.7c0.6,0.8,1.4,1.3,2.5,1.7c0.8,0.3,1.7,0.4,2.7,0.4
			c1.1,0,2.2-0.2,3-0.4c0.9-0.4,1.6-0.9,2.2-1.4c0.7-0.8,1.1-1.7,1.2-2.9c0.1-0.7,0.1-1.3,0.1-2.7v-4.3v-0.9v-0.1
			c0-0.8,0.1-1.2,0.2-1.4c0.2-0.5,0.4-0.9,0.7-1c0.1-0.1,0.1-0.1,0.2-0.2h-4.5c0.2,0.3,0.3,0.4,0.4,0.7c0.1,0.2,0.1,0.4,0.1,0.6
			c0.1,0.5,0.1,1.2,0.1,2.5v4.6c0,1.3,0,2-0.1,2.6c-0.1,0.4-0.2,0.8-0.4,1.1c-0.4,0.6-1,1.1-1.8,1.3c-0.4,0.1-0.7,0.1-1,0.1
			c-0.8,0-1.4-0.2-2.1-0.5c-0.4-0.2-0.7-0.5-0.9-0.8c-0.4-0.6-0.5-1.2-0.5-2.7V292v-3.8c0-1.3,0-2,0.1-2.5c0.1-0.4,0.2-0.8,0.4-1.1
			c0,0,0.1-0.1,0.1-0.2L-386.9,284.4L-386.9,284.4z"/>
		<path id="XMLID_2611_" class="st1" d="M-365.8,296.2c0,0.3,0,0.5,0,0.8c0,0.7,0.1,1,0.2,1.3c0.1,0.2,0.2,0.4,0.3,0.4
			c0.2,0.2,0.2,0.3,0.4,0.5h-4.8c0.3-0.3,0.4-0.4,0.5-0.5c0.1-0.2,0.2-0.4,0.3-0.5c0.1-0.4,0.2-0.8,0.2-1.4v-0.6V288v-0.9
			c0-0.8-0.1-1.3-0.2-1.6c-0.1-0.2-0.2-0.4-0.3-0.5c-0.3-0.3-0.4-0.3-0.6-0.5h3.9c0.5,0,0.9,0,1.3,0c1.2,0,1.9,0.1,2.6,0.3
			c0.9,0.3,1.8,0.7,2.4,1.3c0.7,0.7,1,1.5,1,2.5c0,0.4-0.1,0.8-0.2,1.1c-0.3,0.7-0.6,1.2-1.2,1.7c-0.5,0.4-1.1,0.8-1.9,1
			c-0.3,0.1-0.4,0.2-0.7,0.3l2.3,2.7c0.3,0.4,0.7,0.8,1.1,1.2c0.7,0.8,1.2,1.2,1.7,1.7c0.3,0.3,0.4,0.4,0.7,0.6
			c0.2,0.2,0.3,0.3,0.5,0.4h-1.2h-0.7c-0.3,0-0.5,0-0.8,0c-0.7,0-1-0.1-1.4-0.4c-0.5-0.3-1-0.7-1.5-1.2c-0.2-0.2-0.4-0.4-0.8-0.8
			c-0.3-0.4-0.5-0.6-0.6-0.7l-2.7-3.3L-365.8,296.2L-365.8,296.2L-365.8,296.2z M-365.6,291.6c0.3,0,0.5,0,0.8-0.1
			c0.8-0.1,1.3-0.3,1.9-0.6c0.3-0.2,0.5-0.4,0.7-0.6c0.4-0.4,0.6-1,0.6-1.7c0-0.8-0.3-1.3-0.8-1.8c-0.3-0.3-0.6-0.4-1-0.5
			c-0.6-0.2-1.3-0.3-2.1-0.3c-0.1,0-0.2,0-0.4,0v5.6C-365.7,291.6-365.7,291.6-365.6,291.6L-365.6,291.6z"/>
	</g>
</g>
</svg>
